<svg id="beauicon" xmlns='http://www.w3.org/2000/svg' viewBox="-20 4 420 362" class="artisticon"><path class="cls-2" d="M293,0l2,2,2-1c3.34,3.53,3.69,7.17,4.12,11.81.15,1.38.3,2.76.45,4.14.07.67.14,1.35.21,2.04.22,1.95.5,3.89.78,5.83q.45,3.18.45,6.18c.47,2.4.97,4.8,1.5,7.19q.42,1.91.84,3.86c.22.98.43,1.95.66,2.96.69-.08,1.38-.17,2.09-.25q15.55-1.69,21.91,2.25c1.79,2.23,2.76,4.37,4,7-.33.99-.66,1.98-1,3v3c-.33.99-.66,1.98-1,3h-2c-.08.72-.17,1.44-.25,2.19-.9,3.36-2.54,5.17-4.75,7.81v2h-3c-.11.61-.22,1.23-.33,1.86-.16.81-.32,1.62-.48,2.45q-.23,1.2-.46,2.43c-.82,2.54-1.78,3.49-3.73,5.26q-2.42,4.25-3,9c.87-.43,1.74-.87,2.63-1.31,1.15-.56,2.3-1.11,3.49-1.69,1.14-.56,2.27-1.11,3.45-1.69,4.94-1.89,7.98-1.96,12.8.19q1.3.74,2.62,1.5v3c.66-.33,1.32-.66,2-1,1.61,3.65,2.45,7.05,3,11,.56.06,1.11.12,1.69.18,5.11.56,10.21,1.17,15.31,1.82v2q2.97-.5,6-1c.33.66.66,1.32,1,2h3q3,2,3.51,4.38.09,1.36.18,2.74c.07.91.13,1.82.2,2.76q.06,1.05.11,2.12h-2q-.19,1.42-.38,2.88-.62,3.12-2.62,5.12c-1.35,1.99-2.69,3.99-4,6-1.81,2.72-3.66,4.74-6,7,2.58,2.65,4.92,4.94,8,7,1.72,2.49,2.03,3.64,1.75,6.69q-.37,1.14-.75,2.31c-.66.33-1.32.66-2,1l-1,2c-.99.33-1.98.66-3,1,.19.62.37,1.24.56,1.88q.44,2.12-.56,4.12c-2.65.59-5.29.74-8,1v3q-6.5,2.17-10,1v3q-1.18.43-2.38.88-2.72.97-4.62,3.12h-3c-.33.33-.66.66-1,1-1.67.04-3.33.04-5,0-.33.99-.66,1.98-1,3-.33-.33-.66-.66-1-1-.99.66-1.98,1.32-3,2-.85.33-1.69.66-2.56,1q-2.56.87-4.44,3c-.66-.33-1.32-.66-2-1-.33.66-.66,1.32-1,2-.66-.33-1.32-.66-2-1-.33.99-.66,1.98-1,3-2.82,1.07-4.91,1-8,1q-1.9,1.07-3,3,0,2.56.56,5.31.76,6.13-1.31,9.31-2.25,2.38-5.25,3.38c-.33.66-.66,1.32-1,2-1.44-.28-2.88-.58-4.31-.88q-1.2-.24-2.43-.49-2.26-.63-5.26-2.63c-1.43-.65-2.87-1.27-4.31-1.88-4.8-2.09-8.95-4.39-12.69-8.12q-2.57-.65-5-1v-2q-.87-.19-1.75-.38c-2.27-.63-4.18-1.51-6.25-2.62v-2c-.99.33-1.98.66-3,1-.66-.66-1.32-1.32-2-2-.31.62-.62,1.24-.94,1.88l-2.06,4.12c-.18,1.43-.32,2.87-.44,4.31-.36,3.58-1.14,6.37-2.56,9.69v4h-2q.31,1.55.62,3.12c.39,4.07-.23,6.11-1.62,9.88v5c-.66.66-1.32,1.32-2,2-.75,1.36-1.45,2.73-2.12,4.12-.35.72-.71,1.45-1.07,2.2-.27.55-.53,1.11-.8,1.68q-11.83.86-15.75-2.5c-.74-.82-1.49-1.65-2.25-2.5q.28-.96.56-1.94t.44-2.06l-1-1c-1.04-3.12-1.09-4.03,0-7,.66-.33,1.32-.66,2-1,.38-1.66.7-3.33,1-5,1.36-4.28,2.93-8.48,4.5-12.69q4.17-10.95,3.5-22.31c-.58.19-1.15.37-1.75.56-2.48.48-3.85.08-6.25-.56-.66.33-1.32.66-2,1v-2q-1,.14-2.01.29c-4.98.62-8.38,1.02-12.99-1.29-.66.33-1.32.66-2,1-1.89-.41-3.77-.9-5.62-1.44-1-.29-2.01-.57-3.04-.87-.77-.23-1.54-.46-2.34-.69l-1,2v-2q-3.05-1.01-6,0c-.08-.6-.17-1.2-.25-1.81-.96-2.81-2.35-3.51-4.75-5.19q-2-3-1.86-5.12c1.04-4.39,2.03-7.31,4.86-10.88q.72-3.15,1-6h-2q-4-6.75-4-9h-2c-.66-1.98-1.32-3.96-2-6h-2q-2.89-6.53-3.56-9.38c-.14-.54-.29-1.07-.44-1.62l-2-1c-.41-.85-.82-1.69-1.25-2.56-2.68-5.26-6.32-9.7-10.06-14.25q-1.69-2.19-2.69-5.19l-2-1q0-10,2.06-12.62c3.43-2.77,5.68-3.46,9.94-4.38v-7c-.21-1.24-.41-2.47-.62-3.75-.52-3.88.08-6.61,1.62-10.25l-2-1c.19-.74.37-1.49.56-2.25q.61-2.63-.09-4.66c-.8-3.59.54-6.6,1.53-10.09h2v-2h2v-2c8.75-1.01,15.16,3.06,22.47,7.5,2.88,1.71,5.84,3.2,8.84,4.69,1.07.53,2.14,1.06,3.24,1.61.81.4,1.62.8,2.45,1.21v-2c2.04-2.14,3.46-3.62,6-5q3.88.19,7,1,.5-.99,1-2c4.11,1.52,6.66,4.41,9,8,1.2,2.64,2.1,5.24,3,8,1.27-3.87,1.11-7.73,1.06-11.75,0-.7,0-1.39-.01-2.11-.01-1.71-.03-3.42-.05-5.14h2q-.31-1.27-.62-2.56c-.44-4.04.44-6.56,1.62-10.44.32-2.29.55-4.58.75-6.89.25-2.11.69-4.07,1.25-6.11h3l2-4-2-1,5.96.2q2.36-.06,5.04-2.2c5.83,3,10.39,7.58,14,13q2.99-.77,6-2,.5-1.49,1-3h2c.27-.64.54-1.28.81-1.94q1.19-2.06,4.19-3.06c.71-1.65,1.37-3.32,2-5q2-3.31,4-6h2c.33-.99.66-1.98,1-3l2-1c-.33-.66-.66-1.32-1-2h4c.66-.66,1.32-1.32,2-2q2.12.38,4,1l1-2ZM293,3c.66.66,1.32,1.32,2,2v-2h-2ZM284,30q-2.06,1.29-4,3v3h-4q-1.73,1.88-3,4c-.33.33-.66.66-1,1-.78.85-1.57,1.69-2.38,2.56-3.06,2.84-3.73,2.44-7.62,2.44q.5,1.49,1,3c-.6-.08-1.21-.17-1.83-.25-.8-.1-1.6-.2-2.42-.31-.79-.1-1.58-.21-2.39-.32-2.36-.12-4.11.18-6.36.88-.33-1.65-.66-3.3-1-5-.99.33-1.98.66-3,1v-2h-2c-.58,7.34-1.15,14.63-1,22q-.99.5-2,1,.99,2.97,2,6-.99.5-2,1,.49,2.47,1,5-.99.5-2,1c-.1,1.85-.13,3.71-.12,5.56-.4,6.2-2.26,8.99-6.67,13.21q-2.2,1.23-4.97.93c-.74-.23-1.47-.46-2.23-.7v2c-.99-.33-1.98-.66-3-1q-.43-.96-.88-1.94c-1.52-2.78-3.18-3.13-6.12-4.06.33-.99.66-1.98,1-3h-3q.5-.99,1-2h-2v-2h-2c-.06-.72-.12-1.44-.19-2.19-1.07-3.72-2.87-5.36-5.81-7.81-2.72,0-4.33.34-6.88,1.12-2.94.77-4.02.9-7.06.12q-2.06-1.25-3.06-3.25c-2-.34-4-.67-6-1l-2-2h-3v-2c-.99-.33-1.98-.66-3-1,.01.96.02,1.93.04,2.92,0,1.26.02,2.53.03,3.83.01,1.25.02,2.51.04,3.8q-.1,3.45-.66,5.66-.6,1.82.15,3.7c.61,3.12-.59,4.91-1.96,7.73-.46.96-.92,1.92-1.4,2.91-.74,1.49-1.48,2.97-2.23,4.46q-1.49.5-3,1,.74,3,2.69,4.62c3.57,3.67,7.62,8.39,8.8,13.47q.36,2,1.93,3.3c1.66,1.68,2.44,3.07,3.41,5.21,2.3,4.79,5.05,9.26,7.86,13.77.98,1.59,1.97,3.18,2.95,4.77.43.69.86,1.39,1.3,2.1,2.1,3.48,2.38,5.65,2.06,9.75-.95,2.02-1.95,4.03-3,6v3c.63.06,1.25.12,1.9.18.82.08,1.63.17,2.48.25q1.22.12,2.46.25,2.16.32,4.16,1.32c1.45.08,2.9.11,4.35.1.85,0,1.7,0,2.58,0,.89,0,1.78-.02,2.7-.03q1.35,0,2.72-.01c2.22-.01,4.44-.03,6.66-.05l1,2c.99-.33,1.98-.66,3-1,2.56.04,5.07.14,7.62.31.69.04,1.39.07,2.1.11,1.76.12,3.52.34,5.27.58.33.66.66,1.32,1,2,.66-.33,1.32-.66,2-1,.33.66.66,1.32,1,2,1.99.91,3.99,1.81,6.01,2.67,9.36,4.16,18.53,8.79,27.17,14.3q1.76,1.2,3.82,1.03c.31-.63.63-1.25.95-1.9.43-.82.86-1.63,1.3-2.48.42-.81.84-1.62,1.27-2.46,1.63-2.37,2.84-3.14,5.48-4.16v-3c3.65-.75,7.32-1.4,11-2v-2c.7-.11,1.4-.22,2.12-.33,3.24-.76,5.88-1.97,8.88-3.42,4.47-2.12,8.93-4.03,13.56-5.75,6.31-2.38,12.72-4.89,18.44-8.5.33-.99.66-1.98,1-3-1.98-.99-3.96-1.98-6-3,.99-.33,1.98-.66,3-1q-1.31-3.12-4-5v-3h3c-.33-.99-.66-1.98-1-3q.86-.8,1.74-1.62c2.52-2.66,4.44-5.44,6.45-8.51.69-1.05,1.39-2.11,2.11-3.2q1.67-2.52,2.71-4.68-1.89-.68-4-1c-.66.66-1.32,1.32-2,2-.99-.33-1.98-.66-3-1-2.31-.26-4.62-.44-6.94-.62q-2.06-.38-4.06-2.38-1.95-1.23-4-2-.99.5-2,1v-6c.99-.33,1.98-.66,3-1h-5c-.33-.99-.66-1.98-1-3q-2.97.5-6,1v2q-1.21.22-2.44.44-2.48.3-3.56,1.56h-2c-.33.99-.66,1.98-1,3-.91-.04-1.82-.08-2.75-.12-3.2.12-4.53.62-7.25,2.12h-3c-.66-1.65-1.32-3.3-2-5-.66.66-1.32,1.32-2,2-.66-.33-1.32-.66-2-1q-.99.5-2,1,.99-1.49,2-3c.33-.66.66-1.32,1-2-1.65-.33-3.3-.66-5-1q1-2,4-4c-.66-.66-1.32-1.32-2-2,.36-.69.72-1.37,1.09-2.08.46-.9.93-1.8,1.41-2.73q.7-1.34,1.41-2.71,1.3-2.49,1.09-5.48h2c.5-1.02.99-2.03,1.5-3.08.69-1.39,1.37-2.78,2.06-4.17.36-.72.71-1.45,1.08-2.19,2.8-5.59,5.87-10.91,9.2-16.2q1.52-2.41.15-5.36-3.89-.21-7,1c-3.4-.9-5.5-1.5-8-4-.66.33-1.32.66-2,1v-2h-2q-.4-1.24-.81-2.5c-.87-2.55-1.78-5.05-2.75-7.56q-2.28-6.12-2.44-8.94,1.44-1.81,3-3c-.99-.33-1.98-.66-3-1q-.99-1.49-2-3ZM288,44l1,2-1-2ZM241,68l1,2-1-2ZM172,72l1,2-1-2ZM210,78l1,2-1-2ZM146,99l1,2-1-2ZM310,114l1,3-1-3ZM157,120l1,2-1-2ZM183,135l1,3-1-3ZM340,145v2c1.32-.33,2.64-.66,4-1-1.32-.33-2.64-.66-4-1ZM179,155l1,2-1-2ZM175,174l-1,2h2l-1-2ZM217,243l1,2-1-2ZM219,244l1,2-1-2Z"/>
                                <path class="cls-1" d="M54.5,186.69c.75.15,1.51.3,2.28.45,2.79,1.09,4.14,2.73,6.22,4.86,1.8,1.1,3.63,2.15,5.5,3.12.94.5,1.88,1,2.84,1.51,2.21,1.14,4.43,2.26,6.66,3.37q.71-.54,1.43-1.09c.62-.46,1.25-.93,1.89-1.41.61-.46,1.23-.93,1.86-1.41q1.82-1.09,4.82-1.09v-3c1.65.66,3.3,1.32,5,2v-2h2q.49.99,1,2h3c2.5,2.98,3.15,5.49,3.44,9.25.41,5.14,2.25,9.19,4.56,13.75.37.75.75,1.49,1.13,2.26.29.57.57,1.15.87,1.74q.47-.83.95-1.68c.43-.72.86-1.45,1.3-2.2.42-.72.84-1.44,1.27-2.18,1.66-2.18,3.01-2.85,5.48-3.95.66-.66,1.32-1.32,2-2,2.78.31,4.99,1.43,7.56,2.56q3.28,1.63,6.44,1.44,1.98-1.4,3.94-3.25c.71-.64,1.41-1.28,2.14-1.93,1.42-1.34,2.81-2.73,4.18-4.13,1.86-1.8,3.3-2.85,5.75-3.69q2.06.38,4,1h3c.99.33,1.98.66,3,1v2h2c.82,2.73,1.63,5.46,2.44,8.19.23.77.46,1.54.7,2.33,1.13,3.81,2.15,7.57,2.87,11.48q.5,2.25,2,4c2.33.69,4.66,1.35,7,2q2.5,1.62,4,4c0,5.42-1.17,8.76-4.02,13.28-1.56,2.74-2.19,5.69-2.98,8.72-.67,1.67-1.33,3.33-2,5-.27,1.07-.54,2.14-.81,3.25-1.47,4.64-3.71,8.58-6.19,12.75h-2q.03,1.18.06,2.38-.06,2.62-1.06,4.62.72.53,1.46,1.07c4.67,3.65,6.49,6.09,7.54,11.93h-2q.4,1.33.81,2.69.19,3.31-2,6.12c-3.16,2.46-4.91,3.19-8.81,3.19.33.99.66,1.98,1,3-.99-.33-1.98-.66-3-1-.95.47-1.9.95-2.88,1.44-3.12,1.56-4.72,1.86-8.12,1.56l-1,2c-2,.35-4,.68-6,1q-3.25,1.72-4,5h2c.28.59.56,1.19.85,1.8,2.34,4.84,4.86,9.43,7.78,13.95q6.5,10.07,6.16,13.17c-1.57,4.13-5.1,6.81-8.79,9.08q-3.81-.06-7-1h-3c-3.18-5.39-5.85-10.78-8.09-16.63-.83-2.15-1.73-4.26-2.66-6.37q-1.25-3-1.25-5c-.66-.33-1.32-.66-2-1-1.33-.67-2.67-1.33-4-2v2c-2.14,2.14-4.29,3.65-7,5,.33.66.66,1.32,1,2q-4.75,3-7,3v2l-3,3v2c-.62.12-1.24.25-1.88.38q-2.32.5-4.12,2.62-5.33.33-8-1v2c-3.31-.57-4.87-1.41-7-4-.89-2.51-1.51-5.04-2.16-7.62-.93-2.62-1.58-3.77-3.84-5.38q-2.5-.58-5.19-.69-1.35-.1-2.73-.2c-.69-.04-1.37-.07-2.08-.11v-2q-.9.34-1.81.69c-.72.1-1.44.21-2.19.31q-1.75-1.44-3-3c-.33.66-.66,1.32-1,2-2-.33-4-.66-6-1-.93-.14-1.86-.29-2.81-.44-.72-.19-1.44-.37-2.19-.56-.33-.66-.66-1.32-1-2-.64.19-1.28.37-1.94.56q-1.02.22-2.06.44c-.33-.33-.66-.66-1-1-1.41-.37-2.83-.7-4.25-1-.81-.17-1.62-.35-2.46-.53-1.72-.36-3.44-.7-5.16-1.04q-2.12-.44-5.12-1.44v-3c-1.65-.33-3.3-.66-5-1-.3-5.17.21-7.7,3-12,.72-2.32,1.4-4.65,2-7-.55-.11-1.1-.22-1.67-.34-2.73-.77-5.06-1.93-7.58-3.22-.89-.46-1.78-.91-2.7-1.38q-1.01-.52-2.05-1.06v-3q-1.49.5-3,1c-.33-.99-.66-1.98-1-3-.66-.66-1.32-1.32-2-2q.99-.99,2-2v-3q.12-2.5,1-5c5.31-3.12,10.93-4.42,16.86-5.94,2.94-.99,4.38-1.55,6.14-4.06q-.25-2.07-1-4,0-5,1-7-1.49.5-3,1v-2c1.29-.53,2.58-1.05,3.88-1.56.72-.29,1.44-.58,2.18-.88q1.95-.56,3.95.44c1.54.22,3.08.41,4.62.56.82.08,1.63.17,2.48.25.63.06,1.25.12,1.9.18v-2q-.99-.5-2-1-.59-1.33-1.19-2.69c-1.99-3.64-4.05-5.43-7.29-7.92q-1.52-1.39-2.52-4.39,1-3,2-4-2.48.49-5,1c.29-.56.58-1.11.88-1.69,1.17-2.4,2.16-4.83,3.12-7.31h3l1-2h3c2.34-.64,4.68-1.3,7-2q.09-.98.18-1.98c.45-4.71.96-9.37,1.82-14.02l-2-1c.02-.74.04-1.49.06-2.25q.06-2.64-.62-4.62c-.66-3.21-.09-5.95.56-9.12,3.27-3.27,6.11-3.25,10.5-2.31ZM52,188c.33.66.66,1.32,1,2l1-2h-2ZM45,191c-.33.66-.66,1.32-1,2h2c-.33-.66-.66-1.32-1-2ZM97,195l1,2-1-2ZM146,203c.66.66,1.32,1.32,2,2v-2h-2ZM156,203l1,2-1-2ZM64,212c-.54,2.64-1.04,5.27-1.44,7.94-1.16,6.34-2.73,9.7-7.56,14.06-.6.6-1.2,1.2-1.81,1.81-.39.39-.78.78-1.19,1.19,1.72,3.81,4.09,7.11,6.5,10.5,2.41,3.4,4.69,6.73,6.5,10.5.47.45.95.91,1.44,1.38,2.2,2.29,3.35,4.7,4.56,7.62-1.26,3.79-2.99,5.4-6,8q-2.5.75-5,1c-.78.23-1.57.45-2.38.69-3.53.42-6.24-.7-9.62-1.69q-2.33.26-4,1c-.33-.66-.66-1.32-1-2-1.15,1.62-2.29,3.25-3.44,4.88-.64.9-1.28,1.81-1.93,2.74q-1.62,2.26-2.63,4.38c-.99-.33-1.98-.66-3-1l-2,4,4,4q-.5.99-1,2,.96.28,1.94.56,2.06,1.44,2.94,4.81c.12,3.62-.22,4.62-1.88,7.62q.4,2.09,1,4c.82.18,1.64.36,2.49.55,6.27,1.41,12.4,2.93,18.48,5q2.21.68,5.02-.55c1.67.65,3.34,1.32,5,2,2.31.34,4.62.63,6.94.88,7.32.99,10.58,2.25,15.44,7.88.54.74,1.07,1.49,1.62,2.25q2.04-1.36,4-3v-2q.88-.41,1.78-.82c2.19-1.17,3.86-2.42,5.72-4.05.61-.53,1.22-1.06,1.85-1.61q1.74-1.56,3.59-3.57c5.08-4.77,10.15-7.24,16.98-8.48q2.31-.42,5.09-1.96c3.88-1.94,7.76-2.7,12-3.5v-2c1.32-.33,2.64-.66,4-1-.35-.95-.7-1.9-1.06-2.88q-.94-3.12.06-5.12-1.98-.5-4-1c2.53-6.72,5.48-13.08,8.83-19.43q1.38-2.55,1.17-5.57h2q.19-1.45.38-2.94t.62-3.06c.66-.33,1.32-.66,2-1v-2c.39-1.31.78-2.63,1.19-3.94q.59-2.11.81-4.06-1.23-1.81-3-3-.69-2.19-1-4-.5.49-1,1-.99-1.49-2-3c.33-.66.66-1.32,1-2l-2-1q-.34-2.21-.5-4.94-.1-4.01-2.5-7.06c-.91.8-1.82,1.61-2.75,2.44-2.35,1.97-4.12,3.2-7.25,3.56v2c-.56-.19-1.11-.37-1.69-.56-2.74-.52-4.6-.03-7.31.56-1.67.04-3.33.05-5,0-1.89,3.28-2.45,6.28-3,10q-.5,1.49-1,3-1.49.49-3,1-1.43,1.4-2.69,3.06-1.14,1.45-2.31,2.94-1.98-.49-4-1v2c-2.76-.52-5.33-1.11-8-2-.72-1.98-1.38-3.98-2-6l-2-2c-.7-1.65-1.37-3.32-2-5q-.49-.99-1-2,.99-.49,2-1l-2-2q.38-2.12,1-4h-3c-.29-1.22-.58-2.43-.88-3.69-.8-3.23-1.79-6.26-3.12-9.31q-1.89-.06-3.81-.12c-.71-.02-1.42-.05-2.14-.07q-2.36.06-5.04,2.2-2.31-.81-5-2c-1.07-.17-2.15-.33-3.25-.5-.91-.17-1.81-.33-2.75-.5l-1-2ZM151,233l1,2-1-2ZM151,274l1,2-1-2ZM147,292v2c.66-.33,1.32-.66,2-1-.66-.33-1.32-.66-2-1ZM167,292c-.33.66-.66,1.32-1,2h2c-.33-.66-.66-1.32-1-2ZM18,317l1,2-1-2ZM131,354l1,2-1-2ZM134,358l1,2-1-2Z"/>
                                <path class="cls-1" d="M258,60q3.12-.44,7,0c2.4,2.05,4.12,4.48,6,7,.98,1.02,1.98,2.02,3,3,.62-.66,1.24-1.32,1.88-2q2.12-2,4.12-2c.33-.66.66-1.32,1-2q3.06-.62,6-1v2l4-1c1.89,2.39,3.02,4.07,4,7q-.94,3.19-2,6h-2c-.08.76-.15,1.51-.23,2.29-.97,3.41-2.12,4.15-5.08,6.02-.78.51-1.56,1.02-2.36,1.55q-2.32,1.14-6.32,1.14l-3,7c.72.43,1.44.87,2.19,1.31.93.56,1.86,1.11,2.81,1.69.93.49,1.86.99,2.81,1.5.72.49,1.44.99,2.19,1.5,0,3.65-.85,6.55-2,10q-.99.49-2,1c-.66.99-1.32,1.98-2,3q-2.12.69-4,1v2h-2c-.33.99-.66,1.98-1,3h-3c-1.34.31-2.68.63-4,1,.04.78.08,1.57.12,2.38q-.12,2.62-2.12,4.62c-.35,2.33-.68,4.66-1,7-.63,1.68-1.3,3.35-2,5-.69,2.33-1.36,4.66-2,7q1.68-.88,3.4-1.77c4.6-2.3,9.32-4.11,14.16-5.85.81-.3,1.62-.6,2.46-.91,6.05-2.21,12.16-4.06,18.42-5.59,1.18-.29,2.35-.58,3.56-.88v-3h2c.23-.78.45-1.57.69-2.38q1.31-2.62,3.75-3.94c3.37-.9,5.24-.8,8.56.31.66.66,1.32,1.32,2,2,.74.72,1.49,1.44,2.25,2.19q1.75,2.81,1,6.62-.62,1.58-1.25,3.19h-2c1.34,4.29,2.98,6.11,6.62,8.69,1.49,1.06,2.96,2.16,4.38,3.31v2h2c.33,1.32.66,2.64,1,4-.99.33-1.98.66-3,1-.68,1.32-1.35,2.66-2,4-3.71,2.48-6.7,2.54-11,2-3.2-1.41-4.99-2.99-7.44-5.5-3.21-3.13-6.04-5.47-10.69-5.53q-2.46.2-5.88,1.03c-.33.66-.66,1.32-1,2-.66-.33-1.32-.66-2-1-.33.33-.66.66-1,1-1.33.36-2.66.7-4,1v2c.58.23,1.16.45,1.75.69,2.99,1.74,4.47,3.34,6.25,6.31q-.25,3.81-1,7h-2q-.99,1.98-2,4h-6v-2c-.57.22-1.14.45-1.73.68q-2.27.32-4.41-.82c-.7-.55-1.39-1.1-2.11-1.67q-1.06-.81-2.14-1.64c-.53-.51-1.06-1.02-1.61-1.54v-2c-1.98-.73-3.98-1.39-6-2q-.99.5-2,1-3.69,1.15-6,0-.49,1.49-1,3c-2.94,1.18-3.9,1.03-7,0-.85.19-1.69.37-2.56.56q-1.21.22-2.44.44-.99-.99-2-2h-3c-3.58-1.79-5.9-3.57-8-7v-2c-.99-.33-1.98-.66-3-1v-2q-.99-.5-2-1v-2q-.99-.5-2-1c-.56-.45-1.11-.91-1.69-1.38-2.96-2.08-5.96-3.27-9.31-4.62l-1,2c-3.3-.66-6.6-1.32-10-2v-2h-2q-1.69-1.56-3-4,.38-3.62,1-7c-.33-.66-.66-1.32-1-2q1.49-.5,3-1v-2h3q-1.49-.99-3-2v-2h-2v-3c-.99-.33-1.98-.66-3-1v-2h-2v-3c-.62-.08-1.24-.17-1.88-.25q-2.12-.75-3.31-2.69c-.27-.68-.54-1.36-.81-2.06q-.95-2.16-3-4,.38-2.62,1-5h3v-3l-2-1c.95.04,1.9.08,2.88.12q3.23.22,5.12-2.12c2.52.84,4.65,1.79,7,3l2.25,1.12,1.75.88q.31-.96.62-1.94,1.38-2.06,4.25-2.81,3.12-.25,7.12-.25c.33.99.66,1.98,1,3v-2c.99.33,1.98.66,3,1,1.29,6.68.87,10.51-2.09,16.64-1.01,2.61-1.07,4.58-.91,7.36.76.25,1.51.49,2.29.75,3.04,1.41,4.14,2.63,6.09,5.32.59.8,1.17,1.59,1.78,2.41q.91,1.25,1.85,2.52c1.9,2.39,3.8,4.77,5.71,7.15q1.29,1.85,1.29,3.85c1.65.33,3.3.66,5,1,2.54-5.72,2.9-11.85,2-18q-2.28-2.56-5-4-.81-2.25-1-4h-3c-.12-.62-.25-1.24-.38-1.88q-.5-2.32-2.62-4.12h2c-.21-.62-.41-1.24-.62-1.88-.12-.7-.25-1.4-.38-2.12q2-2,4.06-2.44c.64-.19,1.28-.37,1.94-.56.33-.99.66-1.98,1-3q10.74,2.71,14,7,.29-.98.59-1.98c1.71-5.73,3.44-11.42,5.54-17.02.94-3.23,1.25-5.66.88-9q-1.42-1.75-3-3v-2l-2-1-1-3,1-2h-2c.66-1.98,1.32-3.96,2-6h2v-3h2v2c.66-.66,1.32-1.32,2-2v-1ZM289,65l1,2-1-2ZM185,98l1,2-1-2ZM234,109v3-3Z"/>
                                <path class="cls-2" d="M74,236c1.32.99,2.64,1.98,4,3,.33-.66.66-1.32,1-2h3c.33.66.66,1.32,1,2h2c.33.99.66,1.98,1,3q1.21,1.18,2.44,2.38c2.58,2.64,3.32,4.24,4.56,7.62,1.31,2.01,2.65,4.01,4,6,.28.59.55,1.18.84,1.79,1.93,3.68,4.55,6.96,7.06,10.26,2.8,3.87,3.35,6.25,3.1,10.95.66.99,1.32,1.98,2,3-1.32.99-2.64,1.98-4,3q-.99-.49-2-1,.5,1.98,1,4-1.98.49-4,1v-3q-1.49.49-3,1v-2c-.75.11-1.49.22-2.26.34q-2.74-.34-4.76-2.67c-.59-1-1.18-2.01-1.79-3.04-.6-1-1.21-2-1.83-3.02q-1.36-2.6-1.36-4.6h-2c-.27-.76-.54-1.53-.81-2.31q-.97-2.68-2.75-4.12c-2.1-2.28-2.1-4.56-2.44-7.56h-2l-6-12c.99-.99,1.98-1.98,3-3-.66-.99-1.32-1.98-2-3-.33-.99-.66-1.98-1-3,.99-.33,1.98-.66,3-1l1-2ZM76,256l1,2-1-2ZM99,285l1,2-1-2Z"/>
                                <path class="cls-2" d="M51,287c7.13-.13,14.18-.05,21.18,1.47,4.04.75,8.11,1.12,12.2,1.53,5.56.56,11.1,1.17,16.62,2,.77,3.39,1.38,6.53,1,10-.99.66-1.98,1.32-3,2-.39.52-.78,1.03-1.19,1.56-2.99,2.37-6.06,2.2-9.81,2.44-.33-.33-.66-.66-1-1l-2,1c-1.99-.22-3.97-.53-5.94-.88-1.06-.18-2.12-.37-3.21-.55q-2.85-.57-5.85-1.57c-1.4-.02-2.79,0-4.19.06-4.6.07-8.4-.8-12.81-2.06h-1c-.33-.66-.66-1.32-1-2h-2v-2h3c-.33-.99-.66-1.98-1-3-.99-.33-1.98-.66-3-1,.33-.99.66-1.98,1-3-.33-.66-.66-1.32-1-2,1.65-.66,3.3-1.32,5-2l-2-1ZM51,291l1,3-1-3ZM54,297l1,2-1-2Z"/>
                                <path class="cls-2" d="M127,247h4c.66.66,1.32,1.32,2,2q1.98-.35,4-1,3,0,5,1,1.12,2.06,2,4c-.6.8-1.2,1.61-1.81,2.44-2.27,3.36-3.37,6.83-4.48,10.71q-.71,1.86-2.71,2.86c-1.04,1.98-2.03,3.98-3,6-.54.87-1.07,1.73-1.62,2.62q-1.45,2.24-1.88,4.5c-.62,2.33-1.78,3.23-3.5,4.88v2c-1.32-.33-2.64-.66-4-1-.66.99-1.32,1.98-2,3q-4.71-3.14-6-7-.56-.96-1.12-1.94c-1.13-2.65-.79-3.33.12-6.06,1.15-2.44,2.33-4.85,3.56-7.25.33-.65.66-1.3,1-1.97.81-1.6,1.62-3.19,2.44-4.78h2q.15-.77.31-1.56c.94-3.32,2.17-6.34,3.69-9.44.99-.33,1.98-.66,3-1-.33-.99-.66-1.98-1-3Z"/></svg>