<svg id="demicon" xmlns='http://www.w3.org/2000/svg' viewBox="-85 -52 470 470" class="artisticon"><path class="cls-2" d="M135.44,10.5c2.08,1.57,3.74,3.11,5.56,4.94,1.27,1.09,2.54,2.17,3.81,3.25,3.81,3.31,7,6.84,10.19,10.75q6.73-5.01,12.31-11.19c7.89-8.25,22.13-9.78,33.06-10.19,9.8.16,18.66,3.81,27.6,7.54,1.65.68,3.33,1.27,5.02,1.83v2h4q1.89,1.64,3.69,3.81c.6.71,1.2,1.42,1.82,2.14q1.49,2.04,2.49,5.04.99.46,2,.94,2,1.06,2.75,3.19c.08.62.17,1.24.25,1.88h2c10.8,14.04,12.53,32.92,14,50h-2c.08,1.18.16,2.35.25,3.56.01,9.14-3.05,18.41-7.25,26.44-.55,1.32-1.07,2.66-1.56,4-.24.67-.49,1.34-.74,2.03-.93,2.64-1.83,5.3-2.7,7.97h-2c-.66,1.65-1.32,3.3-2,5h-2c-.66,1.32-1.32,2.64-2,4h-2q-.34,1.21-.69,2.44c-.43.85-.87,1.69-1.31,2.56-1.67.34-3.33.67-5,1-2.68,3.33-3.36,5.76-3,10,5.76-2.03,10.9-5.29,16.14-8.37,6.98-3.98,13.13-5.93,21.29-5.82q1.54,0,3.12.02,2.44.17,3.44,1.17c2.03.26,4.06.51,6.09.72q1.91.28,3.91,1.28v2c.6.26,1.2.53,1.81.8,5.73,3.14,9.34,9.51,12.19,15.2,1.21,4.35,1,8.5,1,13l-2,1q-.47,2.13-.62,4.56c-.07.83-.15,1.65-.23,2.5-.05.64-.1,1.28-.15,1.93-.99.33-1.98.66-3,1,.33.99.66,1.98,1,3-1.75,1.46-3.5,2.92-5.25,4.38-.97.81-1.95,1.62-2.95,2.46-3.44,2.66-5.42,4.16-9.8,4.16l-2,1c.27.64.53,1.29.8,1.95,2.86,7.31,4.18,14.3,5.2,22.05.37,2.27.75,4.54,1.12,6.81.57,3.66.97,7.11.88,10.81q-.31,3.51,2,6.38c0,1.99,0,3.97-.06,5.96q-.03,2.25,1.06,5.04c1.28,3.84,1.07,6.97,1,11,.33.33.66.66,1,1,.1,1.81.13,3.62.12,5.44,0,.99,0,1.98,0,3q-.13,2.57-1.13,4.57h2c-.01.62-.02,1.24-.04,1.88-.07,6.98.3,13.88.82,20.84.16,2.42.22,4.86.22,7.29q.03,1.73.06,3.5c-.05,2.89-.37,4.77-1.06,7.5-.19,1.64-.36,3.29-.5,4.94-.65,6.63-1.5,10.51-5.5,16.06-1.32-.66-2.64-1.32-4-2v2c-1.67-.65-3.34-1.32-5-2-.74-.27-1.49-.54-2.25-.81q-1.75-1.19-2.56-3.75-.09-1.21-.19-2.44c.33-.33.66-.66,1-1,1.16-9.87,1.1-19.88,1.12-29.81q0-1.73.01-3.49c0-1.08,0-2.17,0-3.28,0-.97,0-1.94,0-2.94q-.03-2.61-1.13-5.47c-.04-1.85-.04-3.71,0-5.56q.18-3.87-1-7.44c-.26-2.65-.47-5.28-.62-7.94-.05-.73-.1-1.46-.16-2.21-.2-3.28-.27-5.7.78-8.85l-2-1v-9q-.32-2.11-1-4l-2-1q-.41-2.4-.62-5.38-.11-1.47-.23-2.96c-.11-1.89-.15-3.78-.15-5.66-.19-.66-.37-1.32-.56-2q-.44-2,.56-5c-.65-2-1.32-4-2-6l1-2c-.66-.66-1.32-1.32-2-2q-.12-3.12,0-6h-2c-.12-.78-.25-1.57-.38-2.38q-1.35-2.82-3.98-3.4c-2.54-.49-5.07-.9-7.64-1.22l-1,2c-.66-.66-1.32-1.32-2-2-.66.33-1.32.66-2,1l-1-2h-3q-2.01-.8-4.12-1.88c-.7-.35-1.41-.7-2.13-1.05q-1.74-1.07-2.74-3.07c-.99-.33-1.98-.66-3-1v-3h-3q-.22-.93-.44-1.88-.49-2.16-1.56-4.12l1-2c-.66-.33-1.32-.66-2-1,.33-2.97.66-5.94,1-9-.99-.66-1.98-1.32-3-2-.33-.99-.66-1.98-1-3-.66-.54-1.32-1.07-2-1.62-2.91-3.45-3.04-6.95-3-11.38.56-4.07,1.95-7.55,3.56-11.31.46-1.07.91-2.14,1.38-3.24.35-.81.7-1.62,1.06-2.45h2v-2q1.68-1.73,3.88-3.62c.72-.63,1.44-1.26,2.18-1.91q1.95-1.46,3.95-1.46.99-1.98,2-4h2q.4-1.32.82-2.66c1.12-3.17,2.49-5.85,4.12-8.78,3.6-7.02,4.81-13.83,6.06-21.56.19-.89.37-1.79.57-2.71.65-3.44.57-6.81.43-10.29-.03-.75-.06-1.51-.09-2.28-.5-7.26-2.6-13.85-4.91-20.72l-.98-3.22c-1.54-4.19-4.58-6.48-7.84-9.4q-1.19-1.38-1.19-4.38h-3v-2c-.76-.1-1.53-.21-2.31-.31q-2.69-.69-3.98-2.1c-5.38-4.99-15.72-5.95-22.79-7.19q-1.93-.39-3.93-1.39c-.33.66-.66,1.32-1,2-2,.35-4,.69-6,1-2.85,1.07-4.8,2.65-7.06,4.62q-2.94,2.38-5.94,2.38c-.33.66-.66,1.32-1,2-.99.66-1.98,1.32-3,2-.33.66-.66,1.32-1,2-2,1.33-4,2.67-6,4q-1.01,1.81-1,4c.96,1.69,1.97,3.35,3,5,1,3.11,1.84,6.16,2.46,9.36.57,2.81,1.3,5.55,2.04,8.32,2.54,10.3,2.65,17.15-.5,27.31-.62,3.14-1,5.81-1,9-.67,2-1.33,4-2,6v3q-.99.5-2,1-2.06,3.32-3,7c.33.99.66,1.98,1,3h2v2c1.32.33,2.64.66,4,1v2h2q7,7.7,7,14h2q-.03,1.42-.06,2.88-.16,3.03,1.06,5.12c-.3,1.67-.64,3.34-1,5-.13,1.37-.25,2.75-.38,4.12q-.62,3.88-2,5.81-1.62,1.06-4.62,2.06v5q-1.58.43-3.19.88c-3.77,1.11-7.3,2.37-10.81,4.12-1.87.23-3.75.41-5.62.56-1,.08-2.01.17-3.04.25-.77.06-1.54.12-2.34.18v-2q-1.29.29-2.6.58c-3.71.46-6.23.02-9.84-.89-1.13-.29-2.27-.57-3.44-.87-1.03-.27-2.06-.54-3.12-.82q-1.08-.25-2.19-.51c-4.23-1.04-7.25-3.04-10.81-5.49-1.32-.38-2.66-.7-4-1-2.19-.61-4.38-1.23-6.56-1.88-1.14-.33-2.27-.65-3.44-.99-2.89-1.09-3.99-1.9-6-4.13q-2.95-1.16-6-1c-2.57-.89-5.09-1.82-7.62-2.81-1.45-.55-2.9-1.11-4.35-1.66-.7-.27-1.39-.53-2.11-.8-6.03-2.29-11.51-3.85-17.92-4.73-.62-.31-1.24-.63-1.88-.95-2.41-1.19-4.62-1.71-7.25-2.23-.87-.18-1.74-.36-2.63-.54q-2.28-.48-4.24.73v-2c-2.02.6-4.02,1.27-6,2l-1,2c-1.65-.33-3.3-.66-5-1-1.21,3.63-.67,4.54.75,8,.35.87.69,1.73,1.05,2.62,2.81,5.55,7.9,7.59,13.2,10.38q1.15.61,2.32,1.22c9.98,5.12,19.99,9.66,30.96,12.13,2.43.58,4.69,1.29,7.03,2.14,5.19,1.8,10.52,2.72,15.91,3.75q20.36,4.04,27.78,7.75c.99.33,1.98.66,3,1,2.19,2.23,2.99,3.35,3.04,6.51-.14.86-.27,1.73-.41,2.62q-.68,3.56.38,6.88c-.64.58-1.28,1.15-1.94,1.75-2.09,2.28-2.78,3.24-3.06,6.25l.49,1.76c.63,2.77.57,5.28.51,8.12-.05,4.2.29,7.99,1,12.12-.3,1.67-.63,3.34-1,5,5.87-1.66,11.39-3.58,17-6,1.81-.57,3.62-1.13,5.44-1.69,5.97-1.94,11.41-4.59,16.95-7.49,3.01-1.57,5.78-2.87,9.02-3.93q2.73-.6,3.59-2.88,1.71-1.29,3.81-2.62c.69-.45,1.37-.89,2.08-1.35q2.11-1.02,6.11-1.02v-2c2.64-1.47,5.28-2.93,7.94-4.38q1.1-.62,2.23-1.25c5.21-2.82,10.03-4.32,15.83-5.38.68-.2,1.37-.4,2.07-.61q1.93-.39,4.93.61,1.36.19,2.75.38c3.74.72,6.81,2,10.25,3.62.87.39,1.73.78,2.62,1.19,3.45,2.63,5.28,6.06,7.38,9.81-.66.33-1.32.66-2,1,.99,3.96,1.98,7.92,3,12h-2c-.12,1.09-.25,2.19-.38,3.31-.7,4.15-2.01,5.96-4.69,9.12q-2.04,2.34-2.44,4.75c-.17.6-.33,1.2-.5,1.81-.6.27-1.2.54-1.81.81-2.86,1.55-3.59,3.66-5.06,6.46-1.77,2.72-4.42,4.02-7.13,5.73-.91,1.03-1.79,2.1-2.62,3.19-2.37,2.8-2.94,3.32-6.38,3.81l-1,2h-5c-.04.62-.08,1.24-.12,1.88-.29.7-.58,1.4-.88,2.12q-2.81,1.12-6,2c-4.53,1.98-8.49,4.97-12.56,7.75-2.72,1.39-4.43,1.51-7.44,1.25-.33.66-.66,1.32-1,2h-3c-.33.66-.66,1.32-1,2-1.03.12-2.06.25-3.12.38-3.91.63-5.92,1.62-9.19,3.64-2.44,1.42-4.99,2.18-7.69,2.98-3.32,1.06-6.44,2.2-9.62,3.62q-3.38,1.38-7.38,1.38c-.33.66-.66,1.32-1,2-2.85.98-4.9,1-8,1-1.75.15-3.5.32-5.25.5-.89.09-1.78.19-2.7.28-.68.07-1.35.14-2.05.22.66.33,1.32.66,2,1-.6,4-1.45,7.87-2.47,11.78-.78,3.28-1.33,6.6-1.87,9.92q-.66,2.3-2.23,4.34-1.83,2.09-1.43,5.95c-2.63,1.41-5.05,2.51-8,3-.66-.33-1.32-.66-2-1h-3c-3.22-1.37-5.25-2.79-7.12-5.81-1.04-2.59-1.17-4.42-.88-7.19.66-.66,1.32-1.32,2-2q-.99-1.48-2-3c.84-2.54,1.74-4.79,2.88-7.19.3-.65.59-1.31.89-1.98.73-1.62,1.48-3.22,2.23-4.83-.79-.28-1.58-.55-2.39-.84-3.25-1.45-4.05-3.04-5.61-6.16.66-.66,1.32-1.32,2-2q-.99-1.48-2-3c1.62-1.71,3.29-3.37,5-5h2q-.49-1.48-1-3c1.16-.05,2.32-.1,3.52-.15,12.17-.56,23.65-1.98,35.47-5.07,2.03-.53,4.07-1.03,6.12-1.5,5.55-1.29,10.54-2.86,15.68-5.31,3.1-1.36,6.29-2.21,9.56-3.06,3.02-1.03,5.74-2.39,8.57-3.84,1.94-1,3.9-1.95,5.87-2.89,7.62-3.69,14.85-7.64,21.87-12.38q4.16-2.79,6.34-2.79v-2q3.46-3,6-3c.27-.59.54-1.18.82-1.79,1.18-2.21,2.45-3.81,4.12-5.65,4.96-5.73,6.45-8.97,6.06-16.56q-2.97-.99-6-2l1,1c-3.26,1.88-6.26,2.58-10,3l-1-1c-.66.66-1.32,1.32-2,2-2.67,1.78-5.03,2.88-8,4v2q-2.97.99-6,2v2h-3c-.66.99-1.32,1.98-2,3-.99.33-1.98.66-3,1-.45.49-.91.99-1.38,1.5-2.1,1.94-3.86,1.95-6.62,2.5q-1.79,1.46-3,3c-.66-.33-1.32-.66-2-1v2c-.99.33-1.98.66-3,1-.66-.33-1.32-.66-2-1-.33.66-.66,1.32-1,2-1.65.7-3.32,1.37-5,2-.33.33-.66.66-1,1-1.16.14-2.31.29-3.5.44-1.16.19-2.31.37-3.5.56-.33.66-.66,1.32-1,2-1.65-.33-3.3-.66-5-1v3c-2.89.83-4.89,1-8,1q-1.05.43-2.12.88c-3.53,1.38-7.03,1.94-10.77,2.56-.7.19-1.39.37-2.11.56-.33.66-.66,1.32-1,2-3.74.71-7.19,1-11,1-.99.33-1.98.66-3,1q-2.56-.56-5.44-1.44c-3.5-1.06-5.85-1.56-9.56-1.56-2.78-2.85-4.25-5.12-5-9-.31-.58-.62-1.15-.94-1.75-.99-2.11-1.68-4.08-2.31-6.31-.19-.67-.38-1.34-.58-2.04q-.17-1.9,1.83-4.9h-2c-.03-2.08-.05-4.17-.06-6.25-.01-1.16-.02-2.32-.04-3.52.08-2.69.41-4.68,1.1-7.23.04-1.48.04-2.96,0-4.44-.04-3.36.31-6.27,1-9.56.04-2.33.05-4.67,0-7q-2.05-1.16-4.81-1.38c-3.39-.66-5.27-1.84-8.19-3.62-2.32-.7-4.66-1.36-7-2-1.98-.71-3.94-1.46-5.9-2.22-2.16-.8-4.34-1.52-6.54-2.22-5.45-1.8-10.73-4-15.77-6.78-.7-.38-1.39-.77-2.11-1.16-.61-.36-1.23-.72-1.86-1.09q-1.91-.77-4.05.36c-.58.36-1.17.73-1.77,1.1.33.99.66,1.98,1,3-.51,2.31-1.11,4.6-1.75,6.88-2.08,7.69-3.28,15.4-4.3,23.29-.11.86-.22,1.72-.34,2.61-.09.77-.19,1.53-.29,2.33q-.33,1.9-1.33,3.9c-.1,2.05-.13,4.1-.13,6.14,0,1.23,0,2.47,0,3.74q0,1.94.01,3.93c0,1.28,0,2.57-.01,3.89q0,1.86,0,3.75c0,1.13,0,2.27,0,3.44.12,2.83.55,5.34,1.13,8.11,0,3.52-.42,6.54-1,10v4c-.04.93-.08,1.86-.12,2.81q0,3.32,1.19,6.88.94,3.31-.06,6.31c.03,1.38.1,2.75.19,4.12.07,5.36-1.76,9.19-4.19,13.88-.5,1.13-.99,2.27-1.5,3.44-1.6,2.73-2.56,3.55-5.5,4.56v2h-6v2c-1.65.33-3.3.66-5,1v-4l-1,2c-1.98-.66-3.96-1.32-6-2,.66-.33,1.32-.66,2-1v-5c-.99-.33-1.98-.66-3-1q1.75-4.88,4-6c-.19-.58-.37-1.15-.56-1.75-.5-2.55-.16-3.78.56-6.25.56-3.07,1-5.87,1-9,.13-1.96.28-3.92.44-5.88q.12-1.54.25-3.12.32-3.01.83-5.38c.48-2.6.6-4.95.58-7.6,0-.92,0-1.84,0-2.78,0-.95-.02-1.89-.03-2.87,0-.95,0-1.91-.01-2.89,0-1.77-.02-3.53-.03-5.3-.03-4.18.22-8.07.98-12.19.66-.33,1.32-.66,2-1-.35-.95-.7-1.9-1.06-2.88-1.07-3.85-.87-6.98-.35-10.92.33-2.59.6-5.16.83-7.76.08-.82.15-1.65.23-2.49.15-1.64.29-3.28.43-4.92.48-4.96,1.51-9.34,3.23-14.02q.84-2.29,1.51-5.89c1.27-5.41,4.22-12.16,8.19-16.12q-.99-.93-2-1.88-2-2.12-2-4.12c-.66-.33-1.32-.66-2-1q-.99-1.52-2-3.06c-.66-.97-1.32-1.94-2-2.94h-2c-.24-1.65-.48-3.29-.7-4.94-.2-1.36-.41-2.71-.66-4.06-.8-4.87-.28-8.26,1.36-13,.19-.78.37-1.57.56-2.38q.44-1.62,1.44-2.62c.66-.33,1.32-.66,2-1v-2h2c.33-.99.66-1.98,1-3q3.44-1.75,7-3c.66.33,1.32.66,2,1v-2c9.7-1.37,16.63-.76,25.82,2.29q3.06.96,5.53.03c2.48-1.98,2.87-4.33,3.65-7.32-.99-.33-1.98-.66-3-1v-2h-2v-3c-.99-.33-1.98-.66-3-1q-1-1.81-2-4c-.54-.7-1.07-1.4-1.62-2.12q-1.38-1.88-1.38-3.88l-2-2c-4.26-8.65-6.2-17.41-6-27l-1-1q-.24-7.29,1-11c-.33-.66-.66-1.32-1-2,.06-1.67.2-3.34.38-5q.14-1.33.27-2.69.35-2.31,1.35-4.31c.08-1.07.17-2.15.25-3.25,1.76-14.33,8.95-26.36,20.12-35.31q1.22-.9,2.46-1.82,2.13-1.52,3.68-3.15c16.76-16.59,48.71-12.24,66.93-.41ZM96,17.44q-1.39.46-2.81.94c-3.06,1.02-6.12,2.04-9.19,3.06q-.99.49-2,1c.33.66.66,1.32,1,2l-4-2c-7.55,5.61-16.57,15.62-18.44,25.26-.06.7-.12,1.4-.19,2.12q-.38,3.62-2.06,5.12c-.43.49-.87.99-1.31,1.5.36,2.81,1.15,5.28,2,8h-2c.07.63.14,1.25.22,1.9.09.82.19,1.63.28,2.48.09.81.19,1.62.28,2.46q.22,2.16.22,4.16h2c-.08.82-.17,1.64-.25,2.48-.1,1.08-.2,2.16-.31,3.27-.1,1.07-.21,2.13-.32,3.23-.11,2.72.06,4.47.88,7.02.18.67.36,1.35.54,2.04,1.79,5.95,4.41,11.19,8.46,15.96h2q.4.86.8,1.74c1.24,2.35,2.71,4.28,4.32,6.38,2.99,4.37,3.41,7.5,2.99,12.71q-.26,2.35.89,5.16h-2v3q-1.98.49-4,1c2.57,1.71,4.22,2.5,7.08,3.38,4.97,1.6,9.77,3.52,14.61,5.49q13.91,5.82,28.31,10.12v-3c.16-.7.33-1.4.5-2.12.59-3.37.44-6.48.24-9.89.09-.66.17-1.31.26-1.99.99-.66,1.98-1.32,3-2v-2h2q2.4-2.64,3-6c.66-.33,1.32-.66,2-1q1.34-1.58,2.62-3.44.67-.93,1.35-1.87,1.2-1.65,1.02-3.69c.99-.33,1.98-.66,3-1,.66-.33,1.32-.66,2-1v-2c.66-.33,1.32-.66,2-1,4.28-7.31,6.03-14.68,7-23,.15-.95.29-1.91.44-2.89.74-5.62.46-9.65-1.62-14.93-.85-2.26-1.36-4.44-1.82-6.81-.61-2.93-1.4-5.52-2.62-8.25q-1.38-3.12-1.38-6.12c-2.12-6.04-5.06-11.31-8.91-16.39q-1.09-1.61-2.09-4.61-2.21-2.13-4.88-4.19c-.88-.72-1.77-1.43-2.68-2.17q-2.37-1.92-5.45-1.64v-2c-7.11-3.54-14.63-7.06-22.62-5.12-.78.37-1.57.74-2.38,1.12-.66-.66-1.32-1.32-2-2ZM52,32.44l1,2-1-2ZM43,50.44l1,2-1-2ZM47,103.44l1,2-1-2ZM53,112.44l1,2-1-2ZM148,141.44q-3.89,3.54-5.11,8.4c.27,2.23.62,4.4,1.11,6.6,5.67,2.66,10.65,4,17,4q.68-2.86,1-6c-.66-.99-1.32-1.98-2-3h-2c-.17-.72-.33-1.44-.5-2.19-2.17-4.07-5.53-5.64-9.5-7.81ZM267,156.44c-.39.47-.78.95-1.19,1.44-2.25,1.94-3.92,2.01-6.81,2.56-1.68.97-3.35,1.97-5,3-.91.33-1.82.66-2.75,1-.74.33-1.49.66-2.25,1-.33.99-.66,1.98-1,3-1.65-.33-3.3-.66-5-1-.12.64-.25,1.28-.38,1.94-.21.68-.41,1.36-.62,2.06q-.99.49-2,1v3c-.66.33-1.32.66-2,1q.33,2.93,2,6c8.89,5.89,18.39,5.31,28.36,3.33q6.65-1.34,12.64-4.33c1.96-5,2.34-9.79,1-15h-2c-.25-.76-.49-1.53-.75-2.31-1.39-2.99-2.44-4.03-5.25-5.69q-2.05-.81-4-1-.99.49-2,1l-1-2ZM178,160.44l1,2-1-2ZM298,162.44l1,2-1-2ZM220,168.44c.66.66,1.32,1.32,2,2v-2h-2ZM225,186.44l1,2-1-2ZM96,213.44l1,2-1-2ZM11,217.44v3c.66-.33,1.32-.66,2-1-.66-.66-1.32-1.32-2-2ZM96,258.44l1,2-1-2ZM271,275.44l1,2-1-2ZM6,303.44l1,2-1-2ZM100,308.44c-.33.66-.66,1.32-1,2h2c-.33-.66-.66-1.32-1-2ZM6,315.44l1,2-1-2ZM272,341.44l1,2-1-2ZM103,347.44l1,2-1-2Z"/>
                                    <path class="cls-1" d="M220,12.44c.96.37,1.93.74,2.92,1.12,1.69.67,3.38,1.35,5.05,2.05,1.65.68,3.33,1.27,5.02,1.83v2h4q1.89,1.64,3.69,3.81c.6.71,1.2,1.42,1.82,2.14q1.49,2.04,2.49,5.04.99.46,2,.94,2,1.06,2.75,3.19c.08.62.17,1.24.25,1.88h2c10.8,14.04,12.53,32.92,14,50h-2c.08,1.18.17,2.35.25,3.56.01,9.14-3.05,18.41-7.25,26.44-.55,1.32-1.07,2.66-1.56,4-.24.67-.49,1.34-.74,2.03-.93,2.64-1.83,5.3-2.7,7.97h-2c-.66,1.65-1.32,3.3-2,5h-2l-2,4h-2c-.23.8-.45,1.61-.69,2.44-.43.85-.87,1.69-1.31,2.56-1.67.34-3.33.67-5,1-2.68,3.33-3.36,5.76-3,10,5.76-2.03,10.9-5.29,16.14-8.37,6.98-3.98,13.13-5.93,21.29-5.82q1.54,0,3.12.02,2.44.17,3.44,1.17c2.03.26,4.06.51,6.09.72q1.91.28,3.91,1.28v2q.9.4,1.81.8c5.73,3.14,9.34,9.51,12.19,15.2,1.21,4.35,1,8.5,1,13-.66.33-1.32.66-2,1q-.47,2.13-.62,4.56c-.07.83-.15,1.65-.23,2.5q-.07.96-.15,1.93c-.99.33-1.98.66-3,1,.33.99.66,1.98,1,3-1.75,1.46-3.5,2.92-5.25,4.38-.97.81-1.95,1.62-2.95,2.46-3.44,2.66-5.42,4.16-9.8,4.16-.66.33-1.32.66-2,1,.27.64.53,1.29.8,1.95,2.86,7.31,4.18,14.3,5.2,22.05.37,2.27.75,4.54,1.12,6.81.57,3.66.97,7.11.88,10.81q-.31,3.51,2,6.38c0,1.99,0,3.97-.06,5.96q-.03,2.25,1.06,5.04c1.28,3.84,1.07,6.97,1,11,.33.33.66.66,1,1,.1,1.81.13,3.62.12,5.44,0,.99,0,1.98,0,3q-.13,2.57-1.13,4.57h2c-.01.62-.02,1.24-.04,1.88-.07,6.98.3,13.88.82,20.84.16,2.42.22,4.86.22,7.29q.03,1.73.06,3.5c-.05,2.89-.37,4.77-1.06,7.5-.19,1.64-.36,3.29-.5,4.94-.65,6.63-1.5,10.51-5.5,16.06-1.32-.66-2.64-1.32-4-2v2c-1.67-.65-3.34-1.32-5-2-.74-.27-1.49-.54-2.25-.81q-1.75-1.19-2.56-3.75c-.06-.8-.12-1.61-.19-2.44.33-.33.66-.66,1-1,1.16-9.87,1.1-19.88,1.12-29.81,0-1.15,0-2.3.01-3.49,0-1.08,0-2.17,0-3.28q0-1.46,0-2.94-.03-2.61-1.13-5.47c-.04-1.85-.04-3.71,0-5.56q.18-3.87-1-7.44c-.26-2.65-.47-5.28-.62-7.94q-.08-1.09-.16-2.21c-.2-3.28-.27-5.7.78-8.85-.66-.33-1.32-.66-2-1v-9q-.32-2.11-1-4c-.66-.33-1.32-.66-2-1q-.41-2.4-.62-5.38-.11-1.47-.23-2.96c-.11-1.89-.15-3.78-.15-5.66-.19-.66-.37-1.32-.56-2q-.44-2,.56-5c-.65-2-1.32-4-2-6,.33-.66.66-1.32,1-2-.66-.66-1.32-1.32-2-2q-.12-3.12,0-6h-2c-.12-.78-.25-1.57-.38-2.38q-1.35-2.82-3.98-3.4c-2.54-.49-5.07-.9-7.64-1.22-.33.66-.66,1.32-1,2-.66-.66-1.32-1.32-2-2-.66.33-1.32.66-2,1-.33-.66-.66-1.32-1-2h-3q-2.01-.8-4.12-1.88c-.7-.35-1.41-.7-2.13-1.05q-1.74-1.07-2.74-3.07c-.99-.33-1.98-.66-3-1v-3h-3q-.22-.93-.44-1.88-.49-2.16-1.56-4.12c.33-.66.66-1.32,1-2-.66-.33-1.32-.66-2-1,.33-2.97.66-5.94,1-9q-1.49-.99-3-2c-.33-.99-.66-1.98-1-3q-.99-.8-2-1.62c-2.91-3.45-3.04-6.95-3-11.38.56-4.07,1.95-7.55,3.56-11.31.46-1.07.91-2.14,1.38-3.24.35-.81.7-1.62,1.06-2.45h2v-2q1.68-1.73,3.88-3.62c.72-.63,1.44-1.26,2.18-1.91q1.95-1.46,3.95-1.46.99-1.98,2-4h2c.27-.88.54-1.76.82-2.66,1.12-3.17,2.49-5.85,4.12-8.78,3.6-7.02,4.81-13.83,6.06-21.56.19-.89.37-1.79.57-2.71.65-3.44.57-6.81.43-10.29-.03-.75-.06-1.51-.09-2.28-.5-7.26-2.6-13.85-4.91-20.72l-.98-3.22c-1.54-4.19-4.58-6.48-7.84-9.4q-1.19-1.38-1.19-4.38h-3v-2c-.76-.1-1.53-.21-2.31-.31q-2.69-.69-3.98-2.1c-5.38-4.99-15.72-5.95-22.79-7.19q-1.93-.39-3.93-1.39l-1,2c-2,.35-4,.69-6,1-2.85,1.07-4.8,2.65-7.06,4.62q-2.94,2.38-5.94,2.38c-.33.66-.66,1.32-1,2-.99.66-1.98,1.32-3,2-.33.66-.66,1.32-1,2-.99.66-1.98,1.32-3,2-1.34.99-2.67,1.99-4,3-2.12-2.12-2.93-3.77-4.12-6.5-.35-.79-.71-1.59-1.07-2.41q-.8-2.09-.8-4.09l-2-1c.36-2.76.8-3.81,2.89-5.71.78-.55,1.56-1.1,2.36-1.66,2.98-2.18,4.82-3.72,7-6.75,4.35-4.55,9.85-5.96,15.75-7.88.68-.25,1.36-.5,2.06-.75,11.45-3.66,24.05-1.45,34.94,2.75ZM267,156.44c-.39.47-.78.95-1.19,1.44-2.25,1.94-3.92,2.01-6.81,2.56-1.68.97-3.35,1.97-5,3-.91.33-1.81.66-2.75,1-.74.33-1.49.66-2.25,1-.33.99-.66,1.98-1,3-1.65-.33-3.3-.66-5-1-.12.64-.25,1.28-.38,1.94-.21.68-.41,1.36-.62,2.06q-.99.49-2,1v3c-.66.33-1.32.66-2,1q.33,2.93,2,6c8.89,5.89,18.39,5.31,28.36,3.33q6.65-1.34,12.64-4.33c1.96-5,2.34-9.79,1-15h-2c-.25-.76-.49-1.53-.75-2.31-1.39-2.99-2.44-4.03-5.25-5.69q-2.05-.81-4-1-.99.49-2,1c-.33-.66-.66-1.32-1-2ZM298,162.44l1,2-1-2ZM220,168.44c.66.66,1.32,1.32,2,2v-2h-2ZM225,186.44l1,2-1-2ZM271,275.44l1,2-1-2ZM272,341.44l1,2-1-2Z"/>
                                    <path class="cls-1" d="M240,215.44c5.57,2.89,8.06,6.65,11,12l-2,1c.99,3.96,1.98,7.92,3,12h-2q-.19,1.64-.38,3.31c-.7,4.15-2.01,5.96-4.69,9.12q-2.04,2.34-2.44,4.75c-.16.6-.33,1.2-.5,1.81-.6.27-1.2.54-1.81.81-2.86,1.55-3.59,3.66-5.06,6.46-1.77,2.72-4.42,4.02-7.13,5.73-.91,1.03-1.79,2.1-2.62,3.19-2.37,2.8-2.94,3.32-6.38,3.81-.33.66-.66,1.32-1,2h-5c-.04.62-.08,1.24-.12,1.88-.29.7-.58,1.4-.88,2.12q-2.81,1.12-6,2c-4.53,1.98-8.49,4.97-12.56,7.75-2.72,1.39-4.43,1.51-7.44,1.25l-1,2h-3l-1,2c-1.03.12-2.06.25-3.12.38-3.91.63-5.92,1.62-9.19,3.64-2.44,1.42-4.99,2.18-7.69,2.98-3.32,1.06-6.44,2.2-9.62,3.62q-3.38,1.38-7.38,1.38c-.33.66-.66,1.32-1,2-2.85.98-4.9,1-8,1-1.75.15-3.5.32-5.25.5-.89.09-1.78.19-2.7.28q-1.01.11-2.05.22.99.5,2,1c-.6,4-1.45,7.87-2.47,11.78-.78,3.28-1.33,6.6-1.87,9.92q-.66,2.3-2.23,4.34-1.83,2.09-1.43,5.95c-2.63,1.41-5.05,2.51-8,3l-2-1h-3c-3.22-1.37-5.25-2.79-7.12-5.81-1.04-2.59-1.17-4.42-.88-7.19q.99-.99,2-2c-.66-.99-1.32-1.98-2-3,.84-2.54,1.74-4.79,2.88-7.19.3-.65.59-1.31.89-1.98.73-1.62,1.48-3.22,2.23-4.83-.79-.28-1.58-.55-2.39-.84-3.25-1.45-4.05-3.04-5.61-6.16q.99-.99,2-2c-.66-.99-1.32-1.98-2-3,1.62-1.71,3.29-3.37,5-5h2c-.33-.99-.66-1.98-1-3,1.16-.05,2.32-.1,3.52-.15,12.17-.56,23.65-1.98,35.47-5.07,2.03-.53,4.07-1.03,6.12-1.5,5.55-1.29,10.54-2.86,15.68-5.31,3.1-1.36,6.29-2.21,9.56-3.06,3.02-1.03,5.74-2.39,8.57-3.84,1.94-1,3.9-1.95,5.87-2.89,7.62-3.69,14.85-7.64,21.87-12.38q4.16-2.79,6.34-2.79v-2q3.46-3,6-3c.27-.59.54-1.18.82-1.79,1.18-2.21,2.45-3.81,4.12-5.65,4.96-5.73,6.45-8.97,6.06-16.56-1.98-.66-3.96-1.32-6-2l1,1c-3.26,1.88-6.26,2.58-10,3l-1-1-2,2c-2.67,1.78-5.03,2.88-8,4v2l-6,2v2h-3l-2,3q-1.49.49-3,1c-.45.49-.91.99-1.38,1.5-2.1,1.94-3.86,1.95-6.62,2.5q-1.79,1.46-3,3c-.66-.33-1.32-.66-2-1v2q-1.49.49-3,1l-2-1q-.5.99-1,2c-1.65.7-3.32,1.37-5,2-.33.33-.66.66-1,1l-3.5.44c-1.15.19-2.31.37-3.5.56q-.5.99-1,2c-1.65-.33-3.3-.66-5-1v3c-2.89.83-4.89,1-8,1q-1.05.43-2.12.88c-3.53,1.38-7.03,1.94-10.77,2.56q-1.04.28-2.11.56-.5.99-1,2c-3.74.71-7.19,1-11,1q-1.49.49-3,1-2.56-.56-5.44-1.44c-3.5-1.06-5.85-1.56-9.56-1.56-2.78-2.85-4.25-5.12-5-9-.31-.58-.62-1.15-.94-1.75-.99-2.11-1.68-4.08-2.31-6.31q-.29-1.01-.58-2.04-.17-1.9,1.83-4.9h-2c-.03-2.08-.05-4.17-.06-6.25-.01-1.16-.02-2.32-.04-3.52.08-2.69.41-4.68,1.1-7.23.04-1.48.04-2.96,0-4.44-.04-3.36.29-6.28,1-9.56.04-2,.05-4,0-6,.8.14,1.61.29,2.44.44,3.47.55,6.92.94,10.41,1.28,2.11.28,4.1.72,6.15,1.28-.04.72-.08,1.44-.12,2.19q-.03,2.82,1.12,5.25c1.17,3,1.15,5.37,1,8.56h1c-.03,2.05-.07,4.1-.1,6.15q-.11,1.86,1.1,2.85c.23,2.18.41,4.37.56,6.56q.13,1.8.25,3.63c.06.93.12,1.85.18,2.81,4.79.09,8.42-.55,13-2q1.2-.34,2.42-.7c5.05-1.45,9.75-3.22,14.58-5.3,1.81-.57,3.62-1.13,5.44-1.69,5.97-1.94,11.41-4.59,16.95-7.49,3.01-1.57,5.78-2.87,9.02-3.93q2.73-.6,3.59-2.88,1.71-1.29,3.81-2.62,1.03-.67,2.08-1.35,2.11-1.02,6.11-1.02v-2c2.64-1.47,5.28-2.93,7.94-4.38q1.1-.62,2.23-1.25c4.57-2.48,8.77-4.06,13.89-5,7.74-1.48,13.59-.36,20.94,2.63ZM96,258.44l1,2-1-2ZM100,308.44c-.33.66-.66,1.32-1,2h2c-.33-.66-.66-1.32-1-2ZM103,347.44l1,2-1-2Z"/>
                                    <path class="cls-1" d="M135.44,10.5c2.08,1.57,3.74,3.11,5.56,4.94,1.25,1.05,2.5,2.09,3.75,3.12,9.37,8.26,16.46,19.58,19.25,31.88.5,1.07.99,2.15,1.5,3.25,1.42,3.2,1.86,6.17,2.19,9.67.33,2.22.96,4.1,1.75,6.2,3.65,10.52,4.17,19.38.56,29.88-.62,3.14-1,5.81-1,9-.67,2-1.33,4-2,6v3q-.99.5-2,1c-.43.91-.87,1.82-1.31,2.75-1.8,3.48-3.9,5.54-6.69,8.25-.33.66-.66,1.32-1,2q-1,2-3.44,4.31c-2.26,2.37-3.05,3.48-4.19,6.38q-1.38,3.31-4.38,5.31-.36,2.21-.19,4.62c.03.82.05,1.63.08,2.48.03.63.07,1.25.11,1.9,1.67.33,3.33.67,5,1,2.66.53,5.33,1.07,7.99,1.6.66.13,1.33.27,2.01.4.33.99.66,1.98,1,3-12.5,4.65-24.01,1.31-36-3q-1.12-6.75,0-9c-.03-1.46-.1-2.92-.19-4.38-.05-3.44-.04-4.31,2.06-7.19q2.12-1.44,4.12-1.44c.29-.58.58-1.15.88-1.75,1.04-2.08,2.08-4.17,3.12-6.25h2c.25-.72.5-1.44.75-2.19,1.38-3.11,2.92-5.34,5.25-7.81h3q.4-1.3.81-2.62,1.19-3.38,2.62-5.94c4.27-9.39,7.68-23.07,4.25-33.12-.28-.71-.57-1.43-.86-2.16-.86-2.23-1.36-4.37-1.82-6.71-.9-4.35-2.35-8.31-4-12.44.33-.33.66-.66,1-1-.29-.58-.58-1.15-.88-1.75-.68-1.35-1.34-2.7-2-4.06-2.05-3.98-4.12-7.9-6.88-11.44q-1.25-1.75-1.25-4.75c-.54-.23-1.07-.45-1.62-.69q-2.38-1.31-5.44-3.88-2.74-2.57-5.94-3.44v-2c-.56-.12-1.11-.25-1.69-.38q-2.31-.62-4.44-1.56c-5.51-2.04-10.71-3.59-16.5-2.19-.78.37-1.57.74-2.38,1.12l-2-2q-1.42.49-2.88,1-3.12,1-5.12,1c-.33.66-.66,1.32-1,2h-4v2c-.6-.23-1.2-.45-1.81-.69-.72-.1-1.44-.21-2.19-.31q-1.65,1.4-3,3h-2q-.49,1.49-1,3c-.98,1.02-1.98,2.02-3,3-.33.66-.66,1.32-1,2-.66.66-1.32,1.32-2,2-1.07,2.05-2.03,4.13-3,6.22q-1,1.78-3,2.78c.06,1.26.12,2.52.19,3.81q.02,3.91-1.69,6.19c-.5.33-.99.66-1.5,1,.33.66.66,1.32,1,2,.04,2,.04,4,0,6h-2c.66.99,1.32,1.98,2,3,.04,1.67.04,3.33,0,5,.33.99.66,1.98,1,3-.03,2.35-.1,4.71-.19,7.06-.17,10.29,3.15,16.89,9.19,24.94v2h2q1.91,2.2,4.06,5.12,1.07,1.43,2.16,2.88c2.68,4.51,2.92,8.72,2.84,13.87,0,.78-.02,1.56-.03,2.37-.01.58-.02,1.16-.04,1.76h-2v3c-5.51,2.54-9.44,1.81-15,0q-3.56-1.62-6-3,1-2,2.5-3.38c1.71-1.85,2.08-3.17,2.5-5.62q-1.49-.5-3-1v-2h-2v-3q-1.49-.5-3-1-1-1.81-2-4-.8-1.05-1.62-2.12-1.38-1.88-1.38-3.88l-2-2c-4.26-8.65-6.2-17.41-6-27l-1-1q-.24-7.29,1-11c-.33-.66-.66-1.32-1-2,.06-1.67.2-3.34.38-5,.09-.89.18-1.77.27-2.69q.35-2.31,1.35-4.31c.08-1.07.17-2.15.25-3.25,1.76-14.33,8.95-26.36,20.12-35.31.81-.6,1.62-1.2,2.46-1.82q2.13-1.52,3.68-3.15c16.76-16.59,48.71-12.24,66.93-.41ZM52,32.44l1,2-1-2ZM43,50.44l1,2-1-2ZM47,103.44l1,2-1-2ZM53,112.44l1,2-1-2Z"/>
                                    <path class="cls-2" d="M220,12.44c.96.37,1.93.74,2.92,1.12,1.69.67,3.38,1.35,5.05,2.05,1.65.68,3.33,1.27,5.02,1.83v2h4q1.89,1.64,3.69,3.81c.6.71,1.2,1.42,1.82,2.14q1.49,2.04,2.49,5.04.99.46,2,.94,2,1.06,2.75,3.19c.08.62.17,1.24.25,1.88h2c10.8,14.04,12.53,32.92,14,50h-2c.08,1.18.17,2.35.25,3.56.01,9.14-3.05,18.41-7.25,26.44-.55,1.32-1.07,2.66-1.56,4-.24.67-.49,1.34-.74,2.03-.93,2.64-1.83,5.3-2.7,7.97h-2c-.66,1.65-1.32,3.3-2,5h-2l-2,4h-2c-.23.8-.45,1.61-.69,2.44-.43.85-.87,1.69-1.31,2.56-1.67.34-3.33.67-5,1-2.52,2.96-3.04,4.41-2.75,8.31-.32,4.79-2.17,6.44-5.43,9.79q-3.56,3.42-4.82,7.89-1.94-.31-4-1c-.33-.99-.66-1.98-1-3q-.99-.8-2-1.62c-2.91-3.45-3.04-6.95-3-11.38.56-4.07,1.95-7.55,3.56-11.31.46-1.07.91-2.14,1.38-3.24.35-.81.7-1.62,1.06-2.45h2v-2q1.68-1.73,3.88-3.62c.72-.63,1.44-1.26,2.18-1.91q1.95-1.46,3.95-1.46.99-1.98,2-4h2c.27-.88.54-1.76.82-2.66,1.12-3.17,2.49-5.85,4.12-8.78,3.6-7.02,4.81-13.83,6.06-21.56.19-.89.37-1.79.57-2.71.65-3.44.57-6.81.43-10.29-.03-.75-.06-1.51-.09-2.28-.5-7.26-2.6-13.85-4.91-20.72l-.98-3.22c-1.54-4.19-4.58-6.48-7.84-9.4q-1.19-1.38-1.19-4.38h-3v-2c-.76-.1-1.53-.21-2.31-.31q-2.69-.69-3.98-2.1c-5.38-4.99-15.72-5.95-22.79-7.19q-1.93-.39-3.93-1.39l-1,2c-2,.35-4,.69-6,1-2.85,1.07-4.8,2.65-7.06,4.62q-2.94,2.38-5.94,2.38c-.33.66-.66,1.32-1,2-.99.66-1.98,1.32-3,2-.33.66-.66,1.32-1,2-.99.66-1.98,1.32-3,2-1.34.99-2.67,1.99-4,3-2.12-2.12-2.93-3.77-4.12-6.5-.35-.79-.71-1.59-1.07-2.41q-.8-2.09-.8-4.09l-2-1c.36-2.76.8-3.81,2.89-5.71.78-.55,1.56-1.1,2.36-1.66,2.98-2.18,4.82-3.72,7-6.75,4.35-4.55,9.85-5.96,15.75-7.88.68-.25,1.36-.5,2.06-.75,11.45-3.66,24.05-1.45,34.94,2.75Z"/>
                                    <path class="cls-1" d="M22,182.44h4v2q1.14.15,2.31.31c2.96.76,3.68,1.51,5.69,3.69q2.1,1.18,4,2v3h-2l1,3c-.51,2.31-1.11,4.6-1.75,6.88-2.08,7.69-3.28,15.4-4.3,23.29-.11.86-.22,1.72-.34,2.61-.09.77-.19,1.53-.29,2.33q-.33,1.9-1.33,3.9c-.1,2.05-.13,4.1-.13,6.14,0,1.23,0,2.47,0,3.74q0,1.94.01,3.93c0,1.28,0,2.57-.01,3.89q0,1.86,0,3.75c0,1.13,0,2.27,0,3.44.12,2.83.55,5.34,1.13,8.11,0,3.52-.42,6.54-1,10v4c-.04.93-.08,1.86-.12,2.81q0,3.32,1.19,6.88.94,3.31-.06,6.31c.03,1.38.1,2.75.19,4.12.07,5.36-1.76,9.19-4.19,13.88q-.74,1.7-1.5,3.44c-1.6,2.73-2.56,3.55-5.5,4.56v2h-6v2c-1.65.33-3.3.66-5,1v-4q-.49.99-1,2c-1.98-.66-3.96-1.32-6-2,.66-.33,1.32-.66,2-1v-5c-.99-.33-1.98-.66-3-1q1.75-4.88,4-6c-.19-.58-.37-1.15-.56-1.75-.5-2.55-.16-3.78.56-6.25.56-3.07,1-5.87,1-9,.13-1.96.28-3.92.44-5.88.08-1.03.16-2.06.25-3.12q.32-3.01.83-5.38c.48-2.6.6-4.95.58-7.6,0-.92,0-1.84,0-2.78,0-.95-.02-1.89-.03-2.87,0-.95,0-1.91-.01-2.89,0-1.77-.02-3.53-.03-5.3-.03-4.18.22-8.07.98-12.19q.99-.5,2-1c-.35-.95-.7-1.9-1.06-2.88-1.07-3.85-.87-6.98-.35-10.92.33-2.59.6-5.16.83-7.76.08-.82.15-1.65.23-2.49.15-1.64.29-3.28.43-4.92.48-4.96,1.51-9.34,3.23-14.02q.84-2.29,1.51-5.89c1.28-5.52,4.35-10.28,7.19-15.12ZM11,217.44v3c.66-.33,1.32-.66,2-1l-2-2ZM6,303.44l1,2-1-2ZM6,315.44l1,2-1-2Z"/>
                                    <path class="cls-2" d="M278,200.44l-2,1c.27.64.53,1.29.8,1.95,2.86,7.31,4.18,14.3,5.2,22.05.37,2.27.75,4.54,1.12,6.81.57,3.66.97,7.11.88,10.81q-.31,3.51,2,6.38c0,1.99,0,3.97-.06,5.96q-.03,2.25,1.06,5.04c1.28,3.84,1.07,6.97,1,11q.49.5,1,1c.1,1.81.13,3.62.12,5.44q0,1.48,0,3-.13,2.57-1.13,4.57h2c-.01.62-.02,1.24-.04,1.88-.07,6.98.3,13.88.82,20.84.16,2.42.22,4.86.22,7.29.02,1.15.04,2.31.06,3.5-.05,2.89-.37,4.77-1.06,7.5-.19,1.64-.36,3.29-.5,4.94-.65,6.63-1.5,10.51-5.5,16.06-1.32-.66-2.64-1.32-4-2v2c-1.67-.65-3.34-1.32-5-2-.74-.27-1.49-.54-2.25-.81q-1.75-1.19-2.56-3.75c-.06-.8-.12-1.61-.19-2.44.33-.33.66-.66,1-1,1.16-9.87,1.1-19.88,1.12-29.81,0-1.15,0-2.3.01-3.49,0-1.08,0-2.17,0-3.28,0-.97,0-1.94,0-2.94q-.03-2.61-1.13-5.47c-.04-1.85-.04-3.71,0-5.56q.18-3.87-1-7.44c-.26-2.65-.47-5.28-.62-7.94-.05-.73-.1-1.46-.16-2.21-.2-3.28-.27-5.7.78-8.85-.66-.33-1.32-.66-2-1v-9q-.32-2.11-1-4c-.66-.33-1.32-.66-2-1q-.41-2.4-.62-5.38c-.07-.98-.15-1.95-.23-2.96-.11-1.89-.15-3.78-.15-5.66-.19-.66-.37-1.32-.56-2q-.44-2,.56-5c-.65-2-1.32-4-2-6l1-2-2-2q-.12-3.12,0-6h-2c-.33-2.31-.66-4.62-1-7,.99.33,1.98.66,3,1q2.64-.39,5-1v2c.99-.66,1.98-1.32,3-2,3.04-1.01,5.81-1.09,9-1ZM271,275.44l1,2-1-2ZM272,341.44l1,2-1-2Z"/>
                                    <path class="cls-2" d="M115,316.44l2,1q1.92-.14,4-.5,3.78-.61,6,.5c-.6,4-1.45,7.87-2.47,11.78-.78,3.28-1.33,6.6-1.87,9.92q-.66,2.3-2.23,4.34-1.83,2.09-1.43,5.95c-2.63,1.41-5.05,2.51-8,3-.66-.33-1.32-.66-2-1h-3c-3.22-1.37-5.25-2.79-7.12-5.81-1.04-2.59-1.17-4.42-.88-7.19l2-2-2-3c.6-2.56,1.25-4.66,2.25-7.06.27-.64.53-1.28.81-1.94,1.45-3.06,2.49-4.77,5.54-6.33,2.51-.45,4.86-.62,7.4-.67l1-1ZM103,347.44l1,2-1-2Z"/></svg>