<svg id="harmicon" xmlns='http://www.w3.org/2000/svg' viewBox="10 30 453 412" class="artisticon"><path class="cls-2" d="M162,56q2,2,2,4,.99.49,2,1c-.33-1.32-.66-2.64-1-4,.99.33,1.98.66,3,1,.93,5.42,1.21,8.8-1,14h-2q-.49,2.48-1,5h-2c-.68,2.03-1.32,4.07-1.94,6.12q-1.06,2.88-3.06,3.88-.62,1.88-1,4.12c-.6,2.97-1.26,5.77-2.12,8.69q-1.05,3.28-.88,7.19-.28,1.3-.56,2.62-.69,2.38.56,4.38c-.06,1.33-.15,2.67-.25,4-.08,14.52,6.8,28.36,13.25,41,1,1.98,2,3.96,3,5.94.39.75.78,1.5,1.19,2.28q.81,1.79.81,3.79c.99-.33,1.98-.66,3-1,.78,1.05,1.57,2.1,2.38,3.19,1.21,1.6,2.42,3.21,3.62,4.81.41.55.81,1.09,1.23,1.65,1.33,1.79,2.67,3.57,4.02,5.35.44.59.87,1.18,1.32,1.78,1.1,1.44,2.26,2.84,3.43,4.22h2q1.4,1.64,2.94,3.81c1.5,2.11,2.89,4.02,4.75,5.82q1.31,1.36,1.31,3.36c.55.23,1.1.45,1.67.69,3.02,1.7,5.14,3.86,7.58,6.31q1.34,1.33,2.7,2.69,2.05,2.31,2.05,4.31c.54.24,1.08.48,1.64.72,2.98,1.61,5.47,3.59,8.11,5.71.98.78,1.97,1.56,2.98,2.37.75.72,1.5,1.45,2.27,2.19v3q.93.15,1.88.31,2.12.69,4.12,3.69,1.05,1.02,2.12,2.06,1.88,1.94,1.88,3.94c.6.25,1.19.49,1.8.75,2.55,1.46,3.66,2.92,5.32,5.32q1.99,2.98,4.88,4.94v2c.99.33,1.98.66,3,1q1.88,2.05,4,4.75c2.55,3.22,5.11,6.4,7.82,9.48,5.1,5.8,9.35,11.3,12.83,18.27,1.35,2.51,2.87,4.59,4.66,6.81,2.49,3.16,3.48,5.58,3.69,9.69h2c.51.96,1.02,1.91,1.54,2.89,1.8,3.39,3.61,6.78,5.42,10.16.89,1.67,1.78,3.33,2.66,5,3.49,6.52,7.36,12.74,11.38,18.94q8.63,13.56,11,20c4,10.68,9.66,22.88,19.31,29.5,4.68,1.9,7.86,1.84,12.69.5,3.67-1.56,6.7-3.76,9.81-6.25q2.19-1.75,4.19-1.75v-2c1.32.33,2.64.66,4,1l1,4,1-2c.66.33,1.32.66,2,1l-1,2c1.32-.99,2.64-1.98,4-3,1.02,3.25,1.19,4.59-.25,7.75q-1.75,2.25-4.75,3.25v2c.66.33,1.32.66,2,1-.66.33-1.32.66-2,1-.66-.33-1.32-.66-2-1-.14.95-.29,1.9-.44,2.88q-1.56,3.12-3.59,3.9c-1.58.31-3.18.58-4.78.8q-2.47.33-5.19,2.42c-.66-.33-1.32-.66-2-1-.33.99-.66,1.98-1,3-.56-.19-1.11-.37-1.69-.56q-2.35-.59-4.81.06c-2.72.54-3.88.27-6.5-.5-2.33-.35-4.66-.69-7-1v-2c-1.65-.33-3.3-.66-5-1v-2c-1.65-.66-3.3-1.32-5-2v-2h-3q-1.44-2.19-3-5c-.68-.85-1.36-1.69-2.06-2.56-1.71-2.15-2.81-3.96-3.94-6.44q-.74-1.45-1.5-2.94-3.5-7.15-3.5-10.06h-2c-1.89-4.13-3.73-8.18-5.12-12.5q-.6-2.65-2.88-3.5-.46-1.18-.94-2.38-.86-2.61-2.5-4.06c-2.19-2.19-3.18-4.79-4.56-7.56-.81-1.18-1.65-2.35-2.5-3.5q-5.5-7.49-5.5-11.5c-.66-.33-1.32-.66-2-1-1.39-2.31-2.7-4.63-4-7-.73-1.25-1.46-2.5-2.19-3.75q-1.81-3.25-2.81-6.25c-.5-.49-.99-.99-1.5-1.5q-1.5-1.5-2.5-4.5c-.66-.33-1.32-.66-2-1v-2h-2v-4c-.99-.33-1.98-.66-3-1v-2c-.99-.33-1.98-.66-3-1v-4h-3c-1.38-1.97-2.7-3.98-4-6-1.65-1.69-3.31-3.35-5-5q-4-4.65-4-7-.9-.15-1.81-.31c-2.52-.79-3.38-1.81-5.19-3.69q-2.1-1.18-4-2v-2c-.74-.08-1.49-.16-2.25-.25-3.31-.9-4.39-2.32-6.75-4.75-1.65-.72-3.31-1.38-5-2-.76-.48-1.52-.96-2.3-1.46-4.57-2.61-9.61-3.37-14.7-4.54-.74-.21-1.49-.42-2.25-.63-6.11-1.65-12.11-1.49-18.39-1.34-2.76-.02-4.74-.33-7.36-1.03q-2.12.89-4,2h-2c-1.45.66-2.88,1.35-4.31,2.06-3.04,1.4-4.36,1.96-7.75,1.69q-.96-.37-1.94-.75c-.33.66-.66,1.32-1,2-1.32-.33-2.64-.66-4-1-.33.99-.66,1.98-1,3-.33-.33-.66-.66-1-1-.66.66-1.32,1.32-2,2h-3v2h-4c-.33.66-.66,1.32-1,2h-5c-.66,1.32-1.32,2.64-2,4h-4c-.33.66-.66,1.32-1,2h-2c-.33.66-.66,1.32-1,2h-2c-.33.66-.66,1.32-1,2h-4c-.33.99-.66,1.98-1,3-.66.66-1.32,1.32-2,2h-3q-1.69,1.44-3,3c-.66-.33-1.32-.66-2-1v2h-2c-.33.99-.66,1.98-1,3h-2v2q-1.21.43-2.44.88-2.7.86-3.56,3.12c-2.12,1.74-4.27,3.16-6.62,4.56-3.03,1.83-4.4,3.47-6.38,6.44q-2.62,1.19-5,2v2c-.78.08-1.57.16-2.38.25q-2.77.48-3.94,2.81c-.23.64-.45,1.28-.69,1.94h-2c-2.01,2.33-3.02,4.05-4,7-1.32.68-2.66,1.35-4,2-.66.99-1.32,1.98-2,3h-2l1,4c-1.65-.33-3.3-.66-5-1l-1,4v-2h-2v-2h-2l-1,2q-2.06.62-4,1v-2h2c.2-3.72.15-4.77-2-8,.29-3.93,1.46-5.98,4.12-8.81.63-.68,1.26-1.37,1.91-2.07.65-.7,1.3-1.4,1.96-2.12,1.19-1.39,2.38-2.79,3.56-4.19,2.92-3.33,5.88-6.17,9.44-8.81h2v-2c1.74-1.45,3.54-2.81,5.38-4.12q1.5-1.09,3.02-2.2,2.6-1.68,4.6-1.68v-2c2.16-1.69,4.31-3.26,6.56-4.81.61-.43,1.22-.85,1.85-1.29,1.23-.86,2.47-1.72,3.71-2.58,1.28-.9,2.55-1.82,3.8-2.76q4.77-3.56,8.08-3.56c.33-.99.66-1.98,1-3,2.92-2.08,4.38-3,8-3,.33-.99.66-1.98,1-3,2.38-1.45,4.71-2.75,7.19-4q.99-.51,2-1.04c1.93-1,3.87-1.98,5.81-2.96,1.11-.58,2.22-1.15,3.36-1.75q2.64-1.25,4.64-1.25v-2c2.89-1.46,5.79-2.92,8.69-4.38q1.22-.62,2.47-1.25c3.9-1.96,7.76-3.81,11.84-5.38.64-.37,1.28-.74,1.94-1.12,2.75-1.17,5.11-1.01,8.06-.88.33-.66.66-1.32,1-2q1.93-.85,4.31-1.62c.78-.26,1.56-.52,2.36-.79q2.32-.59,6.32-.59-3.18-5.81-6.56-11.5-5.44-9.46-5.44-13.5c-.99-.33-1.98-.66-3-1,.33-.99.66-1.98,1-3-.62-.21-1.24-.41-1.88-.62-3-1.94-3.28-4-4.12-7.38v-2h-2q-.6-1.21-1.21-2.45c-.53-1.07-1.06-2.14-1.61-3.24-.52-1.06-1.04-2.11-1.58-3.2q-1.54-3.09-3.29-5.83c-1.52-2.64-1.57-4.28-1.31-7.28h-2v-6h-2c-.98-2.58-1.96-5.17-2.94-7.75-.28-.73-.56-1.46-.84-2.21-.27-.71-.53-1.42-.81-2.15-.25-.65-.49-1.3-.75-1.97-1.22-3.53-1.66-6.13-1.66-9.92-.19-.93-.37-1.86-.56-2.81-.5-3.62-.05-6.6.56-10.19q.14-2.86-.56-5-.44-2,.56-5c-.33-.99-.66-1.98-1-3,.76-8.94,3.18-17.9,7-26,.73-1.64,1.46-3.29,2.19-4.94.6-1.35,1.21-2.71,1.81-4.06h2v-3h2c.08-.72.16-1.44.25-2.19.9-3.37,2.46-5.23,4.75-7.81.76.19,1.53.37,2.31.56q2.78.67,5.69-.56v-3ZM39,313l1,2-1-2ZM312,378l1,2-1-2ZM314,380l1,2,1-2h-2Z"/>
                                    <path class="cls-2" d="M282,132h3v2h2c.33-.66.66-1.32,1-2,3.82.95,4.87,1.8,7.02,5.19.61,1.26,1.21,2.53,1.79,3.81.31.64.62,1.28.94,1.95q2.24,4.72,2.24,7.05h2c.42,1.17.84,2.33,1.27,3.53,1.55,4.12,3.36,8.04,5.35,11.97q.51,1.02,1.03,2.05c2.97,5.85,6.16,11.56,9.46,17.22,1.77,3.06,3.13,5.78,3.88,9.23.59.01,1.19.03,1.8.04,11.86.68,22.17,6.31,30.2,14.96.82.87,1.65,1.73,2.5,2.62,4.6,5.6,7.71,13.4,9.5,20.38-.33.66-.66,1.32-1,2,.69-.08,1.37-.17,2.08-.25q1.35-.15,2.73-.31c.89-.1,1.79-.21,2.71-.32q2.48-.12,5.48.88c5.02.22,9.25-.42,14-2,.66.33,1.32.66,2,1,.33-.66.66-1.32,1-2,1.65.66,3.3,1.32,5,2v7c.66.33,1.32.66,2,1h-2c-.06.56-.12,1.11-.19,1.69-1.15,3.28-3.29,4.98-5.81,7.31q-2.05,1.84-3,4c-2,.68-4,1.35-6,2-1.95,1.95-2.85,3.53-4,6-.99-.33-1.98-.66-3-1-.33.99-.66,1.98-1,3q-1.44,1.69-3,3h-2c-.99.33-1.98.66-3,1,.33.99.66,1.98,1,3-.53.24-1.06.48-1.61.73-3.31,1.57-5.97,2.84-8.58,5.45-2.26,2.26-3.7,2.29-6.81,2.81q-1.49.74-3,1.5c-2.81,1.4-4.93,2.03-8,2.5-.91.21-1.81.41-2.75.62-.74.12-1.49.25-2.25.38-.33-.33-.66-.66-1-1-.66.66-1.32,1.32-2,2q-2.62.12-5,0c-.33.66-.66,1.32-1,2h-7v-2q-2.97.34-6,1c-.33.66-.66,1.32-1,2v-2c-1.32.33-2.64.66-4,1v-2c-.99.33-1.98.66-3,1-2.03-.93-4.03-1.93-6-3-.99-.33-1.98-.66-3-1v-2c-.55.22-1.11.44-1.68.67-3.28.46-4.73-.7-7.51-2.42-.88-.53-1.76-1.06-2.67-1.61q-2.14-1.64-3.14-4.64h-2c-.25-.74-.5-1.49-.75-2.25q-1.07-2.8-3.12-4.56c-3.04-3.13-6.12-7.68-6.12-12.19q-.99-.5-2-1v-4h-2c-.67-1.43-1.34-2.87-2-4.31-.37-.8-.74-1.6-1.12-2.43q-.88-2.26-.88-5.26h-2c-.12-.97-.25-1.94-.38-2.94-.21-1.01-.41-2.02-.62-3.06q-.99-.5-2-1c-.73-2.31-1.4-4.65-2-7h-2v-5h-2c-.19-.54-.39-1.09-.59-1.64-.26-.72-.52-1.43-.79-2.17-.26-.71-.51-1.42-.77-2.14q-.88-2.29-2.85-5.04v-3c-.66-.33-1.32-.66-2-1q-1.04-1.74-2.06-3.88-.51-1.05-1.04-2.12-.9-2.01-1.9-5.01c-.66-.33-1.32-.66-2-1-.73-2.31-1.4-4.65-2-7-.33.66-.66,1.32-1,2-.29-.76-.58-1.53-.88-2.31q-1.09-2.84-3.12-5.69v-3h-2c-1.33-3.33-2.67-6.67-4-10h-2v-3l-2-1c.33-.33.66-.66,1-1l-2-4h3q.43-1.14.88-2.31,2.22-5.29,5.01-6.5c4.62-.4,8.59,3.61,12.05,6.35,3.18,2.68,6.13,5.53,9.07,8.47l2,1v2c.99.33,1.98.66,3,1q1.38,1.25,3,3c.78.78,1.57,1.57,2.38,2.38,1.63,1.63,3.27,3.27,4.89,4.92,2.98,2.95,6.03,5.81,9.11,8.64.57.53,1.14,1.05,1.73,1.6,3.01,2.77,6.06,5.48,9.21,8.09.89.78,1.77,1.57,2.69,2.38v2c1.98.33,3.96.66,6,1,1.06-3.19.89-3.93,0-7v-2c-.66-.33-1.32-.66-2-1-1.32-3.88-2-6.88-2-11q-.99-1.42-2-2.88c-2.21-3.45-2.38-5.13-2-9.12-.66-.33-1.32-.66-2-1q-.69-2-1-4,.49-.5,1-1c-.66-.33-1.32-.66-2-1-.38-1.32-.7-2.66-1-4-.66-1.67-1.33-3.34-2-5q-3.92-10.61-2.06-15.44.53-.77,1.06-1.56h3v-2ZM279,135c.33.99.66,1.98,1,3v-2c.66-.33,1.32-.66,2-1h-3ZM226,155l1,2-1-2ZM267,202c.63,2.82,1.49,5.26,2.74,7.86q.52,1.08,1.04,2.19c.36.75.72,1.49,1.09,2.26,2.49,5.19,4.89,10.39,7.12,15.69,3.57,8.24,7.61,16.16,12,24,.48.87.96,1.74,1.46,2.63,4.37,6.72,11.87,11.62,19.6,13.68,1.3.23,2.6.45,3.94.69q1.08.22,2.18.44c5.27.88,9.01.2,13.97-1.75q1.85-.69,3.85-.69v-2c.6-.26,1.19-.53,1.81-.8,5.74-3.14,9.27-9.13,11.19-15.2,1.77-9.59.34-17.92-3-27h-2c-.23-.8-.45-1.61-.69-2.44-.43-.85-.87-1.69-1.31-2.56q-2.55-.89-5-1v-3h-4q-.49-1.49-1-3-1.14.06-2.31.12-2.69-.12-5.69-2.12-2.09-.02-4.31.38c-3.6.5-7.04.72-10.69.62-.33.99-.66,1.98-1,3-1.98.33-3.96.66-6,1v2c-2.65,1.46-3.89,2-7,2v3c-.54-.62-1.07-1.24-1.62-1.88q-2.25-2.3-5.25-3.06c-5-1.7-8.18-4.64-11.12-9.06-1.32-.68-2.66-1.35-4-2-1.67-1.32-3.34-2.66-5-4h-1ZM278,232l1,2-1-2ZM397,233l1,2-1-2Z"/>
                                    <path class="cls-1" d="M303,291c2.5,1.02,4.85,2.09,7.25,3.31q1.07.54,2.17,1.1c10.64,5.55,19.85,12.8,28.89,20.62,4.16,3.58,8.5,6.81,12.98,9.99,3.87,2.84,7.53,5.91,11.2,9q2.47,2.05,5.33,3.62,1.08.67,2.18,1.36v2c.72.25,1.44.49,2.19.75,3.09,1.37,5.32,2.97,7.81,5.25v2q.81.33,1.63.67c3.17,1.78,5.67,4.17,8.31,6.64.51.47,1.02.95,1.55,1.44,2.45,2.27,4.83,4.58,7.17,6.97,6.12,5.96,13.97,7.71,22.34,8.28,2.01-.26,4.01-.6,6-1,2.39-.43,4.79-.85,7.19-1.25,1.21-.21,2.42-.42,3.67-.64q3.14-.11,5.07,1.22,1.07,1.67,1.07,3.67c.66-.66,1.32-1.32,2-2,.66-.66,1.32-1.32,2-2-.19,1.11-.37,2.23-.56,3.38q-.75,3.45.56,5.62h-3c-.06.76-.12,1.53-.19,2.31q-.81,2.69-3,4.5c-3.18,1.34-5.39,1.34-8.81,1.19q-3.07.78-5,3c-.99-.33-1.98-.66-3-1-.99.33-1.98.66-3,1q-2.19-.94-4-2c-.99.66-1.98,1.32-3,2-7.77-.54-14.8-3.58-21.69-7-.7-.34-1.39-.69-2.11-1.04-3.31-1.72-5.1-2.8-7.21-5.96.33-.66.66-1.32,1-2-.56.25-1.11.5-1.69.75q-2.31.25-5.06-1.56c-.74-.72-1.49-1.44-2.25-2.19v-2c-.62-.12-1.24-.25-1.88-.38q-2.12-.62-4.12-2.62-1.49-.5-3-1l-2-2c-2.92-2.54-5.12-4.42-9-5v-3h-4v-2c-.78-.31-1.57-.62-2.38-.94q-2.62-1.06-4.62-2.06v-2q-.84-.15-1.7-.3c-2.82-.86-4.72-2.22-7.11-3.95-.87-.63-1.74-1.26-2.64-1.9q-1.26-.91-2.55-1.85c-.73-.5-1.46-.99-2.21-1.5-1.63-1.11-3.22-2.3-4.79-3.5v-2c-.99.33-1.98.66-3,1v-2c-1.11-.29-2.23-.58-3.38-.88q-3.62-1.12-5.62-3.12c-1.98-.71-3.98-1.39-6-2v-4h-3c-.6-1.1-1.21-2.19-1.83-3.32-.81-1.45-1.61-2.91-2.42-4.36q-.59-1.08-1.2-2.19c-1.79-3.22-3.53-6.11-5.86-8.99q-1.7-2.14-1.57-4.7c.29-.8.58-1.61.88-2.44.25-.72.49-1.44.75-2.19,1.7-2.46,3.45-2.9,6.25-3.81l2-1ZM297,296v3-3ZM295,299l1,2-1-2ZM395,381l1,2-1-2ZM405,386l1,2-1-2Z"/>
                                    <path class="cls-1" d="M195,253c1.15-.02,2.31-.04,3.5-.06,4.28.08,6.69,1.2,10.5,3.06-.66.99-1.32,1.98-2,3-.08,2.33-.09,4.67,0,7l-3,1-2,3c-1.32-.33-2.64-.66-4-1v2q-7.62,2-11,2l-2,2c-2.32.7-4.66,1.36-7,2q-3.78,1.09-6,4h-2v2h-2l1,3h-2c-.33.99-.66,1.98-1,3-.99.33-1.98.66-3,1q-1.16,1.56-2.06,3.44c-2.02,3.88-3.96,5.71-7.94,7.56v4h-3c-.1.71-.2,1.41-.31,2.14-.79,3.27-2.1,5.75-3.75,8.68-.55.98-1.1,1.95-1.66,2.96-.42.74-.84,1.47-1.28,2.23h-2l-2,4q-.94-.23-1.9-.47c-.82-.19-1.63-.39-2.48-.59-.81-.2-1.62-.39-2.46-.6q-2.21-.56-4.16.66c-.33-.99-.66-1.98-1-3,.66-.99,1.32-1.98,2-3-.66-.33-1.32-.66-2-1,.65-5.02,2.79-9.23,4.94-13.75q.54-1.17,1.09-2.36c.35-.74.7-1.48,1.06-2.25.32-.68.64-1.35.96-2.05q.95-1.59,2.95-2.59c.34-1.66.67-3.33,1-5q1.19-2.46,2.56-4.81c.46-.79.91-1.58,1.38-2.39.35-.59.7-1.18,1.06-1.79h2c.23-.7.45-1.4.69-2.12,1.65-3.62,3.6-5.96,6.31-8.88h2c.66-1.32,1.32-2.64,2-4h2v-2c1.74-1.45,3.54-2.81,5.38-4.12,1-.72,2-1.45,3.02-2.2q2.6-1.68,4.6-1.68v-2c8.24-2.81,14.67-2.47,23,0ZM203,257c.33.66.66,1.32,1,2,.33-.66.66-1.32,1-2h-2ZM200,267l1,2-1-2ZM128,314v2c.99-.33,1.98-.66,3-1-.99-.33-1.98-.66-3-1ZM131,318c-.33.99-.66,1.98-1,3,.99.33,1.98.66,3,1-.33-1.32-.66-2.64-1-4h-1Z"/>
                                    <path class="cls-1" d="M325,220c.99.27,1.98.54,3,.81,3.9,1.54,6.02,3.21,9,6.19q.88,2.81,1,5l3,1c.59,5.35,1.14,10.61,1,16h-2c-.27,1.07-.54,2.15-.81,3.25-1.12,3.52-1.67,5.17-4.19,7.75-2.44,1.03-4.59,1.79-7.12,2.44-.67.18-1.34.35-2.03.53-5.8,1.34-9.69.88-14.84-1.97-.95-.49-1.9-.99-2.88-1.5-3.94-2.78-5.5-4.94-7.12-9.5-.35-.85-.7-1.69-1.06-2.56-2.01-5.22-2.29-8.79-.44-14.12q.42-1.21.84-2.45c.22-.61.43-1.23.66-1.86h2v-3h2v-2c1.39-.82,2.79-1.63,4.19-2.44.78-.45,1.55-.9,2.36-1.37,5.16-2.5,8.17-2.24,13.46-.19ZM302,235l1,2-1-2ZM317.31,237.5c-.43.5-.87.99-1.31,1.5.66,2.31,1.32,4.62,2,7q1.89.68,4,1,2.29-1.84,2.12-4.62c-.04-.78-.08-1.57-.12-2.38.66-.33,1.32-.66,2-1h-3c-.33-.99-.66-1.98-1-3q-3-.33-4.69,1.5ZM340,238l1,2-1-2Z"/>  <path class="cls-2" d="M37,319l2,1q-1,2-3,3l1-4Z"/>
                                    <path class="cls-2" d="M157,56l3,3h-4c.33-.99.66-1.98,1-3Z"/>
                                    <path class="cls-2" d="M169,59l2,4h-2v-4Z"/>
                                    <path class="cls-2" d="M223,151l2,2c-1.32-.33-2.64-.66-4-1l2-1Z"/>
                                    <path class="cls-1" d="M452,375c.33.99.66,1.98,1,3-.66-.33-1.32-.66-2-1l1-2Z"/>
                                    <path class="cls-1" d="M438,370l4,1-4-1Z"/>
                                    <path class="cls-1" d="M208,258h2v2h-2v-2Z"/>
                                    <path class="cls-2" d="M285,129l1,2c-.99-.33-1.98-.66-3-1l2-1Z"/>
                                    <path class="cls-2" d="M351,410l1,2c-.66-.33-1.32-.66-2-1l1-1Z"/>
                                    <path class="cls-2" d="M361,407l1,2c-.66-.33-1.32-.66-2-1l1-1Z"/>
                                    <path class="cls-1" d="M444,369l2,1-2,1v-2Z"/>
                                    <path class="cls-2" d="M35,316l2,2h-2v-2Z"/>
                                    <path class="cls-1" d="M294,293l2,1-2,1v-2Z"/>
                                    <path class="cls-1" d="M301,290l2,1-2,1v-2Z"/>
                                    <path class="cls-1" d="M207,261l2,1-2,1v-2Z"/>
                                    <path class="cls-2" d="M310,212l3,1-3-1Z"/>
                                    <path class="cls-2" d="M224,149l2,2h-2v-2Z"/>
                                    <path class="cls-2" d="M38,327l2,1-2-1Z"/>
                                    <path class="cls-1" d="M132,324l2,1-2-1Z"/>
                                    <path class="cls-1" d="M125,317l2,1-2-1Z"/>
                                    <path class="cls-2" d="M285,219l2,1-2-1Z"/>
                                    <path class="cls-2" d="M287,218l2,1-2-1Z"/></svg>