<svg xmlns="http://www.w3.org/2000/svg" viewBox="0 0 239.16 234.97">
  <path class="cls-1" d="M1.07,0L0,1.5c2.47,3.9,5.02,8.51,7.34,13.84,3.96,9.1,6.01,17.49,7.11,24.22,27.85-3.42,58.42-5.83,91.35-6.46,49.07-.93,93.46,2.29,132.07,7.33.43-.55.85-1.1,1.28-1.65-2.31-4.29-4.63-9.06-6.81-14.3-3.59-8.63-6.04-16.71-7.74-23.86-33.12,3.27-69.64,5.36-109.06,5.35C74,5.97,35.66,3.61,1.07,0Z"/>
  <path class="cls-1" d="M1.07,97.27l-1.07,1.5c2.47,3.9,5.02,8.51,7.34,13.84,3.96,9.1,6.01,17.49,7.11,24.22,27.85-3.42,58.42-5.83,91.35-6.46,49.07-.93,93.46,2.29,132.07,7.33.43-.55.85-1.1,1.28-1.65-2.31-4.29-4.63-9.06-6.81-14.3-3.59-8.63-6.04-16.71-7.74-23.86-33.12,3.27-69.64,5.36-109.06,5.35-41.55-.02-79.89-2.37-114.48-5.99Z"/>
  <path class="cls-1" d="M1.07,194.53l-1.07,1.5c2.47,3.9,5.02,8.51,7.34,13.84,3.96,9.1,6.01,17.49,7.11,24.22,27.85-3.42,58.42-5.83,91.35-6.46,49.07-.93,93.46,2.29,132.07,7.33.43-.55.85-1.1,1.28-1.65-2.31-4.29-4.63-9.06-6.81-14.3-3.59-8.63-6.04-16.71-7.74-23.86-33.12,3.27-69.64,5.36-109.06,5.35-41.55-.02-79.89-2.37-114.48-5.99Z"/>
</svg>