 <svg id="limicon" xmlns='http://www.w3.org/2000/svg' viewBox="-57 -23 416.07 415.04" class="artisticon"><path class="cls-2" d="M122.06,135.94q1.45.03,2.94.06c.25.78.49,1.57.75,2.38,1.46,3.06,2.33,3.21,5.25,4.62q.62,2.06,1,4l2,1v2c1.32.66,2.64,1.32,4,2l-1,4q1.98.5,4,1l-2,5h-2q-.19.96-.38,1.94c-.21.68-.41,1.36-.62,2.06l-2,1c-1.35,2.93-2.3,5.85-3,9q1.42.19,2.88.38,3.12.62,5.12,2.62l1,2h2q.5,2.97,1,6l-3,2q-.72,2.06-1,4-11.98,3.59-18,2c-4.79,10.89-9,22.97-9,35-.02.95-.04,1.9-.06,2.88.06,2.92.46,5.28,1.06,8.12.24,1.26.48,2.53.73,3.83,3.79,19.09,11.78,34.66,22.07,51.03q1.2,2.14,1.2,4.14h2v4h2q1.28,1.49,2.72,3.59c.53.76,1.07,1.52,1.62,2.31.57.82,1.14,1.64,1.72,2.48,4.93,6.98,9.95,13.51,15.94,19.62q1.19,1.23,2.41,2.49c11.25,10.89,25.57,20.06,41.15,22.45,4.35.75,7.65,1.81,11.44,4.06v5c-.99.33-1.98.66-3,1v4c-.64.1-1.28.21-1.94.31-.68.23-1.36.45-2.06.69-.33.99-.66,1.98-1,3-.99-.66-1.98-1.32-3-2v2c-4.37.26-7.83-.75-12-2-1.46-.27-2.92-.55-4.38-.81-4.33-.93-7.7-2.71-11.49-4.95-2.95-1.7-5.99-2.94-9.14-4.23-3.13-1.47-6.12-3.08-9-5v-2c-.71-.1-1.42-.21-2.14-.32-3.22-.77-5.66-2.01-8.54-3.62-.95-.52-1.91-1.05-2.89-1.59-2.59-1.57-4.07-2.76-5.43-5.47q-1.27-.37-2.56-.75c-4.41-1.61-8-4.04-11.44-7.25v-2q-.96-.15-1.94-.31-1.02-.34-2.06-.69c-.33-.99-.66-1.98-1-3-1.65-.33-3.3-.66-5-1v-2q-1.05-.34-2.12-.69c-3.62-1.65-5.96-3.6-8.88-6.31v-2h-2v-2q-.87-.34-1.75-.69c-2.83-1.65-4.22-3.74-6.25-6.31-1.06-.92-2.15-1.81-3.25-2.69q-1.36-1.14-2.75-2.31v-2c-.99-.33-1.98-.66-3-1-1.05-1.29-2.04-2.64-3-4-.89-1.05-1.79-2.09-2.69-3.12q-2.31-2.88-2.31-4.88h-2c-2.04-2.91-3-4.4-3-8h-2c-.66-2.31-1.32-4.62-2-7h-2c-1.67-5-3.33-10-5-15-.24-.64-.47-1.28-.72-1.95-2.7-7.53-5.89-17.23-3.28-25.05-.66-.33-1.32-.66-2-1q.22-.99.44-2c.53-2.85.9-5.7,1.26-8.58.1-.8.2-1.6.3-2.42q.18-1.48.37-2.98c1.59-11.64,5.12-21.67,10.63-32.02,1.21-2.38,2.36-4.77,3.5-7.19q1.5-2.81,3.5-3.81c.28-.74.56-1.49.86-2.25,1.34-3.23,3.08-5.19,5.46-7.75.81-.87,1.61-1.74,2.45-2.64,5.22-5.5,10.32-10.87,17.05-14.49q3.45-1.56,4.19-4.88c.97-.12,1.94-.25,2.94-.38,1.01-.21,2.02-.41,3.06-.62.33-.66.66-1.32,1-2l2,1c.33-.66.66-1.32,1-2q1-1,4.06-1.06ZM114,158v2c-2.31.66-4.62,1.32-7,2v2c-.62.23-1.24.45-1.88.69-2.8,1.73-3.36,3.16-4.12,6.31q.99,1.49,2,3,1.98.36,4.12.19c1.28-.06,2.56-.12,3.88-.19l1-4h2c.66-2.31,1.32-4.62,2-7h2c.33-1.32.66-2.64,1-4-1.65-.33-3.3-.66-5-1ZM140,183l1,2-1-2ZM100,196l-2,2h-2c-.5.49-.99.99-1.5,1.5-.5.5-.99.99-1.5,1.5h-2c-1.5,2.27-2.78,4.57-4,7h-2q-.43,1.14-.88,2.31-1.12,2.69-3.12,5.69v3c-.66.33-1.32.66-2,1v2c-.35.91-.7,1.82-1.06,2.75-4.4,15.14,2.96,33.01,10.06,46.25,5.66,10.04,12.78,18.94,21,27,2.58,2.58,5.14,5.15,7.62,7.81q2.2,2.53,5.38,2.19c-.66-1.32-1.32-2.64-2-4h-2c-.14-.62-.29-1.24-.44-1.88q-.49-2.16-1.56-4.12h-2v-4h-2c-.66-2.31-1.32-4.62-2-7h-2c-.25-.8-.49-1.61-.75-2.44-1.26-3.59-2.75-6.97-4.35-10.41-.86-2.04-1.4-3.99-1.9-6.15q-.46-1.14-.94-2.31c-3.35-8.46-5.43-17.57-5.06-26.69q.13-2.83-.5-4.81c-.93-4.07-.55-7.84.06-11.94q.73-3.13-.56-5.25c.99-.33,1.98-.66,3-1v-10c.99-.33,1.98-.66,3-1v-6c.66-.33,1.32-.66,2-1l-2-2ZM89,295l1,2-1-2ZM161,332l1,2-1-2ZM148,347l1,2-1-2Z"/>
                                <path class="cls-1" d="M217,47l3.5.44c3.58.58,5.54,1.53,8.5,3.56l2,1v2c.71.1,1.42.19,2.15.29,3.31.82,5.56,2.17,8.41,4.02.93.59,1.86,1.19,2.82,1.8q2.62,1.89,4.71,3.99,1.78,1.96,3.93,2.91c5.47,2.74,8.87,8.48,10.98,13.99l1.88.94c3.17,1.59,4.37,4.06,6.12,7.06v2h2c.33,1.98.66,3.96,1,6h2q12.04,24.67,11.97,32.21-.29,2.94,2.03,4.79.34,2.24.5,4.88c.22,3.65.87,5.89,2.5,9.12.41,2.01.76,4.03,1.06,6.06.47,3.14.93,5.93,1.94,8.94-.02.74-.04,1.49-.06,2.25.06,2.77.73,4.89,1.55,7.51.93,4.09,1.03,8.27,1.26,12.45q.07,2.75,1.25,4.79c.07,2.04.08,4.08.06,6.12,0,1.1-.02,2.19-.03,3.32q-.02,1.26-.04,2.55h-2c.33.99.66,1.98,1,3q-.94,2.69-2,5c-1.32-.66-2.64-1.32-4-2v2c-1.32-.33-2.64-.66-4-1h2v-2c-.99.33-1.98.66-3,1-.66-.33-1.32-.66-2-1-.33.99-.66,1.98-1,3-.6-2.76-1-5.16-1-8h-2c-.17-1.58-.34-3.17-.5-4.75-.09-.88-.19-1.76-.28-2.67q-.22-2.58-.22-6.58c-.33-1.67-.66-3.33-1-5v-9h-2v-4c-.33-.99-.66-1.98-1-3q.44-2.69,1-5h-2c-.11-1.06-.22-2.12-.33-3.22q-.82-8.89-3.29-17.41c-1.43-3.5-1.38-5.67-1.38-9.38-.94-2.03-1.93-4.04-3-6v-2c-1.25-3.05-2.53-6.05-4-9h2v-2h-3c-.45-1.11-.91-2.23-1.38-3.38q-1.35-3.59-3.62-5.62c.33-.66.66-1.32,1-2h-2q-1.47-1.86-3.06-4.31c-.53-.8-1.05-1.6-1.6-2.43q-1.34-2.26-2.34-5.26c-.83-.49-1.65-.99-2.5-1.5q-2.5-1.5-3.5-4.5h-2c-.66-.99-1.32-1.98-2-3-3.65-4.07-7.23-6.47-12-9v-2h-5v-2c-.8-.12-1.61-.25-2.44-.38-2.7-.47-5.33-1.01-8-1.62-9.4-2.09-18.02-3.34-26.56,2l-1,2h-3c-.62,1.24-1.23,2.49-1.81,3.75q-1.19,2.25-3.12,4.94c-4.68,7.52-5.57,13.61-4.06,22.31h-2c-.12.72-.25,1.44-.38,2.19-.62,2.77-1.51,5.21-2.62,7.81h-3q-1.45.31-2.94.62c-3.29.4-4.41.27-7.06-1.62-.66-.99-1.32-1.98-2-3-1.32,2.31-2.64,4.62-4,7h-2c-.12.78-.25,1.57-.38,2.38-.89,3.72-2.46,4.51-5.62,6.62q-2.16.27-4.5.25-1.16,0-2.34.02-2.16-.27-5.16-2.27c-1.09-4.85-.91-7.57.31-12.31.24-.97.49-1.93.74-2.93.96-2.79,2.12-4.48,3.95-6.76.74-1.7,1.47-3.4,2.17-5.12,1.37-3.11,3.1-5.96,4.83-8.88h2c.12-.6.25-1.2.38-1.81q.62-2.19,2.62-5.19h2c.25-.72.5-1.44.75-2.19,1.37-3.09,2.97-5.32,5.25-7.81h2v-2q3.46-3,6-3v-2c13-11.38,37.39-21.15,54-14ZM244,80l1,3-1-3ZM286,201l1,3-1-3ZM288,203l1,3-1-3Z"/>
                                <path class="cls-2" d="M197.64,71.46c3.75.87,6.21,2.3,9.36,4.54q1.25,2.19,2,4l3,1c4.74,5.64,10.05,12.9,11.43,20.29.58,2.76,1.53,5.22,2.59,7.82,2.84,6.97,4.84,13.88,6.29,21.26.16.81.32,1.61.48,2.45.78,4.18,1.41,8.37,1.94,12.59.1.81.2,1.61.31,2.44q-.04,2.14-2.04,5.14h2c-.02.78-.04,1.57-.06,2.38q-.12,2.61,1.06,4.62h-2q.28,1.61.56,3.25c.37,3.15.55,4.87-.56,7.75-.33.33-.66.66-1,1h1c.2,3.69-.2,5.8-2,9-1.15,2.83-2.26,5.66-3.38,8.5-2.5,5.39-5.71,9.15-10.62,12.5q-2.81.75-5,1c-.33.99-.66,1.98-1,3-2.31-.33-4.62-.66-7-1-.33.99-.66,1.98-1,3-10.31,0-17.22-1.3-26-7q-1-.59-2.02-1.19c-2.44-1.64-3.82-3.12-4.47-6.02-.19-3.62-.25-5.94,2.18-8.73.76-.35,1.53-.7,2.31-1.06.72-.47,1.44-.95,2.19-1.44,4.52-.9,7.9,1.25,11.81,3.44.7.56,1.4,1.11,2.12,1.69,2.89,2.03,5.39,2.19,8.88,2.31,3.48-1.39,4.66-2.31,6.31-5.69.23-.76.45-1.53.69-2.31h2c.14-1.3.29-2.6.44-3.94q.44-3.94,1.56-5.06c.13-2.89.19-5.74.19-8.62q.02-1.19.04-2.41c.01-5.02-.69-9.14-2.22-13.96-.21-1.51-.39-3.04-.5-4.56-.35-3.73-1.29-6.89-2.5-10.44-.04-1.67-.04-3.33,0-5q-.3-2.2-1-4-.99-.49-2-1c.33-.99.66-1.98,1-3-.99-.66-1.98-1.32-3-2q-.62-1.88-1-4c-.64-2.93-1.58-5.35-3-8h2c-.33-.66-.66-1.32-1-2h-3v-4c-.99-.33-1.98-.66-3-1q-.84-1.71-1.5-3.81c-.87-2.58-1.53-4.23-3.19-6.44q-1.31-1.75-1.31-5.75l-3-1c0-2.62.31-4.51,1-7h2c.33-.66.66-1.32,1-2,3.75-2.5,5.35-2.14,9.64-1.54ZM187,80l1,2-1-2ZM174,188l1,2-1-2Z"/>
                                <path class="cls-1" d="M11,125l1,2c.66-.33,1.32-.66,2-1,4.82,3.63,5.4,8.29,6.62,13.88.41,1.77.82,3.54,1.23,5.3.19.83.38,1.67.58,2.53.7,2.82,1.61,5.55,2.57,8.29q.25.99.5,2.01c3.7,14.64,11.43,26.87,21.16,38.11,4.91,6.05,8.33,12.12,9.34,19.89h-2c.33.68.66,1.36,1,2.06,2.28,6.7.63,11.7-2,17.94h-2q-.49,1.98-1,4c-.7-.29-1.4-.58-2.12-.88q-2.89-1.19-6.06-2c-3.39-1.36-3.38-1.92-4.81-5.12-1.01-1.88-2.04-3.75-3.06-5.62q-2.84-5.18-3.94-7.38c-.31-.59-.62-1.18-.93-1.78-1.21-2.53-2.18-5.08-3.13-7.72-.34-.94-.68-1.88-1.04-2.84q-.9-2.66-1.4-4.94c-.17-.57-.33-1.13-.5-1.72-.66-.33-1.32-.66-2-1-1.48-3.22-2.79-6.45-4.06-9.75q-.94-2.47-2.94-5.25c-1.5-3.97-2.4-7.8-3-12h-2c-.1-.91-.21-1.81-.31-2.75q-.42-3.21-2.19-5.06c-1.97-2.88-1.92-5.21-2.19-8.63-.34-2.78-1.02-5.3-1.81-7.99-1.5-5.17-2.16-10.2-2.5-15.56h2c.08-.6.16-1.2.25-1.81,1.55-4.54,4.21-5.19,8.75-5.19ZM7,128l1,2-1-2ZM3,129l1,2-1-2ZM3,133l1,2-1-2ZM30,215l1,2-1-2Z"/>
                                <path class="cls-1" d="M162,142q9.87-.77,13.69,1.81c2.39,5.8,1.98,11.7.38,17.69q-.53,1.24-1.06,2.5c-1.05,3.16-1.31,5.87-1.56,9.19-.08,1.09-.17,2.17-.25,3.29q-.09,1.25-.18,2.52h-2c.04.78.08,1.57.12,2.38q-.12,2.62-2.12,4.62v4c-.47.78-.95,1.57-1.44,2.38-1.74,2.92-2.17,5.27-2.56,8.62h-2c-.11.7-.21,1.4-.32,2.12-.77,3.27-2.02,5.89-3.55,8.88-.51,1.01-1.03,2.02-1.55,3.06q-2.98,5.57-4.57,7.94h-2c.33.99.66,1.98,1,3-.62.58-1.24,1.15-1.88,1.75-1.94,2.05-3.03,3.68-4.12,6.25h-2v2q-1.49.99-3,2l-1.31,3.5q-1.69,3.5-4.81,4.75c-.95.25-1.9.5-2.88.75-.33.99-.66,1.98-1,3h-2v-2h-2v-2q-.93-.19-1.88-.38-2.12-.62-4.12-2.62.38-2.62,1-5h-2c-.98-4.7-1.67-8.58.69-12.94,2.23-2.96,3.15-3.59,6.31-5.06q1.28-2.54,2-5h2c.29-.6.58-1.2.88-1.81q1.12-2.19,3.12-5.19h2v-2h2c.11-.56.23-1.13.34-1.71.74-2.57,1.82-4.6,3.16-6.91.44-.78.89-1.55,1.34-2.35.38-.67.76-1.34,1.16-2.02l1-2h2c.33-2.31.66-4.62,1-7h1c1.16-3.91,2.3-7.83,3.44-11.75.33-1.09.65-2.18.99-3.31,1.89-6.57,3.01-12.65,3.19-19.49.45-2.87,1.21-3.62,3.39-5.45l1-2Z"/>
                                <path class="cls-2" d="M123,0c9.88,2.21,17.61,7.66,25.03,14.32,1.76,1.5,3.51,2.76,5.47,3.99.83.56,1.65,1.11,2.5,1.69v2q.83.29,1.68.59c3.3,2.01,5.22,4.95,7.45,8.04,1.58,2.18,3.18,4.28,4.88,6.38h2q.16,8.26-1,11c-.99.33-1.98.66-3,1-.33.99-.66,1.98-1,3-.99.33-1.98.66-3,1l-2-2c-.78-.12-1.57-.25-2.38-.38-3.41-.81-4.32-1.98-6.62-4.62q-.88-.96-1.77-1.94-5.09-5.64-6.23-9.06h-2v-2q-.8-.34-1.62-.69c-2.48-1.37-4.46-3.05-6.6-4.88-4.87-3.93-9.9-7.25-15.77-9.43v-4c-.99.33-1.98.66-3,1q-.12-2.88,0-6l2-2c-.33-.99-.66-1.98-1-3,1.98-.66,3.96-1.32,6-2V0ZM120,4l1,2-1-2ZM165,48l1,2-1-2Z"/>
                                <path class="cls-2" d="M186,117c2.29,2.58,2.91,4.22,3.31,7.62q-.31,2.38-2.31,5.38c-.66-.33-1.32-.66-2-1-.33.66-.66,1.32-1,2-6.24,3-12.1,4.74-19,4l-3-2v-3l-2-1v-5h2l.59-1.86c2.63-3.99,7.43-4.3,11.85-5.44,4.49-.89,7.21-1.1,11.57.3Z"/>
                                <path class="cls-1" d="M152,128q3.06,2.06,5,5c.69,4.23.29,6.39-1.56,10.25-3,3.38-5.21,4.29-9.44,5.75v-2h-2.75c-3.6-1.11-4.02-1.51-5.81-4.62-1.52-3.51-1.47-4.26-.44-8.19,3.88-6.18,7.83-7.53,15-6.19Z"/></svg>