<svg id="lvndicon" xmlns='http://www.w3.org/2000/svg' viewBox="-35 -30 437.10 431.25" class="artisticon">  <path class="cls-1" d="M75.88.06v2c2.49.69,4.38,1,7,1v2c.76.14,1.53.29,2.31.44,3.67,2.14,4.03,4.42,5.21,8.37.6,2.76.48,5.37.48,8.19l-2,2c-.45,1.93-.83,3.97-1.12,6.12-.31,1.94-.6,3.9-.88,5.87h-2c-.29.91-.58,1.81-.88,2.75-1.69,4.89-3.34,7.69-7.12,11.25-2.36,2.29-4.16,4.25-6,7-.66.33-1.33.66-2,1l-2-1c-.33.66-.66,1.33-1,2-2.86,2.09-4.13,1.99-7.75,1.62-1.07-.21-2.15-.41-3.25-.62v2h-2c-1.3,2.6-2.74,5.44-4,8.06-1.94,3.77-3.85,7.06-7,9.94-.66.66-1.32,1.32-2,2-.66.33-1.33.67-2,1,.29.68.58,1.36.88,2.06.75,1.96,1.45,4.15,2.12,6.56.57,2.31,1.57,4.43,3,6.38,2.05,6.38,3.16,12.3,3,19,.51.25,1.03.5,1.56.75,5.06,2.59,9.11,4.86,13.12,8.88,5.52,4.99,11.94,5.14,19.11,5.53,7.3.43,13.86,2.07,20.21,5.85.79,1.4,1.45,2.73,2,4,1.65.7,3.32,1.37,5,2,.66.99,1.32,1.98,2,3,2.48.74,4.78,1.29,7.31,1.75,4.36.93,8.4,1.79,12.68.25,1.43-.99,2.79-2.12,4.06-3.38,4.7-4.37,8.26-6.64,10.69-6.81.74.06,1.49.12,2.25.19v-2c6.32-.94,10.95-1.1,17,1h3v2c1.09.12,2.19.25,3.31.38,2.46.41,4.69,1.29,6.69,2.62v2c7.87-4.29,15.72-8.52,24-12v-2h2c.1-.73.21-1.45.32-2.2.88-3.92,3.02-6.7,5.21-10,.49-.59.97-1.18,1.47-1.79h2v-3h2c.23-.59.47-1.17.71-1.77,3.06-5.27,9.46-8.51,14.98-10.66,2.21-.37,4.54-.5,7-.38,2.3.13,4.11-.69,5.44-2.44.62-.91,1.25-1.82,1.88-2.75,2.95-2.67,5.62-4,8-4,.33-.99.66-1.98,1-3,1.55-.57,3.3-1.11,5.25-1.62,4.45-1.49,6.46-2.61,8.62-6.81.36-.78.72-1.57,1.08-2.37,1.46-3.08,3.43-5.05,6.04-7.19,1.54-.54,2.87-.87,4-1v-2c2.94-1.29,5.83-2.52,8.78-3.81,6.71-2.49,13.62-3.4,20.34-.63,3.45,1.4,5.25,1.62,8.88.44,9.76-2.96,20.69-3.79,30,1,2.82,1.68,5.09,3.31,7,6,.56,2.86.29,5.05,0,8,.28,1.57.61,2.91,1,4h-2c-.12.74-.25,1.49-.38,2.25-1.33,5.84-3.92,8.22-8.62,11.75h-2v2h-2v3h-7c-.33.99-.66,1.98-1,3-1.65-.33-3.3-.66-5-1-.33.99-.66,1.98-1,3-.52-.35-1.03-.7-1.56-1.06-4.72-1.82-9.58.31-14.44,1.06v2c-1.65.33-3.3.66-5,1v3c-1.65-.33-3.3-.66-5-1v2l-2,2c-.38,2.33-.71,4.66-1,7-.33.99-.66,1.98-1,3h-2v5h-2v4c-.23.66-.46,1.33-.69,2-.37,1.37-.08,2.6.88,3.69.6.76,1.2,1.53,1.81,2.31,2.65,5.18,4.47,10.76,7,16,.99.33,1.98.66,3,1l1-1c3.68-.3,5.81.21,9,2,2.9,1.08,5.05,2,8,4v2h2c3.72,7.51,4.46,13.68,4,22v3l-1,2c-.12.7-.25,1.4-.38,2.12-1.35,6.21-3.1,10.36-5.23,12.43-1.17.98-1.63,2.46-1.4,4.45h-2c-.27,1.13-.54,2.27-.81,3.44l-1.19,3.56c-.99.33-1.98.66-3,1-.49,1.35-.82,2.68-1,4h-2c-.33.99-.66,1.98-1,3-1.24,3.71-2.97,4.65-6,7l-1,2c-2.1.44-4.75.63-7.06.85-.64.05-1.28.1-1.93.15-.33.99-.66,1.98-1,3l-2-2c-.6.23-1.2.45-1.81.69-.72.1-1.44.21-2.19.31-1.83-1.54-3.5-3.21-5-5v-2c-.99-.33-1.98-.66-3-1l-1-2c-.62-.27-1.24-.54-1.88-.81-2.77-1.55-3.59-3.47-5.12-6.19l-2-1v-3h-2v-2l-2-1c-.41-1.37-.75-2.71-1-4h-2c-.33-.99-.66-1.98-1-3l-2-2c-1.15-2.43-2.08-4.89-3.1-7.39-.87-2.53-1.39-4.99-1.9-7.61l-1-1c-1.06-7.63.75-12.71,5-19h2v-2h2c.33-.99.66-1.98,1-3,4.53-1.83,9.3-2.52,14-1,0-4.58-.93-8.03-3.12-12.06-1.09-2.41-1.02-4.32-.88-6.94l-2-1c-1.66-7.12-.94-12.48,2-19,1.09-3.65,2.11-7.3,3-11-.99-.33-1.98-.66-3-1-2.46,1.46-3.88,2.83-5.5,5.19-.49.6-.99,1.2-1.5,1.81h-4c-1.02,1.32-2.02,2.65-3,4-1.46.5-2.79.83-4,1,.04.95.08,1.9.12,2.88-.08,2.08-.79,3.79-2.12,5.12-2.64,5.39-4.9,9.56-10,13l1,2c-1.98.33-3.96.66-6,1v2c-2.31,1.32-4.64,2.65-7,4v2c-2.57.21-5.13.44-7.72.68-1.5.05-2.6.49-3.29,1.32-3.23.17-5.89-.2-9-1h-4c-.05,2.84-.06,5.65-.1,8.5-.13,1.63.24,2.79,1.1,3.5v6c.3,1.67.63,3.34,1,5v2c.35.97.7,1.94,1.06,2.94.63,2.04.61,4.06-.06,6.06l2,2c.82,4.01,1.21,7.08,0,11l1,1c.07,3.11,0,6.2-.06,9.31-.17,1.74.19,2.97,1.06,3.69.28,6.48.06,12.93.13,19.43-.13,2.62-.59,5.01-1.13,7.57-.13,4.35-.05,8.64.01,13h-2c.02,1.94.35,3.94,1,6,1.9,1.17,3.9,2.17,6,3,3.42,2.53,4.58,6.08,6,10,.13,1.96.13,3.63,0,5-.99.33-1.98.66-3,1-.38,1.32-.7,2.66-1,4-.96,1.83-1.96,3.5-3,5h-2c-.99.66-1.98,1.32-3,2,1.8,7.56,3.86,14.98,6.23,22.38.51,1.75.77,3.29.77,4.62,4.94-2.14,11.31-3.39,14-2,3.8,1.92,6.47,3.59,8,5v4l-2,2h-3c-.66,2.64-1.32,5.28-2,8,1.32.33,2.64.66,4,1v4c.76-.02,1.53-.04,2.31-.06,1.79.04,3.69.39,5.69,1.06-1.25,3.65-1.67,4.78-5,7l-2,2c-1.92,1.19-3.94,2.21-5.93,3.3-2.46.84-3.62.4-6.07-.29-.47.49-.95.99-1.44,1.5-.52.49-1.03.99-1.56,1.5-1.5-.21-3.17-.54-5-1-2.33-.04-4.67-.05-7,0-.33-.99-.66-1.98-1-3l-2-2c-1.22-3.18-2-5.58-2-9-.19-.68-.37-1.36-.56-2.06-.29-1.29-.11-2.61.56-3.94-.99-.33-1.98-.66-3-1-.93-7.01-2.31-13.48-5-20-.88-2.37-1.69-4.73-2.55-7.12-.3-1.25-.12-2.55.55-3.88-.66-.33-1.32-.66-2-1,.33-.99.66-1.98,1-3-3.66-1.12-6.86-1.99-10.69-2.38-3.79-.71-4.84-1.79-7.31-4.62h-2c-1.95-2.92-2.45-4.63-3-8l-1,2c-.95-4.18-1.21-6.31,1-10,.36-1.33.7-2.66,1-4,.33-.99.66-1.98,1-3-2.53-6.28-2.88-11.83,0-18l-1-2c2.18-7.89,4.87-16.03,7-24h2c-.23-.66-.45-1.32-.69-2-.36-3.49.61-5.65,1.93-8.85,1.01-2.85,1.26-5.55,1.51-8.55.3-3.14.81-6.23,1.31-9.35.87-5.89,1.08-11.56.91-17.51.02-2.47.38-4.38,1.03-6.74-.31-1.34-.65-2.67-1-4-.04-2-.05-4,0-6-3.11,0-5.11.17-8,1-.33,1.32-.66,2.64-1,4l-2-1v2c-1.65.66-3.31,1.33-5,2v2c-2.31.33-4.62.66-7,1-.33.99-.66,1.98-1,3h-5c-1.4,2.49-2.16,4.64-2.88,7.44-1.17,3.69-2.58,5.69-5.12,8.56l-1,2h-2l1,4c-2.65,1.46-3.89,2-7,2v2c-2,.67-4,1-6,1-1.34.65-2.67,1.32-4,2-1.32.37-2.66.71-4,1v3c-.99.66-1.98,1.32-3,2-.8,1.7-1.47,3.37-2,5h-2c-.33,1.65-.66,3.3-1,5,.83.45,1.65.91,2.5,1.38.83.54,1.65,1.07,2.5,1.62v2c.56.13,1.12.25,1.69.38,3.68.99,6.59,1.9,9.31,4.62h2c1.1,1.91,2.13,3.83,3.22,5.76,1,2.89.69,4.33-.22,7.24-1.86,3.79-3.98,7.04-7,10-3.22,1.04-5.75.87-9,0-1.59-.87-2.92-1.87-4-3-.58-.52-1.15-1.03-1.75-1.56-.83-.96-1.25-2.11-1.25-3.44-.99.33-1.98.66-3,1v-2h-2l-2-2c-1.65-.71-3.32-1.38-5-2-.1.58-.21,1.15-.31,1.75-.79,2.6-1.99,4.15-3.69,6.25-.66.99-1.32,1.98-2,3h-2c-.1.58-.21,1.15-.31,1.75-.8,2.63-1.82,4.24-3.69,6.25h-3c.27.56.54,1.11.81,1.69.06.76.12,1.53.19,2.31-1.15,1.15-2.31,2.29-3.52,3.38-3.52,3.86-6.48,9.39-6.48,14.62h-2l-1,2c-.66.99-1.32,1.98-2,3-5.17-.5-9.17-2.17-12-5-1.65-.71-3.32-1.38-5-2v-3h-3c-.19-4.95.47-8.62,2-11h2c.12-.64.25-1.28.38-1.94.21-.68.41-1.36.62-2.06.66-.33,1.32-.66,2-1,1.83-3.26,3.38-6.62,4.99-10h2c.21-.64.43-1.27.64-1.93,3.06-6.82,7.59-12.79,11.49-19.15.79-1.37.75-3.01-.14-4.91h-2v-2c-1.65-.33-3.3-.66-5-1v-2c-.7-.1-1.41-.2-2.12-.31-3.27-.78-5.92-2.11-8.88-3.69v-2h-4c-.59-5.77,1.16-10.09,4-15,1.5-1.75,3.17-3.08,5-4,8.82-.15,15.4,4.54,22,10,1.32.69,2.65,1.36,4,2,2.78-4.95,5.51-9.9,8-15h2c.08-.58.17-1.15.25-1.75.97-2.9,2.5-4.2,4.75-6.25.54-.58,1.07-1.15,1.62-1.75.92-.83,2.05-1.25,3.38-1.25.88-2.27,2.01-5.05,3-7h2c.54-2.36,1.23-4.7,2-7-2.78-2.78-5.16-2.54-9-3-.72-.21-1.44-.41-2.19-.62-3.22-.67-5.69.58-8.69,1.75-3.51.98-5.59.57-9.12-.12-.68.21-1.36.41-2.06.62-2.95.57-4.49-1.08-6.94-2.62l-2,1v-2c-.57-.03-1.14-.05-1.72-.08-5.89-.43-9.29-1.82-14.28-4.92-1.07-.31-2.15-.62-3.25-.94-3.43-1.32-4.21-2.81-5.75-6.06l-1,2c-.33-.99-.66-1.98-1-3-.66-.33-1.32-.66-2-1v-4c-.52-.08-1.03-.16-1.56-.25-5.05-1.55-8.91-4.17-12.62-7.81-3.87-3.49-8.03-4.29-13.04-5.3-4.41-1.02-6.22-1.82-8.77-5.64h-2c-1.35-1.99-2.69-3.99-4-6-.66-.33-1.32-.66-2-1-1.88-3.03-2-4.25-2-8-.5-.47-.99-.95-1.5-1.44-1-1.04-1.56-2.46-1.69-4.25.06-.76.12-1.53.19-2.31-.66-.33-1.32-.66-2-1l1-1c-.41-1.99-.97-3.9-1.56-5.84-.95-5.36.63-10.66,1.01-16.05.73-4.03,1.68-6.24,4.56-9.12h2l2-4h2c.27-.73.55-1.45.83-2.2,3.57-9.04,10.2-16.25,15.42-24.3.58-.83,1.15-1.65,1.75-2.5h2c.14-2.76-.19-5.43-1-8,.78-3.14,1.55-6.1,3-9h2l2-5h2v-2C48.92,9.74,63.04-.65,75.87.1v-.04ZM81.88,5.06c.33.99.66,1.98,1,3v-3h-1ZM69.88,17.06v2h-3v2c-.89.29-1.77.58-2.69.88-4.26,1.27-8.03,3.31-11.31,6.12v3l-3,2v2c.66.33,1.32.66,2,1-.33,1.65-.66,3.3-1,5h2c.33.99.66,1.98,1,3,3.1-.32,6.1-.99,9-2v-2h2c2.04-2.91,3-4.4,3-8h2c1.75-4.49,2.37-8.18,2-13-.66-.66-1.32-1.32-2-2ZM49.88,37.06l1,2-1-2ZM7.88,76.06l1,2-1-2ZM291.88,79.06v3c-.99-.33-1.98-.66-3-1-.33.99-.66,1.98-1,3-.99-.33-1.98-.66-3-1-1.32,3.62-2,6.1-2,10,3.08,2.11,6.41,3.45,10,4h3c-.33-.74-.66-1.49-1-2.25-1.61-4.44-1.49-9.29,0-13.75-.33-.66-.66-1.32-1-2h-2ZM329.88,77.06c-1.68.62-3.35,1.29-5,2l-4,1c-.66,2.97-1.32,5.94-2,9,5.73.46,8.55-.34,13-4,1.55-1.74,2.88-3.41,4-5l-6-3ZM296.88,80.06l1,2-1-2ZM280.88,87.06l2,2v-2h-2ZM17.88,91.06c-1.98,4.13.07,8.59.44,12.94.19.68.37,1.36.56,2.06.66.33,1.32.66,2,1,.31.99.62,1.98.94,3,.35.99.7,1.98,1.06,3,.99.33,1.98.66,3,1,.99-.66,1.98-1.32,3-2,.32-3.1,0-5.02-1-8h-2v-4h-2c.1-.74.21-1.49.31-2.25-.03-1.99-.94-3.68-2.75-5.06-1.46-1.19-2.65-1.75-3.56-1.69ZM283.88,95.06l1,2-1-2ZM25.88,114.06v3c.66-.66,1.32-1.32,2-2-.66-.33-1.32-.66-2-1ZM232.88,117.06c-.33.99-.66,1.98-1,3-.97.45-1.94.91-2.94,1.38-2.16.9-3.64,2.34-4.44,4.31-.21.76-.41,1.53-.62,2.31h-2c-.33.99-.66,1.98-1,3,1.58,2.37,2.98,4.07,5,6-.99.33-1.98.66-3,1,.99.66,1.98,1.32,3,2l2-1v-2c.99-.33,1.98-.66,3-1,3.26-4.14,6.41-8.71,6.38-14.12-.12-.95-.25-1.9-.38-2.88l-4-2ZM221.88,135.06l1,2-1-2ZM143.88,142.06l1,2-1-2ZM77.88,148.06l-1,2c3.84,1.95,7.84,2.61,12,2l-2-1-1-2h-3c-1.67-.31-3.34-.64-5-1ZM130.88,149.06l1,2-1-2ZM52.88,151.06l1,2-1-2ZM153.88,153.06c-.33.99-.66,1.98-1,3,1.32-.33,2.64-.66,4-1-.33,1.65-.66,3.3-1,5h2v3c3.38-1.19,5.65-2.28,8-5-3.88-3.65-6.71-4.59-12-5ZM61.88,159.06l2,2v-2h-2ZM300.88,176.06c-2.04,2.55-4.09,5.12-6.19,7.63-1.31,1.55-2.25,3.34-2.81,5.38h-3c-.66.33-1.33.66-2,1-2.33.04-4.67.04-7,0-.27-.6-.54-1.2-.81-1.81-1.2-2.21-2.23-3.62-4.19-5.19h-3v2h-3c-.35,4.83.37,7.32,3.06,11.31.64.95,1.28,1.89,1.93,2.87,4.29,6.02,8.61,11.73,14,16.82l3,3c2.39-1.2,3.18-2.41,4.75-4.56,1.07-1.47,2.17-2.95,3.25-4.44,1.53-2.02,3.07-4.03,4.61-6.04,4.16-5.45,5.46-10.82,6.26-17.58.14-3.5-.09-5.38-1.86-8.38-2.36-.92-4.69-1.59-7-2h0ZM134.88,183.06c-1.46,2.65-2,3.89-2,7-.99.33-1.98.66-3,1l2,2c3.25-2.83,4.52-4.69,5-9-.66-.33-1.32-.66-2-1ZM115.88,188.06l1,2-1-2ZM283.88,188.06l1,2-1-2ZM184.88,210.06l1,2,1-2h-2ZM191.88,247.06l1,2-1-2ZM190.88,252.06c-.66,2.31-1.32,4.62-2,7,.99.33,1.98.66,3,1,.33-2.64.66-5.28,1-8h-2ZM173.88,253.06l1,2-1-2ZM172.88,267.06v3l2-2c-.66-.33-1.32-.66-2-1ZM81.88,276.06l1,2-1-2ZM198.88,315.06l1,2-1-2ZM234.88,328.06l1,2h2v-2h-3ZM208.88,352.06l1,2-1-2Z"/>
                                    <path class="cls-1" d="M75.88.06v2c2.49.69,4.38,1,7,1v2c.76.14,1.53.29,2.31.44,3.67,2.14,4.03,4.42,5.21,8.37.6,2.76.48,5.37.48,8.19l-2,2c-.45,1.93-.83,3.97-1.12,6.12-.31,1.94-.6,3.9-.88,5.87h-2c-.29.91-.58,1.81-.88,2.75-1.69,4.89-3.34,7.69-7.12,11.25-2.36,2.29-4.16,4.25-6,7-.66.33-1.33.66-2,1l-2-1c-.33.66-.66,1.33-1,2-2.86,2.09-4.13,1.99-7.75,1.62-1.07-.21-2.15-.41-3.25-.62v2h-2c-1.3,2.6-2.74,5.44-4,8.06-1.94,3.77-3.85,7.06-7,9.94-.66.66-1.32,1.32-2,2-.66.33-1.33.67-2,1,.29.68.58,1.36.88,2.06.75,1.96,1.45,4.15,2.12,6.56.57,2.31,1.57,4.43,3,6.38,2.05,6.38,3.16,12.3,3,19,.51.25,1.03.5,1.56.75,5.06,2.59,9.11,4.86,13.12,8.88,5.52,4.99,11.94,5.14,19.11,5.53,7.3.43,13.86,2.07,20.21,5.85.79,1.4,1.45,2.73,2,4,1.65.7,3.32,1.37,5,2,.66.99,1.32,1.98,2,3,2.48.74,4.78,1.29,7.31,1.75,4.36.93,8.4,1.79,12.68.25,1.43-.99,2.79-2.12,4.06-3.38,4.7-4.37,8.26-6.64,10.69-6.81.74.06,1.49.12,2.25.19v-2c6.32-.94,10.95-1.1,17,1h3v2c1.09.12,2.19.25,3.31.38,2.46.41,4.69,1.29,6.69,2.62-1.45,3.83-3.38,5.19-7,7h-2v2c-3.43,2.73-6.22,3.98-8.38,3.75-.53-.25-1.07-.5-1.62-.75v-2c-.99.66-1.98,1.32-3,2h2c.33,2.64.66,5.28,1,8,1.45-.87,2.89-1.71,4.38-2.56.81-.48,1.62-.95,2.46-1.44.71-.33,1.43-.66,2.16-1l2,1v5l-2-1c2.96.61,4.38,1.25,7,3,2.54-1.84,4.83-3.72,7-6,1.29.46,2.63,1.13,4,2,.5,1.75.83,3.41,1,5-2.67.67-5.33,1.33-8,2-.33,1.32-.66,2.64-1,4l-2-1v2c-1.65.66-3.31,1.33-5,2v2c-2.31.33-4.62.66-7,1-.33.99-.66,1.98-1,3h-5c-1.4,2.49-2.16,4.64-2.88,7.44-1.17,3.69-2.58,5.69-5.12,8.56l-1,2h-2l1,4c-2.65,1.46-3.89,2-7,2v2c-2,.67-4,1-6,1-1.34.65-2.67,1.32-4,2-1.32.37-2.66.71-4,1v3c-.99.66-1.98,1.32-3,2-.8,1.7-1.47,3.37-2,5h-2c-.33,1.65-.66,3.3-1,5,.83.45,1.65.91,2.5,1.38.83.54,1.65,1.07,2.5,1.62v2c.56.13,1.12.25,1.69.38,3.68.99,6.59,1.9,9.31,4.62h2c1.1,1.91,2.13,3.83,3.22,5.76,1,2.89.69,4.33-.22,7.24-1.86,3.79-3.98,7.04-7,10-3.22,1.04-5.75.87-9,0-1.59-.87-2.92-1.87-4-3-.58-.52-1.15-1.03-1.75-1.56-.83-.96-1.25-2.11-1.25-3.44-.99.33-1.98.66-3,1v-2h-2l-2-2c-1.65-.71-3.32-1.38-5-2-.1.58-.21,1.15-.31,1.75-.79,2.6-1.99,4.15-3.69,6.25-.66.99-1.32,1.98-2,3h-2c-.1.58-.21,1.15-.31,1.75-.8,2.63-1.82,4.24-3.69,6.25h-3c.27.56.54,1.11.81,1.69.06.76.12,1.53.19,2.31-1.15,1.15-2.31,2.29-3.52,3.38-3.52,3.86-6.48,9.39-6.48,14.62h-2l-1,2c-.66.99-1.32,1.98-2,3-5.17-.5-9.17-2.17-12-5-1.65-.71-3.32-1.38-5-2v-3h-3c-.19-4.95.47-8.62,2-11h2c.12-.64.25-1.28.38-1.94.21-.68.41-1.36.62-2.06.66-.33,1.32-.66,2-1,1.83-3.26,3.38-6.62,4.99-10h2c.21-.64.43-1.27.64-1.93,3.06-6.82,7.59-12.79,11.49-19.15.79-1.37.75-3.01-.14-4.91h-2v-2c-1.65-.33-3.3-.66-5-1v-2c-.7-.1-1.41-.2-2.12-.31-3.27-.78-5.92-2.11-8.88-3.69v-2h-4c-.59-5.77,1.16-10.09,4-15,1.5-1.75,3.17-3.08,5-4,8.82-.15,15.4,4.54,22,10,1.32.69,2.65,1.36,4,2,2.78-4.95,5.51-9.9,8-15h2c.08-.58.17-1.15.25-1.75.97-2.9,2.5-4.2,4.75-6.25.54-.58,1.07-1.15,1.62-1.75.92-.83,2.05-1.25,3.38-1.25.88-2.27,2.01-5.05,3-7h2c.54-2.36,1.23-4.7,2-7-2.78-2.78-5.16-2.54-9-3-.72-.21-1.44-.41-2.19-.62-3.22-.67-5.69.58-8.69,1.75-3.51.98-5.59.57-9.12-.12-.68.21-1.36.41-2.06.62-2.95.57-4.49-1.08-6.94-2.62l-2,1v-2c-.57-.03-1.14-.05-1.72-.08-5.89-.43-9.29-1.82-14.28-4.92-1.07-.31-2.15-.62-3.25-.94-3.43-1.32-4.21-2.81-5.75-6.06l-1,2c-.33-.99-.66-1.98-1-3-.66-.33-1.32-.66-2-1v-4c-.52-.08-1.03-.16-1.56-.25-5.05-1.55-8.91-4.17-12.62-7.81-3.87-3.49-8.03-4.29-13.04-5.3-4.41-1.02-6.22-1.82-8.77-5.64h-2c-1.35-1.99-2.69-3.99-4-6-.66-.33-1.32-.66-2-1-1.88-3.03-2-4.25-2-8-.5-.47-.99-.95-1.5-1.44-1-1.04-1.56-2.46-1.69-4.25.06-.76.12-1.53.19-2.31-.66-.33-1.32-.66-2-1l1-1c-.41-1.99-.97-3.9-1.56-5.84-.95-5.36.63-10.66,1.01-16.05.73-4.03,1.68-6.24,4.56-9.12h2l2-4h2c.27-.73.55-1.45.83-2.2,3.57-9.04,10.2-16.25,15.42-24.3.58-.83,1.15-1.65,1.75-2.5h2c.14-2.76-.19-5.43-1-8,.78-3.14,1.55-6.1,3-9h2l2-5h2v-2C48.92,9.71,63.04-.68,75.87.07h.01ZM81.88,5.06c.33.99.66,1.98,1,3v-3h-1ZM69.88,17.06v2h-3v2c-.89.29-1.77.58-2.69.88-4.26,1.27-8.03,3.31-11.31,6.12v3l-3,2v2c.66.33,1.32.66,2,1-.33,1.65-.66,3.3-1,5h2c.33.99.66,1.98,1,3,3.1-.32,6.1-.99,9-2v-2h2c2.04-2.91,3-4.4,3-8h2c1.75-4.49,2.37-8.18,2-13-.66-.66-1.32-1.32-2-2ZM49.88,37.06l1,2-1-2ZM7.88,76.06l1,2-1-2ZM17.88,91.06c-1.98,4.13.07,8.59.44,12.94.19.68.37,1.36.56,2.06.66.33,1.32.66,2,1,.31.99.62,1.98.94,3,.35.99.7,1.98,1.06,3,.99.33,1.98.66,3,1,.99-.66,1.98-1.32,3-2,.32-3.1,0-5.02-1-8h-2v-4h-2c.1-.74.21-1.49.31-2.25-.03-1.99-.94-3.68-2.75-5.06-1.46-1.19-2.65-1.75-3.56-1.69ZM25.88,114.06v3c.66-.66,1.32-1.32,2-2-.66-.33-1.32-.66-2-1ZM143.88,142.06l1,2-1-2ZM77.88,148.06l-1,2c3.84,1.95,7.84,2.61,12,2l-2-1-1-2h-3c-1.67-.31-3.34-.64-5-1ZM130.88,149.06l1,2-1-2ZM52.88,151.06l1,2-1-2ZM61.88,159.06l2,2v-2h-2ZM134.88,183.06c-1.46,2.65-2,3.89-2,7-.99.33-1.98.66-3,1l2,2c3.25-2.83,4.52-4.69,5-9-.66-.33-1.32-.66-2-1ZM115.88,188.06l1,2-1-2ZM81.88,276.06l1,2-1-2Z"/>
                                    <path class="cls-2" d="M238.88,101.06c-.61,4.15-2.1,7.29-4,11-.46,1.49-.79,2.83-1,4h2c-.67,2-1.58,3.32-2.74,3.96-.7.28-1.41.56-2.13.86-4.16,1.92-5.43,3.87-7.12,8.19l-2,2c.64.41,1.28.83,1.94,1.25,2.27,1.93,2.66,2.86,3.06,5.75h-3l4,1v-2c.76-.74,1.53-1.49,2.31-2.25,5.01-5.13,6.09-9.85,6.69-16.75h2v3c.6-.17,1.2-.33,1.81-.5,1.46-.33,3.19-.5,5.19-.5l1-2,2,1c.27-.95.54-1.9.81-2.88.79-2.08,2.19-3.79,4.19-5.12.39,2.88.83,6.79,1.63,9.13.5,2.49-.02,4.44-.62,6.88h-2c.04.95.08,1.9.12,2.88-.08,2.08-.79,3.79-2.12,5.12-2.64,5.39-4.9,9.56-10,13,.33.66.66,1.32,1,2-1.98.33-3.96.66-6,1v2c-2.31,1.32-4.62,2.64-7,4v2c-2.57.21-5.13.44-7.72.68-1.5.05-2.6.49-3.29,1.32-3.23.17-5.89-.2-9-1h-4c-.05,2.84-.05,5.65-.1,8.5-.13,1.63.24,2.79,1.1,3.5v6c.3,1.67.63,3.34,1,5v2c.35.97.7,1.94,1.06,2.94.63,2.04.61,4.06-.06,6.06l2,2c.82,4.01,1.21,7.08,0,11l1,1c.07,3.11,0,6.2-.06,9.31-.17,1.74.19,2.97,1.06,3.69.28,6.48.06,12.93.13,19.43-.13,2.62-.59,5.01-1.13,7.57-.13,4.35-.05,8.64.01,13h-2c.02,1.94.35,3.94,1,6,1.9,1.17,3.9,2.17,6,3,3.42,2.53,4.58,6.08,6,10,.13,1.96.13,3.63,0,5-.99.33-1.98.66-3,1-.38,1.32-.7,2.66-1,4-.96,1.83-1.96,3.5-3,5h-2c-.99.66-1.98,1.32-3,2,1.8,7.56,3.86,14.98,6.23,22.38.51,1.75.77,3.29.77,4.62,4.94-2.14,11.31-3.39,14-2,3.8,1.92,6.47,3.59,8,5v4l-2,2h-3c-.66,2.64-1.33,5.31-2,8,1.32.33,2.64.66,4,1v4c.76-.02,1.53-.04,2.31-.06,1.79.04,3.69.39,5.69,1.06-1.25,3.65-1.67,4.78-5,7l-2,2c-1.92,1.19-3.94,2.2-5.93,3.3-2.46.84-3.62.4-6.07-.29-.47.49-.95.99-1.44,1.5-.52.49-1.03.99-1.56,1.5-1.5-.21-3.17-.54-5-1-2.33-.04-4.67-.05-7,0-.33-.99-.67-1.99-1-3l-2-2c-1.22-3.18-2-5.58-2-9-.19-.68-.37-1.36-.56-2.06-.29-1.29-.11-2.61.56-3.94-.99-.33-1.98-.66-3-1-.93-7.01-2.31-13.48-5-20-.88-2.36-1.69-4.74-2.55-7.12-.3-1.25-.12-2.55.55-3.88-.66-.33-1.32-.66-2-1,.33-.99.66-1.98,1-3-3.66-1.12-6.86-1.99-10.69-2.38-3.79-.71-4.84-1.79-7.31-4.62h-2c-1.95-2.92-2.45-4.63-3-8l-1,2c-.95-4.18-1.21-6.31,1-10,.36-1.33.7-2.66,1-4,.33-.99.66-1.98,1-3-2.53-6.28-2.88-11.83,0-18l-1-2c2.18-7.89,4.87-16.03,7-24h2c-.23-.66-.45-1.32-.69-2-.36-3.49.61-5.65,1.93-8.85,1.01-2.85,1.26-5.55,1.51-8.55.3-3.14.81-6.23,1.31-9.35.87-5.89,1.08-11.56.91-17.51.02-2.47.38-4.38,1.03-6.74-.72-2.62-.99-4.38-.88-7.94.06-3.79-.68-6.05-3.12-9.06h-2c-.99,1.33-1.99,2.66-3,4h-2c-.99.66-1.99,1.33-3,2v-2h-8c.33-1.65.66-3.3,1-5l2,2c-.45-2.07-1.47-3.47-3.06-4.19-.64-.27-1.28-.54-1.94-.81.54-1.29,1.21-2.63,2-4,.99-.33,1.99-.66,3-1v-2c10.76-6.25,21.67-11.85,33-17v-2h2c.1-.73.21-1.45.32-2.2.88-3.92,3.02-6.7,5.21-10,.49-.59.97-1.18,1.47-1.79h2v-3h2c.23-.59.47-1.17.71-1.77,2.95-5.08,9.49-8.94,15.04-10.66,3.16-.55,6.05-.72,9.25-.56l-.02-.05ZM221.88,135.06l1,2-1-2ZM184.88,210.06l1,2,1-2h-2ZM191.88,247.06l1,2-1-2ZM190.88,252.06c-.66,2.31-1.32,4.62-2,7,.99.33,1.98.66,3,1,.33-2.64.66-5.28,1-8h-2ZM173.88,253.06l1,2-1-2ZM172.88,267.06v3l2-2c-.66-.33-1.32-.66-2-1ZM198.88,315.06l1,2-1-2ZM234.88,328.06c.33.66.66,1.32,1,2h2v-2h-3ZM208.88,352.06l1,2-1-2Z"/>
                                    <path class="cls-2" d="M112.88,189.06l1,2-1,2c.99-.66,1.98-1.32,3-2,.99.33,1.98.66,3,1-.66,1.65-1.32,3.3-2,5h4l1,2c2.31-1.98,4.62-3.96,7-6,1.65,1.32,3.3,2.64,5,4-.82,6.87-3.06,11.23-8,16v2l-3,2c-.8,1.7-1.47,3.37-2,5h-2c-.33,1.65-.66,3.3-1,5,.82.45,1.65.91,2.5,1.38.82.54,1.65,1.07,2.5,1.62v2c.56.13,1.12.25,1.69.38,3.68.99,6.59,1.9,9.31,4.62h2c1.1,1.91,2.13,3.83,3.22,5.76,1,2.89.69,4.33-.22,7.24-1.86,3.79-3.98,7.04-7,10-3.22,1.04-5.75.87-9,0-1.59-.87-2.92-1.87-4-3-.58-.52-1.16-1.03-1.75-1.56-.83-.96-1.25-2.11-1.25-3.44-.99.33-1.98.66-3,1v-2h-2l-2-2c-1.65-.71-3.32-1.38-5-2-.1.58-.21,1.15-.31,1.75-.79,2.6-1.99,4.15-3.69,6.25-.66.99-1.32,1.98-2,3h-2c-.1.58-.21,1.15-.31,1.75-.8,2.63-1.82,4.24-3.69,6.25h-3c.27.56.54,1.11.81,1.69.06.76.12,1.53.19,2.31-1.15,1.15-2.31,2.29-3.52,3.38-3.52,3.86-6.48,9.39-6.48,14.62h-2l-1,2c-.66.99-1.32,1.98-2,3-5.17-.5-9.17-2.17-12-5-1.65-.71-3.32-1.38-5-2v-3h-3c-.19-4.95.47-8.62,2-11h2c.13-.64.25-1.29.38-1.94.21-.68.41-1.36.62-2.06.66-.33,1.33-.67,2-1,1.83-3.26,3.38-6.62,4.99-10h2c.21-.64.43-1.27.64-1.93,3.06-6.82,7.59-12.79,11.49-19.15.79-1.37.75-3.01-.14-4.91h-2v-2c-1.65-.33-3.3-.66-5-1v-2c-.7-.1-1.4-.21-2.12-.31-3.27-.78-5.92-2.11-8.88-3.69v-2h-4c-.59-5.77,1.16-10.09,4-15,1.5-1.75,3.17-3.08,5-4,8.82-.15,15.4,4.54,22,10,1.32.69,2.65,1.36,4,2,2.78-4.95,5.51-9.9,8-15h2c.08-.58.16-1.16.25-1.75.98-2.95,2.37-4.28,4.75-6.25,1.5-.5,2.83-.83,4-1h.02ZM81.88,276.06l1,2-1-2Z"/>
                                    <path class="cls-2" d="M287.88,137.06c3.98,3.41,5.86,7.46,7.84,12.23,1.38,3.26,2.58,6.6,4.16,9.77l3,1c.33-.33.66-.67,1-1,3.68-.3,5.81.21,9,2,2.9,1.08,5.05,2,8,4v2h2c3.72,7.51,4.46,13.68,4,22v3c-.33.66-.66,1.33-1,2-.13.7-.25,1.41-.38,2.12-1.35,6.21-3.1,10.36-5.23,12.43-1.17.98-1.63,2.46-1.4,4.45h-2c-.27,1.13-.54,2.27-.81,3.44-.39,1.18-.78,2.35-1.19,3.56-.99.33-1.98.66-3,1-.49,1.35-.82,2.68-1,4h-2c-.33.99-.67,1.99-1,3-1.24,3.71-2.97,4.65-6,7-.33.66-.66,1.32-1,2-2.75.55-6.07.75-8.99,1-.33.99-.66,1.99-1,3l-2-2c-.6.23-1.2.45-1.81.69-.72.1-1.44.21-2.19.31-1.83-1.54-3.5-3.21-5-5v-2c-.99-.33-1.99-.67-3-1-.33-.66-.66-1.33-1-2-.62-.27-1.25-.54-1.88-.81-2.77-1.55-3.59-3.47-5.12-6.19-.66-.33-1.32-.66-2-1v-3h-2v-2c-.66-.33-1.32-.66-2-1-.41-1.37-.75-2.71-1-4h-2c-.33-.99-.66-1.98-1-3l-2-2c-1.15-2.43-2.08-4.89-3.1-7.39-.87-2.53-1.39-4.99-1.9-7.61l-1-1c-1.06-7.63.75-12.71,5-19h2v-2h2c.33-.99.66-1.98,1-3,4.53-1.83,9.3-2.52,14-1,0-4.58-.93-8.03-3.12-12.06-1.09-2.41-1.02-4.32-.88-6.94l-2-1v-5l2-1v2l3,1v3h3c.33-.99.66-1.98,1-3,2.64-.33,5.28-.66,8-1,.66-1.65,1.32-3.3,2-5h0ZM300.88,176.06c-2.04,2.55-4.09,5.12-6.19,7.63-1.31,1.55-2.25,3.34-2.81,5.38h-3c-.66.33-1.33.66-2,1-2.33.04-4.67.04-7,0-.27-.6-.54-1.2-.81-1.81-1.2-2.21-2.23-3.62-4.19-5.19h-3v2h-3c-.35,4.83.37,7.32,3.06,11.31.64.95,1.28,1.89,1.93,2.87,4.29,6.02,8.61,11.73,14,16.82l3,3c2.39-1.2,3.18-2.41,4.75-4.56,1.07-1.47,2.17-2.95,3.25-4.44,1.53-2.02,3.07-4.03,4.61-6.04,4.16-5.45,5.46-10.82,6.26-17.58.14-3.5-.09-5.38-1.86-8.38-2.36-.92-4.69-1.59-7-2h0ZM283.88,188.06l1,2-1-2Z"/>
                                    <path class="cls-1" d="M166.88,138.06v2c1.09.12,2.19.25,3.31.38,2.46.41,4.69,1.29,6.69,2.62-1.45,3.83-3.38,5.19-7,7h-2v2c-3.43,2.73-6.22,3.98-8.38,3.75-.54-.25-1.07-.5-1.62-.75v-2l-3,2h2l1,8c1.45-.87,2.89-1.71,4.38-2.56.81-.48,1.62-.95,2.46-1.44.71-.33,1.43-.66,2.16-1l2,1v5l-2-1c2.96.61,4.38,1.25,7,3,2.54-1.84,4.83-3.72,7-6,1.29.46,2.63,1.13,4,2,.5,1.75.83,3.41,1,5l-8,2-1,4-2-1v2c-1.65.66-3.3,1.32-5,2v2c-2.31.33-4.65.66-7,1-.33.99-.66,1.98-1,3h-5c-1.4,2.49-2.16,4.64-2.88,7.44-1.17,3.69-2.58,5.69-5.12,8.56l-1,2h-2l1,4c-2.65,1.46-3.89,2-7,2v2c-2,.67-4,1-6,1-.68.35-1.36.7-2.06,1.06-.64.31-1.28.62-1.94.94-.66-.33-1.33-.67-2-1,1.09-2.26,2.23-4.37,3.56-6.5,1.29-2.24,1.97-3.98,2.44-6.5-.99-.33-1.98-.66-3-1l-1-2c-2.13,1.86-5.52,5.19-8,5l-1,2-2-4h-2c-.67-2-1-3.67-1-5-.99.33-1.99.66-3,1v-3c-.66.33-1.33.66-2,1l1-4h2c.88-2.27,2.01-5.05,3-7h2c.54-2.36,1.23-4.7,2-7-2.8-2.8-5.1-2.51-9-3-3.47-.69-6.86-1.58-10.31-2.37-5.12-1.26-8.03-2.97-11.7-6.64.5-.43.99-.87,1.5-1.31,1.22-1.12,1.72-2.68,1.5-4.69-.99.33-1.98.66-3,1l2,2-4,1c-.69-2.49-1-4.38-1-7,2.63-1.85,4.95-2.98,8-4l1-2,2,2c1.66.35,3.33.68,5,1,3.02.94,6.01,1.96,9,3-.33-1.32-.66-2.64-1-4,1.22.23,2.44.45,3.69.68,5.73,1.18,11.35,1.19,16.85.03,1.68-1.81,3.06-3.68,4.46-5.71,3.81-2.97,6.12-4.57,11-4v-2c7.02-1.32,13-.53,20,1h0ZM143.88,142.06l1,2-1-2ZM130.88,149.06l1,2-1-2ZM134.88,183.06c-1.46,2.65-2,3.89-2,7-.99.33-1.98.66-3,1l2,2c3.25-2.83,4.52-4.69,5-9-.66-.33-1.32-.66-2-1ZM115.88,188.06l1,2-1-2Z"/>
                                    <path class="cls-1" d="M189.88,262.06c1.04,3.19.92,5.21.06,8.44-.81,3.28-1.28,6.16-1.06,9.56h-2v2c5.18.93,10.18.6,15-1,2.82-4.35,4.9-8.93,6-14,4.84,1.12,7.96,1.98,11,6,2.1,4.13,3.42,7.34,3,12l-3,1c-.38,1.32-.7,2.66-1,4-.96,1.83-1.96,3.5-3,5h-2l-3,2c1.8,7.56,3.86,14.98,6.23,22.38.51,1.75.77,3.29.77,4.62,4.94-2.14,11.31-3.39,14-2,3.8,1.92,6.47,3.59,8,5v4l-2,2h-3l-2,8c1.32.33,2.65.67,4,1v4c.76-.02,1.53-.04,2.31-.06,1.79.04,3.69.39,5.69,1.06-1.25,3.65-1.67,4.78-5,7l-2,2c-1.92,1.19-3.94,2.21-5.93,3.3-2.46.84-3.62.4-6.07-.29-.47.5-.95.99-1.44,1.5-.52.5-1.03.99-1.56,1.5-1.5-.21-3.17-.54-5-1-2.33-.04-4.67-.05-7,0-.33-.99-.66-1.98-1-3l-2-2c-1.22-3.18-2-5.58-2-9-.19-.68-.37-1.37-.56-2.06-.29-1.29-.11-2.61.56-3.94-.99-.33-1.98-.66-3-1-.93-7.01-2.31-13.48-5-20-.88-2.37-1.69-4.73-2.55-7.12-.3-1.25-.12-2.55.55-3.88-.66-.33-1.32-.66-2-1,.33-.99.66-1.98,1-3-3.66-1.12-6.86-1.99-10.69-2.38-3.79-.71-4.84-1.79-7.31-4.62h-2c-1.95-2.92-2.45-4.63-3-8l-1,2c-.95-4.18-1.21-6.31,1-10,.61-2.85,1.55-5.47,3-8h2c.67-1.34,1.31-2.64,2-4,.45-1.01.91-2.02,1.38-3.06,2.81-5.07,4.94-6.67,10.62-4.94h0ZM198.88,315.06l1,2-1-2ZM234.88,328.06l1,2h2v-2h-3ZM208.88,352.06l1,2-1-2Z"/>
                                    <path class="cls-1" d="M238.88,101.06c-.61,4.15-2.1,7.29-4,11-.46,1.49-.79,2.83-1,4h2c-.67,2-1.58,3.32-2.74,3.96-.7.28-1.41.56-2.13.86-4.16,1.92-5.43,3.87-7.12,8.19l-2,2c.64.41,1.28.83,1.94,1.25,2.27,1.93,2.66,2.86,3.06,5.75h-3l4,1v-2c.76-.74,1.53-1.49,2.31-2.25,5.01-5.13,6.09-9.85,6.69-16.75h2v3c.6-.17,1.2-.33,1.81-.5,1.46-.33,3.19-.5,5.19-.5l1-2,2,1c.27-.95.54-1.9.81-2.88.79-2.08,2.19-3.79,4.19-5.12.39,2.88.83,6.79,1.63,9.13.5,2.49-.02,4.44-.62,6.88h-2c.04.95.08,1.9.12,2.88-.08,2.08-.79,3.79-2.12,5.12-2.64,5.39-4.9,9.56-10,13,.33.66.66,1.32,1,2-1.98.33-3.96.66-6,1v2c-2.31,1.32-4.62,2.64-7,4v2c-2.57.21-5.13.44-7.72.68-1.5.05-2.6.49-3.29,1.32-2.47.13-4.55.13-6.94-.56-2.85-.6-5.24-.02-8.06.56-2-3.08-3-5.75-3-8l-4-1c-.33.99-.66,1.98-1,3-1.33,1.33-3.04,2.04-5.12,2.12-.95-.04-1.9-.08-2.88-.12-.33.99-.66,1.98-1,3-.76.08-1.53.17-2.31.25-3.24.9-3.85,2.04-5.69,4.75h-2c-.99.66-1.99,1.33-3,2v-2h-8c.33-1.65.66-3.3,1-5l2,2c-.45-2.07-1.47-3.47-3.06-4.19-.64-.27-1.28-.54-1.94-.81.54-1.29,1.21-2.63,2-4,.99-.33,1.99-.66,3-1v-2c10.76-6.25,21.67-11.85,33-17v-2h2c.1-.73.21-1.45.32-2.2.88-3.92,3.02-6.7,5.21-10,.49-.59.97-1.18,1.47-1.79h2v-3h2c.23-.59.47-1.17.71-1.77,2.95-5.08,9.49-8.94,15.04-10.66,3.16-.55,6.05-.72,9.25-.56v-.04ZM221.88,135.06l1,2-1-2Z"/>
                                    <path class="cls-1" d="M276.88,83.06h3v2c1.65.66,3.31,1.33,5,2-.66,1.65-1.32,3.3-2,5,2.05,1.02,4.13,2.07,6.13,3.19.62.27,1.25.54,1.88.81l2-1v2h5c.31,2.22.58,4.41.88,6.64.12,2.38-.27,4.08-.88,6.36.33,1.25.77,2.81,1,4l-2,2c-.38,2.33-.71,4.66-1,7-.33.99-.66,1.98-1,3h-2v5h-2v4c-.66.99-1.32,1.98-2,3-.41.68-.83,1.37-1.25,2.06-2.31,2.56-4.45,3.1-7.75,3.94h-2c-.33.66-.67,1.33-1,2h-3c-.33-.99-.66-1.98-1-3-.66-.33-1.33-.66-2-1v-2h-2c-1.49-4.34-.5-6.9,1.17-10.95,1.7-4.21,2.77-8.65,3.83-13.05-.99-.33-1.98-.66-3-1-2.46,1.46-3.88,2.83-5.5,5.19-.49.6-.99,1.2-1.5,1.81h-4c-1.11,1.27-2.11,2.6-3,4-.66.33-1.33.66-2,1,.21-1.11.41-2.23.62-3.38.12-1.2.25-2.39.38-3.62l-2-2c-.08-1.75-.08-3.41,0-5-1.91,1.81-3.58,3.81-5,6l-3,3-2-1c-.33.66-.66,1.32-1,2v-3c-1.32.33-2.65.66-4,1v-3c-.99.33-1.99.66-3,1v-3h-2c.38-8.87,5.63-15.15,12-21,.54-.6,1.07-1.2,1.62-1.81.92-.79,2.38-1.19,4.38-1.19.33-.99.66-1.98,1-3,7.35-3.87,16.85-6.43,25-4l-1-1v-1h-.01ZM280.88,87.06l2,2v-2h-2ZM283.88,95.06l1,2-1-2Z"/>
                                    <path class="cls-2" d="M75.88.06v2c2.49.69,4.38,1,7,1v2c.76.14,1.53.29,2.31.44,3.67,2.14,4.03,4.42,5.21,8.37.6,2.76.48,5.37.48,8.19l-2,2c-.45,1.93-.83,3.97-1.12,6.12-.31,1.94-.6,3.9-.88,5.87h-2c-.29.91-.58,1.82-.88,2.75-1.69,4.89-3.34,7.69-7.12,11.25-2.36,2.29-4.16,4.25-6,7-.66.33-1.33.66-2,1-.66-.33-1.33-.66-2-1-.33.66-.66,1.33-1,2-2.86,2.09-4.13,1.99-7.75,1.62-1.07-.21-2.15-.41-3.25-.62v2c-3.3-.66-6.6-1.32-10-2,1.21-2.72,2.4-5.38,3.61-8.11,2.43-5.08,4.72-8.02,6.87-8.82,1.8-.26,3.61-.52,5.44-.82.69-.09,1.37-.17,2.08-.26v-2h2c.13-.58.25-1.16.38-1.75.63-2.27,1.51-4.18,2.62-6.25h2c.33-4.29.66-8.58,1-13h-4v2c-2.56.89-5.23,1.84-7,4-.64.27-1.28.54-1.94.81-2.72,1.56-3.57,3.48-5.06,6.19l-7,7c-.43-.47-.87-.95-1.31-1.44-1.14-1.2-2.7-2.05-4.69-2.56-2.04,1.62-4.04,3.29-6,5h-2c-1.36-5.58-.57-9.87,2-15h2l2-5h2v-2C48.93,9.68,63.05-.71,75.88.04v.02ZM81.88,5.06c.33.99.66,1.98,1,3v-3h-1Z"/>
                                    <path class="cls-1" d="M39.88,34.06l2,1,1-1,4,4c.66-.99,1.32-1.98,2-3,1.32.33,2.64.66,4,1-.21.58-.41,1.15-.62,1.75-.41,1.53-.18,2.94.69,4.25.63,1.33.69,2.71.19,4.12-.83,1.25-1.92,2.55-3.25,3.88-1.12,2.46-2.6,7.74-4,9,1.98.66,3.96,1.32,6,2-.5,3.73-.87,5.81-3,9-.33.66-.66,1.33-1,2-1.74,3.08-3.39,5.62-6,8-.66.66-1.32,1.32-2,2-1.32.7-2.65,1.37-4,2-1.86-2.17-3.81-4.51-7-4-.33.99-.66,1.98-1,3l-2,2c-1.04,2.32-2.04,4.65-3,7-.66-.99-1.32-1.98-2-3-.76.37-1.53.74-2.31,1.12-.89.29-1.77.58-2.69.88-2-1.33-3.23-3.04-3.69-5.12-.1-.95-.21-1.9-.31-2.88-1.32-.33-2.64-.66-4-1-.19-4.95.47-8.62,2-11h2c.27-.73.55-1.45.83-2.2,3.57-9.04,10.2-16.25,15.42-24.3.58-.83,1.16-1.66,1.75-2.5h2v-2c2.33-2.02,5.37-4.11,8-5.99h-.01ZM49.88,37.06l1,2-1-2Z"/>
                                    <path class="cls-2" d="M59.88,130.06c7.38.4,14.56.91,21.77,2.54,2.1.43,4.09.62,6.23.77,5.08.57,9.79,2.85,14,5.69.33.99.66,1.99,1,3,.76.29,1.53.58,2.31.88,3.37,1.41,4.7,3.1,6.69,6.12v3c-5.9-1.46-11.03-2.05-16.99-4-2.63,1-3.72,1.45-5,4-2.16-1.3-4.21-2.27-7-2h-4c.57.16,1.14.32,1.71.48,2.22.71,4.24,1.41,6.29,2.52.67,1.79,1,3.46,1,5,.87-.77,1.53-2.1,2-4l3,1v3l2,1-4,3c4.13,2.24,8.54,3.56,13,5v3c-4.54,1.84-7.24,1.93-12,1-.68.21-1.36.41-2.06.62-2.95.57-4.49-1.08-6.94-2.62-.66.33-1.33.66-2,1v-2c-.57-.03-1.14-.05-1.72-.08-5.89-.43-9.29-1.82-14.28-4.92-1.07-.31-2.14-.62-3.25-.94-3.43-1.32-4.21-2.81-5.75-6.06l-1,2-1-3c-.66-.33-1.32-.66-2-1,.33-.99.66-1.99,1-3,3.79,0,7.27.43,11,1l1-2,2-1,1-3c1.33-1.33,2.67-2.33,4-3l-2-2c-.3-2.03-.71-4.24-2.82-5.16-2.04-.83-4.38-1.78-6.19-2.84-.33-.99-.66-1.98-1-3h0ZM61.88,159.06l2,2v-2h-2Z"/>
                                    <path class="cls-2" d="M252.88,111.06c2.62,4.36,3.31,8.93,2.56,13.94-.19.68-.37,1.36-.56,2.06h-2c.04.95.08,1.9.12,2.88-.08,2.08-.79,3.79-2.12,5.12-2.65,5.39-4.9,9.56-10,13l1,2c-1.98.33-3.98.66-6,1v2c-2.31,1.32-4.65,2.65-7,4v2c-2.57.21-5.13.44-7.72.68-1.5.05-2.6.49-3.29,1.32-3.23.17-5.9-.17-9-1h-3v-3c-1.65-.66-3.3-1.32-5-2v-3c2.81-2,5.15-3,7-3v-2c2.02-.16,4.04-.33,6.05-.49,1.56-.26,2.88-1.43,3.95-3.51,1.33-.35,2.66-.69,4-1,1.34-.99,2.68-1.99,4-3h2v-2c.76-.74,1.53-1.49,2.31-2.25,5.01-5.13,6.09-9.85,6.69-16.75h2v3c.6-.16,1.2-.33,1.81-.5,1.46-.33,3.19-.5,5.19-.5.33-.66.66-1.32,1-2l2,1c.29-.95.58-1.9.88-2.88.75-2.08,1.79-3.79,3.12-5.12h.01Z"/>
                                    <path class="cls-2" d="M4.88,75.06c.99.33,1.98.66,3,1,.33,1.98.66,3.96,1,6,.99.33,1.98.66,3,1l2,6,3,1c1.46,3.88,2.06,7.38,2.38,11.5.52,5.52,2.67,9.54,6.62,13.5-.15,1.19-.4,2.5-.75,3.94-.83,5.62,1.51,9.09,4.4,13.78.9,1.53,1.35,2.96,1.35,4.29-2.22-.18-4.41-.4-6.64-.59-2.51-.44-4.21-1.06-6.36-2.41-.66-.99-1.32-1.98-2-3h-2c-1.35-1.99-2.69-3.99-4-6-.66-.33-1.32-.66-2-1-1.88-3.03-2-4.25-2-8-.5-.47-.99-.95-1.5-1.44-1-1.04-1.56-2.46-1.69-4.25.06-.76.12-1.53.19-2.31-.66-.33-1.32-.66-2-1l1-1c-.41-1.99-.97-3.9-1.56-5.84-.95-5.36.63-10.66,1.01-16.05.51-2.82,1.12-4.69,2.56-7.12l1-2h-.01Z"/>
                                    <path class="cls-2" d="M166.88,138.06v2c1.09.12,2.19.25,3.31.38,2.46.41,4.69,1.29,6.69,2.62-1.45,3.83-3.38,5.19-7,7h-2v2c-3.43,2.73-6.22,3.98-8.38,3.75-.54-.25-1.07-.5-1.62-.75v-2c-.78.35-1.57.7-2.38,1.06-.87.31-1.74.62-2.62.94l-2-1v2c-2.24-.31-4.48-.57-6.74-.88-1.62-.18-3.37.11-5.26.88-2.84.2-5.66.19-8.5.23-1.67-.15-3.17-.9-4.5-2.23,8.35-9.75,14.67-14.86,18.94-15.31.68.1,1.36.21,2.06.31v-2c7.02-1.32,13-.53,20,1h0ZM143.88,142.06l1,2-1-2ZM130.88,149.06l1,2-1-2Z"/>
                                    <path class="cls-2" d="M31.88,78.06c5.13,4.56,9.02,10.14,10,17l2,3c2.39,7.48,3.52,15.19,4,23l-2,2c-2.31-2.64-4.62-5.28-7-8-.66.33-1.33.66-2,1v-3l-1,2c-3.83-.5-6.5-1.5-8-3-.39-2.32-.72-4.66-1-7-.32-1.67-.65-3.34-1-5h-2v-5l-3-1v-2l-3-1,2-1,1-2,2,1,3-6h2c.1-.64.21-1.28.31-1.94.23-.68.45-1.36.69-2.06.99-.33,1.98-.66,3-1Z"/>
                                    <path class="cls-2" d="M166.88,158.06l2,1v5l-2-1c2.96.61,4.38,1.25,7,3,2.54-1.84,4.83-3.72,7-6,1.29.46,2.63,1.13,4,2,.5,1.75.83,3.41,1,5-2.67.67-5.33,1.33-8,2-.33,1.32-.66,2.64-1,4l-2-1v2c-1.65.66-3.3,1.32-5,2v2c-2.31.33-4.62.66-7,1l-1,3c-2.39-.11-5.07-.12-7.25.56-.58.14-1.15.29-1.75.44l-1-1-1,3c-3.22-.5-6.93-1.12-10-1-1.46-1.33-2.79-2.67-4-4,.66-.99,1.33-1.99,2-3h2l1-2c1.66-1.34,3.33-2.67,5-4,.8-.89,1.61-1.77,2.44-2.69,2.93-2.64,4.69-3.04,8.56-3.31v-2c2.28-1.35,4.54-2.65,6.84-4,.71-.33,1.43-.66,2.16-1h0Z"/>
                                    <path class="cls-2" d="M310.88,65.06c-.67,2-1.6,3.37-2.81,4.1-.72.32-1.44.64-2.19.96-2.1.84-3.77,2.15-5,3.94l-3,1c-.81,1.33-1.47,2.67-2,4h-4v3h-3l-1,2h-2l-1,2c-.8-.19-1.61-.37-2.44-.56-.85-.15-1.7-.29-2.56-.44l-1,1c-4.69-.23-9.3-1.03-14-1,.95-6.19,5.43-11.01,10-15h3v-2c3.01-1.29,5.96-2.52,8.98-3.81,8.56-3.38,15.64-2.84,24.02.81h0Z"/>
                                    <path class="cls-2" d="M238.88,101.06c-.61,4.15-2.1,7.29-4,11-.46,1.49-.79,2.83-1,4h2c-.67,2-1.58,3.32-2.74,3.96-.7.28-1.41.56-2.13.86-4.22,1.95-5.22,3.93-7.12,8.19-1.71,1.29-3.37,2.29-5,3-1.33-.67-2.33-1.33-3-2-1.32.19-2.74.49-4.25.88-1.57.37-3.16.75-4.75,1.13-1.67.34-3.33.68-5,1-.33-.66-.66-1.32-1-2h2c.1-.73.21-1.45.32-2.2.88-3.92,3.02-6.7,5.21-10,.49-.59.97-1.18,1.47-1.79h2v-3h2c.23-.59.47-1.17.71-1.77,2.95-5.08,9.49-8.94,15.04-10.66,3.16-.55,6.05-.72,9.25-.56v-.04Z"/>
                                    <path class="cls-2" d="M318.88,80.06l2,1c-.31,2.2-.57,4.42-.88,6.64-.16,1.56-.02,3.05.43,4.46.74,3.17-.97,5.21-2.55,7.9l-2,2v3c-2,1.33-4.33,2-7,2v2c-1.65.33-3.3.66-5,1v3c-1.98-.33-3.96-.66-6-1-1.22-3.65-.67-6.02-.06-9.75.07-2.64-.6-4.02-1.94-6.25l9-6-2-1c.33-.66.66-1.32,1-2h6c.33-.99.66-1.98,1-3,.76.08,1.53.16,2.31.25,1.89.03,3.39-.72,4.5-2.25.39-.66.78-1.32,1.19-2Z"/>
                                    <path class="cls-2" d="M274.88,97.06h3v2l2,1-2,2c.33.99.66,1.98,1,3-.63,1.35-1.3,2.68-2,4v3c-.66.33-1.33.66-2,1v3c-5.71-2.07-9.1-4.21-10.19-6.44.22-2.99.7-4.95,2.19-7.56,2.18-1.43,3.4-2,6-2,.66-.99,1.32-1.98,2-3Z"/></svg>