<svg id="silouicon" xmlns='http://www.w3.org/2000/svg' viewBox="-14 0 423.24 312.52" class="artisticon"><path class="cls-2" d="M357.2,97.52c-.93.17-1.86.33-2.81.5q-3.19.5-6.19.5-1.49.5-3,1c-.99-.33-1.98-.66-3-1q-1.49.99-3,2c-1.67-.3-3.34-.64-5-1q-2.1.4-4,1-3,0-5.5-.56t-5.5.56v-2c-.72.18-1.44.36-2.18.55-2.96.47-4.96.26-7.88-.36-.84-.17-1.67-.34-2.54-.52q-2.4-.67-4.51-1.73c-2.65-1.31-4.98-1.07-7.89-.93-.93,2.78-1.19,4.75-1.32,7.64-.04.91-.08,1.81-.13,2.75q-.06,1.42-.12,2.86c-.04.93-.09,1.86-.13,2.82q-.66,9.28.69,18.37c1.15,4.11,1.15,7.32,1,11.56h1q-.06,1.83-.12,3.69c0,3.62.62,5.99,2.12,9.31.44,1.48.86,2.97,1.28,4.46,1.72,5.8,4.03,11.26,6.47,16.79.44,1,.88,2,1.33,3.03,3.03,6.87,6.26,13.61,9.74,20.27q1.18,2.45,1.18,4.45h2c.08.78.17,1.57.25,2.38q.37,1.3.75,2.62c1.31.7,2.65,1.36,4,2,1.15.95,2.28,1.93,3.38,2.94,3.03,2.66,5.96,4.34,9.62,6.06,4.63,2.68,9.07,5.68,13.5,8.69.86.58,1.71,1.16,2.59,1.76.63.51,1.26,1.02,1.91,1.55v2c.6.1,1.2.21,1.81.31,2.52.79,3.38,1.81,5.19,3.69q2.1,1.18,4,2v2c.72.25,1.43.5,2.17.76,3.1,1.36,5.43,3.01,8.08,5.12q1.31,1.02,2.64,2.05c2.21,2.17,2.58,3.13,3.11,6.07q.96.46,1.94.94,2.06,1.06,3.25,3.38c1.54,5.1,2.22,7.74-.19,12.69h-3c.66.66,1.32,1.32,2,2l1,2h-5v5c-.99.33-1.98.66-3,1v2h-2v2h-3c-.47.66-.95,1.32-1.44,2-.52.66-1.03,1.32-1.56,2h-4v2c-2.65,1.46-3.89,2-7,2-.33.66-.66,1.32-1,2-.99.33-1.98.66-3,1-.66-.33-1.32-.66-2-1-.33.66-.66,1.32-1,2q-2.36.63-5.31,1.12c-.97.17-1.93.34-2.93.51q-2.76.37-6.76.37v2c-4.12.52-8.24,1.02-12.38,1.44-3.24.35-6.38.89-9.56,1.56-5,1.05-9.98,1.55-15.06,2-1.5.16-3,.33-4.5.5-4,.45-8,.85-12,1.24-1.69.17-3.38.37-5.06.58-.8.1-1.61.2-2.44.3q-1.08.14-2.19.29-1.81.09-3.81-.91c-.33.66-.66,1.32-1,2-.33-.33-.66-.66-1-1h-3c-1.01-.02-2.02-.04-3.06-.06q-2.87-.15-4.94,1.06c-.66-.33-1.32-.66-2-1-.33.66-.66,1.32-1,2v-2c-.99-.33-1.98-.66-3-1-.66.33-1.32.66-2,1-2.01,0-4.02,0-6.03-.04q-2.06-.04-4.34.66c-.54.12-1.07.25-1.62.38-.66-.66-1.32-1.32-2-2q-2.07-.64-4-1c.33-1.65.66-3.3,1-5-.99-.66-1.98-1.32-3-2,.66-2.31,1.32-4.62,2-7,1.4-.31,2.79-.63,4.19-.94.78-.17,1.55-.35,2.36-.53.81-.18,1.62-.35,2.46-.54.8-.19,1.61-.37,2.44-.56,2.84-.48,5.5-.53,8.38-.5.98,0,1.95.02,2.96.03q1.1.02,2.23.04v-3h2c-2.06-3.09-2.86-3.48-6-5-.33-.66-.66-1.32-1-2h-3c-.8-.17-1.61-.33-2.44-.5q-2.78-.63-6.56-.5v-2c-.72.19-1.44.37-2.19.56-3.08.48-4.8.19-7.81-.56-5.12-1.26-9.69-2.12-15-2-1.33-.33-2.67-.66-4-1-1.39-.14-2.79-.27-4.19-.38-4.15-.43-7.81-1.45-11.73-2.87-1.83-.66-3.71-1.22-5.58-1.75-.82-.33-1.65-.66-2.5-1-.33-.99-.66-1.98-1-3-.99.33-1.98.66-3,1q-2.34-1.18-4.94-2.88c-3.02-1.96-5.49-3.48-9.06-4.12v-2c-.74-.1-1.49-.21-2.25-.31q-2.75-.69-4.5-2.06c-3.4-2.46-7.26-3.42-11.25-4.62v-2c-6.78-3.45-13.78-6.59-21-9v-2c-.99.33-1.98.66-3,1l-1-2q-1.33.03-2.69.06c-4.06-.08-7.29-.66-11.07-2.15-3.67-1.03-5.95-.83-9.68-.16-1.13.2-2.26.39-3.43.6-2.48.51-4.85,1.09-7.26,1.84q-2.88.81-5.88-.19l-1,2h-3c-1.37,5.33-.86,9.88,1,15q1.96,2.29,4,4c.16.7.33,1.4.5,2.12q.31,2.04,2.25,2.94c.74.31,1.49.62,2.25.94q2.75,1.31,5,3c.7,3.79-.43,6.56-2,10h-2c-.47.49-.95.99-1.44,1.5q-1.56,1.5-4.56,1.5l-2,2v-2q-1.58.09-3.19.19c-4.06-.2-5.5-1.04-8.81-3.19h-4c-2.34-.63-4.68-1.29-7-2v-2c-1.98-.33-3.96-.66-6-1v-2q-1.33-.37-2.69-.75c-3.43-1.3-5.52-2.91-8.31-5.25-.99-.33-1.98-.66-3-1-1.69-1.64-3.35-3.31-5-5-.89-.7-1.77-1.4-2.69-2.12q-2.31-1.88-4.31-4.88c-.99-.33-1.98-.66-3-1v-4c-.72-.21-1.43-.41-2.17-.62-3.61-1.75-5.69-4.3-8.14-7.38q-.68-.82-1.38-1.66-3.31-4.06-3.31-6.34h-2q-.43-.96-.88-1.94-.95-2.21-3.12-3.06v-3l-2-1c-.59-2.65-.74-5.29-1-8H1.2c-2.33-8.72-1.14-16.91,2.31-25.12,5.96-10.16,16.92-15.83,27.38-20.31,6.95-3.07,13.74-6.15,20.25-10.06,4.23-2.51,8.14-4.5,12.86-5.86,2.58-.75,5.06-1.69,7.57-2.64,7.77-2.83,15.27-5.56,23.62-5,.26-.69.51-1.39.77-2.11,1.38-3.25,3.06-6.17,4.85-9.21,4.49-7.72,8.45-15.67,12.38-23.69.4-.77.79-1.54,1.2-2.33q.89-1.7,1.24-3.8.56-1.88,3.56-3.88c.98-1.65,1.95-3.3,2.86-4.98,2.04-3.62,4.41-7.03,6.76-10.46q.73-1.1,1.48-2.22c.47-.69.94-1.38,1.43-2.09.42-.63.85-1.25,1.29-1.9.39-.45.77-.9,1.17-1.36h2c.33-1.32.66-2.64,1-4h2v-2h2q.43-.9.88-1.81,1.12-2.19,3.12-5.19h2c.66-1.32,1.32-2.64,2-4h2q.37-.93.75-1.88c1.46-2.48,2.63-3.08,5.25-4.12v-2c1.64-1.31,3.34-2.55,5.06-3.75,3.33-2.36,6.54-4.69,9.56-7.44,3.74-3.3,9.22-7.81,14.38-7.81v-2c2.25-1.13,4.51-2.25,6.77-3.38,2.33-1.17,4.65-2.34,6.97-3.52,7.62-3.87,15.26-7.49,23.14-10.79,2.71-1.14,5.39-2.33,8.06-3.56,3.63-1.61,7.21-2.77,11.06-3.75q1.36-.37,2.75-.75c5.71-1.51,11.2-2.63,17.09-3.04q2.12-.14,3.97-.72c9.88-2.22,20.72-.52,30.19,2.51q1.86.59,3.75,1.19,1.11.4,2.25.81v2q1.08.32,2.18.65c3.49,1.67,5.54,3.97,7.95,6.91.47.56.94,1.12,1.42,1.7,6.48,7.98,11.9,16.76,17.15,25.58,6.26,10.35,16.66,18.64,27.3,24.16.79.48,1.59.96,2.41,1.45,2.52,1.44,6.59,3.08,9.35,3.96M312.2,17.52l1,2-1-2ZM254.2,18.52l1,2-1-2ZM42.2,240.52q2.37,1.81,5,3l2,2c4.36,4.02,8.66,7.38,14,10l2-1c-.13-.66-.27-1.33-.4-2.01l-1.6-7.99c-.19-.89-.37-1.79-.57-2.71q-.43-2.29-.43-4.29c.99-.33,1.98-.66,3-1l2-2,2-2c.31-.68.62-1.36.94-2.06q1.06-1.94,4.06-2.94c.45-.48.9-.96,1.37-1.46,2.09-1.98,3.93-2.46,6.69-3.23q1.32-.38,2.66-.76,2.28-.55,4.28-.55v-2c6.1-.96,11.98-1.05,18.14-.94q2.93.08,5.86-1.06l1,2h4c1.73.1,3.46.23,5.19.38.88.07,1.76.14,2.67.21.71.14,1.42.27,2.14.41l1,2q1.81.63,4.06,1.12c6.46,1.81,12.18,4.86,18.11,7.94q6.27,3.61,13.08,4.69c.58-.25,1.15-.49,1.75-.75,2.97-.99,4.51-1.08,7.56-.81.79.06.13.88.94.94,2.06.64,2,.46,3.19,2.38.4,1.03,1.9.44,2.31,1.5,1.96,2.98,2.53,3.84,6,5,.05.93.09,1.87.14,2.83q.53,3.36,3.38,4.74c1.09.37,2.17.73,3.29,1.11,1.17.4,2.35.8,3.56,1.21,6.46,1.96,12.91,3.82,19.63,4.66q3,.44,5,1.5c2.96,1.39,5.77,1,9,.94.66.33,1.32.66,2,1,3.65.39,7.33.51,11,.69q1.54.09,3.1.18c.98.05,1.95.09,2.96.14.9.05,1.8.09,2.72.14q2.42.08,4.21-2.15h-3c-.27-11.65.39-20.56,6-31,.34-.72.67-1.43,1.02-2.17,1.31-2.44,2.42-2.79,4.98-3.83,1.13-.56,2.27-1.11,3.44-1.69,3.65-1.34,4.96-1.44,8.56-.31h2c1.21,2.33-1.47,4.12-.63,6.63-.66.33,2.31,1.03,1.63,1.37-4.43,6.17-6.8,11.3-5.72,18.91.84,2.43,1.72,3.51,3.72,5.09,4.97,1.66,9.18,1.87,13.88-.38,2.31-2.85,2.53-4.09,3.06-7.62.63-4,.8-4.75,3.88-7.69,3.46-1.42,4.7-1.38,8.19-.31.66-.33,1.32-.66,2-1,2.99,4.1,3.3,6.98,3,12,.66,0-.68,0,0,0-.33.58,1.34,1.15,1,1.75q-1.27,2.45-1,6.25h-2c-2.01,2.33-3.02,4.05-4,7h-2c-1.81,1.59-2.92,2.84-4,5q-1.71,1-3.81,2c-.69.33-1.37.66-2.08,1-.69.33-1.39.66-2.11,1-.68.39-1.37.78-2.07,1.19q-1.93.81-4.93-.19c-2.35.6-4.69,1.26-7,2v2h2v10h-2v3c2.31-.33,4.62-.66,7-1v2c.97-.12,1.94-.24,2.94-.37q.96-.12,1.94-.24c1.44-.18,2.87-.36,4.31-.54,3.66-.46,7.32-.91,10.99-1.32,8.43-.96,16.61-2.4,24.83-4.53.91-.23,1.82-.45,2.76-.68q14.56-3.14,26.24-11.32.8-3.14,1-6-.87-.4-1.75-.81-2.25-1.19-4.31-2.81-1.95-1.66-4.94-1.38c-.33-.99-.66-1.98-1-3-.66-.33-1.32-.66-2-1-.34-2-.67-4-1-6-.66-.66-1.32-1.32-2-2-.1-1.22-.21-2.43-.31-3.69-.75-3.46-1.58-4.24-4.57-6.29-2.3-1.21-4.61-2.37-6.96-3.48-2.72-1.32-4.83-2.66-7.16-4.54-3.19-2.13-5.27-2.5-9-3-.33-.99-.66-1.98-1-3h-5v-2c-.7-.34-1.4-.68-2.12-1.02-.91-.45-1.82-.89-2.76-1.35-.9-.44-1.81-.88-2.74-1.34q-2.38-1.29-4.38-3.29c-.99.33-1.98.66-3,1v-2c-2.26-2.01-4.41-3.71-7.12-5.06q-1.88-.94-3.25-2.38c-2.25-2.16-4.83-3.22-7.62-4.56-.99-.66-1.98-1.32-3-2-.78-.15-1.56-.31-2.36-.46-2.96-.6-5.16-1.69-7.82-3.1q-3.24-1.86-6.81-2.44c-.33-1.65-.66-3.3-1-5,.66-.33,1.32-.66,2-1-.66-.33-1.32-.66-2-1q-.62-2.06-1-4c.99-.33,1.98-.66,3-1q.73-2.02,1-4c4.78-1.58,8.28-.17,12.75,1.62.71.27,1.41.55,2.14.83,4.75,1.87,9.18,4.03,13.51,6.76q.79.39,1.6.79c.66-.33,1.32-.66,2-1q-1.98-3.46-4-7h-2c-.12-.56-.24-1.12-.37-1.7-1.26-4.56-2.89-8.28-6.63-11.3-4.1-.46-7.53-.27-11.64.17-1.11-.06-2.22-.11-3.36-.17q-2.02-2.36-3-5c.33-.66.66-1.32,1-2-.66-.66-1.32-1.32-2-2,.33-.66.66-1.32,1-2-.33-.66-.66-1.32-1-2,2.01-1.02,4.02-2.01,6.07-2.93q1.02-.47,2.05-.95c.68-.31,1.37-.61,2.07-.93,2.26-1.5,2.87-2.66,3.8-5.2,1.07-5.88,1.02-11.86.94-17.81-.09-10.12,1.03-20.14,2.06-30.19-.64-.29-1.29-.57-1.95-.87q-2.05-1.13-2.8-3.26c-.08-.62-.17-1.24-.25-1.88h-2c.33-1.98.66-3.96,1-6-1.65-.33-3.3-.66-5-1-.33-.99-.66-1.98-1-3h-2c-1.33-3.02-.9-4.37,0-7.62q2-3.38,5.56-4.5,1.7-.43,3.44-.88c1.43-2.48,1.93-4.36,2.25-7.19q.75-1.81,3.5-3.12c3.36-.71,5.05-.87,8.25.31,3.08,2.48,4.2,4.2,5,8,.68.11,1.35.22,2.05.33q1.34.24,2.7.48c.88.15,1.76.3,2.67.46,2.83.8,4.45,1.72,6.58,3.73.25,1.01.49,2.02.75,3.06.41.97.82,1.94,1.25,2.94,6.18,2.07,12.27,2.44,18.75,2.69.93.05,1.86.09,2.82.14,4.04.18,7.51.32,11.43-.83.33-1.65.66-3.3,1-5q-1.03-.81-2.08-1.64-1.35-1.07-2.73-2.17c-.89-.71-1.79-1.42-2.71-2.14q-2.48-2.04-4.18-3.8-1.24-1.47-3.3-1.24l-1-2h-3c-1.66-1.45-3.04-3.04-4.5-4.69q-1.54-1.64-4.5-1.31v-2c-.64-.12-1.28-.25-1.94-.38-.68-.21-1.36-.41-2.06-.62l-1-2c-.66-.27-1.32-.54-2-.81q-2-1.19-2.62-3.5c-.12-.89-.25-1.77-.38-2.69q-1.13-3.52-3.45-6.3c-2.64-2.9-3.33-6.62-4.49-10.3-.35-.79-.7-1.58-1.06-2.4-.99-.33-1.98-.66-3-1-.41-.52-.82-1.03-1.25-1.56-2.73-2.24-5.35-1.63-8.75-1.44l-1-3c-.62.19-1.24.37-1.88.56q-2.12.44-4.12-.56c-1.66-.1-3.33-.13-5-.12q-1.33,0-2.69,0-2.34-.02-4.31,1.13c-.33-.66-.66-1.32-1-2-.99.66-1.98,1.32-3,2v2c-.99-.33-1.98-.66-3-1q-2.13,3.98-3.5,8.25-.5,1.75-3.5,3.75l-2,3h-3l-2,2c-5.69,1-11.24,1.12-17,1-.33-.99-.66-1.98-1-3-7.86,0-17.78,2.84-23.54,8.52-.48.49-.96.97-1.46,1.48-1.98,1.05-3.97,2.05-6,3v3c-.8.21-1.61.41-2.44.62-6.17,2.38-12.31,6.23-16.56,11.38-.33.99-.66,1.98-1,3h-3q-1.48,1.23-3,3c-2.52,2.52-5.04,5.04-7.62,7.5-2.27,2.39-3.74,4.67-5.38,7.5q-1.69,1.81-3,3c.33.66.66,1.32,1,2l-2,1c-.31.66-.62,1.32-.94,2q-1.06,2-4.06,3c-1.05,1.64-2.04,3.31-3,5-.66.8-1.32,1.61-2,2.44-2.12,2.72-3.51,5.46-5,8.56-.66.99-1.32,1.98-2,3v3c-.64.23-1.29.47-1.95.71q-2.25,1.1-2.66,3.45c-.05.81-.09,1.62-.14,2.46q-.09,1.23-.17,2.48c-.03.63-.05,1.25-.08,1.9q-1.49.5-3,1c-.7,1.99-1.37,3.99-2,6q-.99.49-2,1v5q-.99.49-2,1-.65,2.02-1,4c1.77.81,3.54,1.63,5.31,2.44q1.48.68,2.99,1.37,2.71,1.25,5.7,2.19l1,2c.72.29,1.44.58,2.19.88q2.81,1.12,5.88,3.25,2.92,2.23,6.94,1.88c.21.52.43,1.04.64,1.58,1.92,3.44,4.46,6.22,7.04,9.17.54.62,1.08,1.24,1.63,1.88,1.07,1.23,2.14,2.46,3.22,3.69,1.25,1.44,2.48,2.89,3.71,4.34q.9,1.07,1.82,2.15c.51.6,1.01,1.21,1.54,1.83q1.47,1.62,4.4,2.36v3q1.54,1.38,3.62,2.56c.77.47,1.54.94,2.34,1.42.82.48,1.64.96,2.48,1.46q1.17.72,2.37,1.45c5.24,3.14,10.57,5.74,16.19,8.12.84.38,1.67.77,2.53,1.16,4.35,1.99,8.71,3.66,13.27,5.12q10.74,3.51,14.2,5.72c.33.99.66,1.98,1,3h3c-.66.33-1.32.66-2,1,.33,1.65.66,3.3,1,5-.99.33-1.98.66-3,1l1,2h-4l-1,2c-.99.33-1.98.66-3,1l-1-2c-1.87-.2-3.73-.4-5.6-.59-5.11-.87-10.71-2.71-14.4-6.41-1.03-.12-2.06-.25-3.12-.38-5.72-.92-10.1-3.44-14.88-6.62-.99-.33-1.98-.66-3-1-.99-.33-1.98-.66-3-1v-2h-4v-2c-.74-.38-1.47-.75-2.23-1.14-5.34-2.8-9.7-5.32-13.77-9.86-2.58-2.19-5.16-4.1-8-5.94-3.05-2.09-5.43-4.42-8-7.06l-2-1c-.33.99-2.86,1.2-3.2,2.22-.99.33-1.89-1.15-2.91-.81-2.1,1.91-2.82,3.22-4.09,5.77-2.29.35-3.35,3.27-5.67,3.38q-2.52.26-4.13,3.44l-2-1c-.78.33-1.57.66-2.38,1-2.83,1.08-.91-1.27-3.68-2.3,0-.66-2.48-2.54-2.48-3.22-.91-.29-2.35.92-3.29.62-4.1-2.68-4.42-2.77-5.97-7.25-2.2-5.17-5.77-9.45-9.21-13.85-3.6,1.76-6.87,3.47-10,6-.56-.33-1.11-.66-1.69-1-2.62-1.13-1.06-3.21-3.88-3.06.33-1.65-2.77-1.24-2.43-2.94h-4c.33-1.32.66-2.64,1-4-.58.47-1.15.95-1.75,1.44-2.2,1.53-3.7,1.95-6.25,2.56l-1,2h-3q-.28.96-.56,1.94-1.44,2.06-5.06,2.81c-1.11.08-2.23.16-3.38.25-.33.99-.66,1.98-1,3-.99-.33-1.98-.66-3-1-2.36.93-4.7,1.93-7,3-.99.33-1.98.66-3,1v2h-3c-.66.99-1.32,1.98-2,3l-5,3c-2.95,4.43-3.11,8.37-2.75,13.62.98,4.4,2.58,7.2,5.75,10.38M186.2,50.52l1,2-1-2ZM260.2,157.52l1,4-1-4ZM104.2,160.52q-1.34,2.85-.11,4.87c.45.66.9,1.33,1.36,2.01.46.7.93,1.41,1.41,2.13.44.66.89,1.31,1.34,1.99,1.95,3.07,1.63,6.81,2.42,10.33,5.45-1.03,11.69-3.57,16.58-6.33q-.68-.65-1.38-1.31-1.62-1.69-3.62-4.69c-2.31-1.34-4.46-2.15-7-3-.33-.99-.66-1.98-1-3q-2.33-1.03-5.06-1.69c-.92-.25-1.84-.5-2.79-.76-.71-.18-1.42-.36-2.15-.55ZM64.2,237.52l-1,2h2l-1-2ZM65.2,255.52v2l2-1-2-1ZM203.2,271.52l1,2-1-2ZM357.2,279.52l1,2-1-2ZM233.2,305.52l1,2-1-2Z"/>
                                <path class="cls-1" d="M196.2,71.52c5.54,2.03,8.21,7.08,11,12q1.19,2.94,2,6c.54,1.79,1.08,3.58,1.62,5.38.46,1.54.92,3.08,1.38,4.62q.87.16,1.77.33c5.89,1.14,11.72,2.44,17.53,3.97,2.07.54,4.17.98,6.27,1.39,3.32,1.79,4.01,3.76,5.11,7.28.45,2.84-.33,4.55-1.68,7.03v3c-.62.1-1.24.21-1.88.31q-2.49.56-4.12,3.69h-4v2q-1.49.49-3,1l-1,2q-3.06.62-6,1c-1.31,8.57-1.61,17.68,1.19,26q.81,3,.12,5.75-2.22,3.8-4.31,5.25-2.06-.44-4-1c-.66.66-1.32,1.32-2,2-4.42-1.86-8.73-3.81-13-6v-2h-3v-2c-1.32-.33-2.64-.66-4-1v-2c-1.32-.33-2.64-.66-4-1v-2c-1.28.02-2.56.04-3.88.06q-3.88.06-6.12-1.06c-.33.66-.66,1.32-1,2-1.87.17-3.74.34-5.62.51-2.85.59-4.92,1.75-7.45,3.18-3.4,1.84-5.29,2.74-9.06,1.62-.95-.43-1.9-.87-2.88-1.31v-2h-3c-1.79-6.2-.1-9.72,2.72-15.4,1.38-2.8,2.39-5.61,3.28-8.6h2c.8-3.29,1.1-4.71,0-8-1.32-.69-2.66-1.35-4-2-2.07-1.63-4.04-3.26-6-5-.93-.83-1.86-1.65-2.81-2.5-2.43-2.78-3.27-3.82-3.19-7.5.5-3.47,1.44-5.57,4-8,6.67-2.56,13.82-4.34,21-4v-2q1.25-1.62,3-3h4c3.75-3.63,5.6-8.18,7.66-12.89q1.34-2.11,3.44-2.72c.63-.13,1.26-.26,1.91-.39.33-.99.66-1.98,1-3,3.06-1.53,5.62-1.23,9-1ZM191.2,100.52v3q-.99.49-2,1l-2,2c-.66.14-1.32.29-2,.44q-2.39.44-4,3.56c-2.56,1.06-3.89,1.02-6.62.44-.78-.14-1.57-.29-2.38-.44l-2,2c.76.76,1.53,1.53,2.31,2.31l2.69,2.69c.58.47,1.16.95,1.75,1.44,1.85,2.32,1.93,4.67,2.25,7.56h-2v6h-2v2c2.97-.54,5.69-1.23,8.56-2.19q3.44-.81,5.88.06c.52.37,1.03.74,1.56,1.12v-2h2c.33,1.65.66,3.3,1,5q.99-.5,2-1c.66,1.32,1.32,2.64,2,4q1.48-.5,3-1l1-8h-2c.66-1.32,1.32-2.64,2-4h-2v-2c1.65-.33,3.3-.66,5-1v-2c.99-.33,1.98-.66,3-1v-2c.99-.33,1.98-.66,3-1-.6-.19-1.21-.39-1.83-.59-.8-.26-1.6-.52-2.42-.79-.79-.26-1.58-.51-2.39-.77q-1.17-.42-2.36-.85c-.7-.24-1.4-.47-2.12-.72-2.81-1.92-3.42-4.27-4.62-7.41-.43-1.1-.86-2.19-1.3-3.32-.31-.84-.63-1.69-.95-2.55h-2ZM200.2,109.52c-.66-.33-1.32-.66-2-1v3"/>
                                <path class="cls-1" d="M279.2,222.52q2.06,1.81,3,4c-.28,2.89-1.08,5.24-2,8q-.99.49-2,1c-3.21,4.63-3.4,8.38-2.63,13.79q.5,2.41,2.69,4.34c3.98,1.18,6.78,1.27,10.94.88q2.27-1.13,4-3,.65-2.33.81-4.88c.64-3.91,1.32-5.88,4.5-8.31,2.54-1.51,3.41-1.83,6.44-1.62.74.27,1.49.54,2.25.81h3c2.95,3.71,3.2,6.36,3,11q.49,1.49,1,3-.94,3.19-2,6h-2c-.33,1.65-.66,3.3-1,5h-2l-1,2h-2c-.33.99-.66,1.98-1,3h-2c.33.99.66,1.98,1,3-.78.12-1.57.25-2.38.38q-2.77.42-4.62,2.62-4.26,3.11-7.56,2.62c-.8-.21-1.61-.41-2.44-.62-.66.21-1.32.41-2,.62-3.02.57-4.52-.99-7-2.62h-2v-4q-1.39-.19-2.81-.38-3.19-.62-6.19-2.62c-3.08-.64-5.85-1-9-1-3.28-2.9-3.62-6.23-3.93-10.38-.27-9.99.75-19.71,7.61-27.53,1.7-1.53,3.42-2.82,5.32-4.09.97-.66,1.94-1.32,2.94-2,4.17-1.36,7.1-.78,11.06,1Z"/>
                                <path class="cls-1" d="M386.95,69.9l3.25,1.62c.66.3,1.33.6,2.01.9,3.94,2.17,7.09,5.88,8.79,10.04.46,1.67.84,3.36,1.21,5.05l1,2c.04,2,.04,4,0,6h-2c.08,1.09.16,2.19.25,3.31q-.25,3.69-2.06,5.44c-.72.41-1.44.83-2.19,1.25-1.02.98-2.02,1.98-3,3-.66.66-1.32,1.32-2,2h-4c-.33.66-.66,1.32-1,2q-12.58,0-18-2.69c-1.03-.5-2.06-1-3.12-1.51-4.21-2.63-7.09-6.16-8.88-10.8-.86-6.46-.23-11.79,2.83-17.54q1.17-1.46,4.17-2.46c.29-.62.58-1.24.88-1.88,1.51-2.85,3.3-3.65,6.12-5.12.6-.39,1.2-.78,1.81-1.19,4.94-1.83,9.15-1.19,13.94.56ZM376.2,87.52v6q2.48.99,5,2,1.56-1.31,3-3v-3c-3.09-1.76-4.23-2-8-2Z"/>
                                <path class="cls-1" d="M97.2,158.52l1,2c.79.12,1.59.24,2.4.36q2.6.64,4.04,2.49c.37.77.74,1.54,1.12,2.33,1.44,2.87,2.86,5.53,4.75,8.12q1.69,2.69,1.69,6.69c.99-.36,1.97-.72,2.99-1.09,1.29-.47,2.59-.94,3.88-1.41.65-.24,1.3-.48,1.97-.72q4.93-1.78,7.15-1.78v2c.58.25,1.15.5,1.75.75,2.68,1.49,4.36,2.82,6.25,5.25q.25,3.25,0,6h-4c-.27.62-.54,1.24-.81,1.88q-1.19,2.12-4.19,4.12h-4l-1,2c-1.32-.33-2.64-.66-4-1l-2,4q-.99-.49-2-1c-2.02.61-4.02,1.27-6,2v-2h-3v-2c-.6-.14-1.2-.29-1.81-.44-1.75-.45-3.47-.99-5.19-1.56q-1.06-2.75-2-6c-1.1-3.02-1.72-4.72-4-7-1.06-1.36-2.1-2.74-3.12-4.12-.54-.72-1.08-1.45-1.63-2.2-.41-.55-.82-1.11-1.24-1.68-3.08,1.75-5.56,3.45-8,6-1.65-.42-3.29-.86-4.94-1.31-.92-.24-1.83-.49-2.78-.74-.75-.31-1.51-.63-2.29-.95l-1-3,1-1-3-1q.81-1.94,2-4l3-1c.66-.66,1.32-1.32,2-2l2,1c.33-.66.66-1.32,1-2q1.88-.56,4-1l3-1,2,1c.33-.66.66-1.32,1-2l4,1c.66-.99,1.32-1.98,2-3l6,1v-2Z"/>
                                <path class="cls-1" d="M283.2,57.52q2.81,1.62,5,4,.81,3.25,1,6l5.96-.2q2.04.2,5.04,2.2c1.33.68,2.66,1.35,4,2v6c-.93-.14-1.86-.29-2.82-.44-1.24-.19-2.47-.37-3.75-.56-1.22-.19-2.44-.37-3.69-.56-3.62-.42-7.1-.51-10.75-.44-.33.99-.66,1.98-1,3h-2v6h-2v5h-2c.04,1.11.08,2.23.12,3.38q-.12,3.62-2.12,5.62c-1.32-.66-2.64-1.32-4-2v-4h-2v-5q-2.48-.99-5-2v-3l-3,1c-1.19-3.56-.98-5.05.25-8.69q1.75-3.31,4.75-5.31,2.69-.12,5,0c.14-1.09.29-2.19.44-3.31q.56-3.69,1.56-6.69c3.68-2,6.85-2.52,11-2Z"/>
                                <path class="cls-1" d="M247.2,20.52l1,2c.99-.33,1.98-.66,3-1q1,2,.51,3.91c-.27.71-.54,1.42-.82,2.15-.26.71-.53,1.43-.8,2.16q-.89,1.78-2.89,2.78-.43.99-.88,2-1.12,2-3.12,2.62c-.66.12-1.32.25-2,.38-.66.66-1.32,1.32-2,2v-2c-.95.35-1.9.7-2.88,1.06-5.36,1.54-11.34,1.2-16.43-1.11-.56-.31-1.12-.63-1.7-.95.33-1.32.66-2.64,1-4v2h2l-1-3h3l3-2,2-1,2,1v-2c.72-.12,1.44-.25,2.19-.38,2.78-.62,5.19-1.55,7.81-2.62.7-.14,1.4-.29,2.12-.44,2.29-.69,3.32-1.78,4.88-3.56Z"/>
                                <path class="cls-1" d="M270.2,149.52c2.16,3.95,3.12,8,4.22,12.34.71,2.41,1.58,4.46,2.78,6.66-3.28,1.95-5.77,2.27-9.56,2.25q-1.43,0-2.88.02-2.56-.27-5.56-2.27c-1.35-3.94-1-7.87-1-12q2.12-1.57,4.88-3.12c.9-.52,1.81-1.04,2.74-1.57,1.45-.79,2.91-1.57,4.38-2.3ZM260.2,157.52l1,4-1-4Z"/>
                                <path class="cls-1" d="M27.4,214.44c6.54.63,8.07.98,12.69,5.81q2.31,3.19,2.06,5.75c-.25.8-.49,1.61-.75,2.44.21.85.41,1.69.62,2.56q.38,2.44-1.06,4.75c-.52.56-1.03,1.11-1.56,1.69-1.71-1.62-3.37-3.29-5-5-.74-.38-.69-.37-1.57-.9-.05-.53-.09-.98-.18-1.79-2.83-1.65-4.3-3.71-6.25-6.31-.66-.66-1.32-1.32-2-2q-.62-2.12-1-4h3c.33-.99.66-1.98,1-3Z"/>
                                <path class="cls-1" d="M168.51,233.27c4.4.43,6.98.68,10.51,3.5.72.91,1.44,1.82,2.19,2.75.95.85,1.9,1.69,2.88,2.56.7.8,1.4,1.61,2.12,2.44q-.19,2.31-1,4c-4.04-1.59-8.02-3.28-12-5v-2c-1.09-.27-2.19-.54-3.31-.81-3.3-1.06-4.64-1.53-6.69-4.19,1.72-2.15,2.51-2.95,5.3-3.25Z"/>
                                <path class="cls-1" d="M344.2,248.52c6.57,3.76,10.8,7.1,14,14q-.4,2.22-1,4-10.73-4.9-13.25-11.06-.75-2.94-.75-5.94l1-1Z"/></svg>